STARTFONT 2.1
FONT -FontForge-Helvetica-Bold-R-Normal--10-100-75-75-P-59-ISO10646-1
SIZE 10 75 75
FONTBOUNDINGBOX 24 17 -10 -5
COMMENT "Generated by fontforge, http://fontforge.sourceforge.net"
COMMENT "(c) 1990-2006 Apple Computer Inc. (c) 1981 Linotype AG (c) 1990-91 Type Solutions Inc."
STARTPROPERTIES 41
FOUNDRY "FontForge"
FAMILY_NAME "Helvetica"
WEIGHT_NAME "Bold"
SLANT "R"
SETWIDTH_NAME "Normal"
ADD_STYLE_NAME ""
PIXEL_SIZE 10
POINT_SIZE 100
RESOLUTION_X 75
RESOLUTION_Y 75
SPACING "P"
AVERAGE_WIDTH 59
CHARSET_REGISTRY "ISO10646"
CHARSET_ENCODING "1"
FONTNAME_REGISTRY ""
CHARSET_COLLECTIONS "ISO8859-2 ISO8859-5 ISO8859-7 ISO8859-9 ISO8859-4 ISO10646-1"
FONT_NAME "Helvetica-Bold"
FACE_NAME "Helvetica Bold"
COPYRIGHT "(c) 1990-2006 Apple Computer Inc. (c) 1981 Linotype AG (c) 1990-91 Type Solutions Inc."
FONT_VERSION "13.0d2e2"
FONT_ASCENT 8
FONT_DESCENT 2
UNDERLINE_POSITION -1
UNDERLINE_THICKNESS 1
X_HEIGHT 4
CAP_HEIGHT 6
DEFAULT_CHAR 1
RAW_ASCENT 799
RAW_DESCENT 200
NORM_SPACE 3
RELATIVE_WEIGHT 70
RELATIVE_SETWIDTH 50
SUPERSCRIPT_X 0
SUPERSCRIPT_Y 4
SUPERSCRIPT_SIZE 6
SUBSCRIPT_X 0
SUBSCRIPT_Y 1
SUBSCRIPT_SIZE 6
FIGURE_WIDTH 5
AVG_LOWERCASE_WIDTH 59
AVG_UPPERCASE_WIDTH 76
ENDPROPERTIES
CHARS 2240
STARTCHAR .null.dup1
ENCODING 0
SWIDTH 0 0
DWIDTH 0 0
BBX 1 1 0 0
BITMAP
00
ENDCHAR
STARTCHAR .null
ENCODING 8
SWIDTH 0 0
DWIDTH 0 0
BBX 1 1 0 0
BITMAP
00
ENDCHAR
STARTCHAR nonmarkingreturn
ENCODING 9
SWIDTH 277 0
DWIDTH 3 0
BBX 1 1 0 0
BITMAP
00
ENDCHAR
STARTCHAR nonmarkingreturn.dup2
ENCODING 10
SWIDTH 277 0
DWIDTH 3 0
BBX 1 1 0 0
BITMAP
00
ENDCHAR
STARTCHAR nonmarkingreturn.dup3
ENCODING 13
SWIDTH 277 0
DWIDTH 3 0
BBX 1 1 0 0
BITMAP
00
ENDCHAR
STARTCHAR .null.dup4
ENCODING 29
SWIDTH 0 0
DWIDTH 0 0
BBX 1 1 0 0
BITMAP
00
ENDCHAR
STARTCHAR space
ENCODING 32
SWIDTH 277 0
DWIDTH 3 0
BBX 1 1 0 0
BITMAP
00
ENDCHAR
STARTCHAR exclam
ENCODING 33
SWIDTH 333 0
DWIDTH 3 0
BBX 1 7 1 0
BITMAP
80
80
80
80
80
00
80
ENDCHAR
STARTCHAR quotedbl
ENCODING 34
SWIDTH 474 0
DWIDTH 5 0
BBX 3 3 1 4
BITMAP
A0
A0
A0
ENDCHAR
STARTCHAR numbersign
ENCODING 35
SWIDTH 556 0
DWIDTH 6 0
BBX 6 7 0 0
BITMAP
38
28
7C
30
F8
50
F0
ENDCHAR
STARTCHAR dollar
ENCODING 36
SWIDTH 556 0
DWIDTH 5 0
BBX 4 9 0 -1
BITMAP
20
70
B0
A0
70
30
B0
70
20
ENDCHAR
STARTCHAR percent
ENCODING 37
SWIDTH 889 0
DWIDTH 9 0
BBX 7 7 1 0
BITMAP
E4
A8
E8
10
1E
2A
6E
ENDCHAR
STARTCHAR ampersand
ENCODING 38
SWIDTH 722 0
DWIDTH 7 0
BBX 6 7 1 0
BITMAP
F0
90
70
E8
B8
98
7C
ENDCHAR
STARTCHAR quotesingle
ENCODING 39
SWIDTH 237 0
DWIDTH 2 0
BBX 1 3 1 4
BITMAP
80
80
80
ENDCHAR
STARTCHAR parenleft
ENCODING 40
SWIDTH 333 0
DWIDTH 3 0
BBX 2 9 1 -2
BITMAP
40
80
80
80
80
80
80
80
40
ENDCHAR
STARTCHAR parenright
ENCODING 41
SWIDTH 333 0
DWIDTH 3 0
BBX 2 7 1 0
BITMAP
80
40
40
40
40
40
80
ENDCHAR
STARTCHAR asterisk
ENCODING 42
SWIDTH 389 0
DWIDTH 4 0
BBX 3 3 0 4
BITMAP
40
E0
40
ENDCHAR
STARTCHAR plus
ENCODING 43
SWIDTH 583 0
DWIDTH 6 0
BBX 5 5 1 0
BITMAP
20
20
F8
20
20
ENDCHAR
STARTCHAR comma
ENCODING 44
SWIDTH 277 0
DWIDTH 2 0
BBX 1 3 1 -2
BITMAP
80
80
80
ENDCHAR
STARTCHAR hyphen
ENCODING 45
SWIDTH 333 0
DWIDTH 4 0
BBX 3 1 1 2
BITMAP
E0
ENDCHAR
STARTCHAR period
ENCODING 46
SWIDTH 277 0
DWIDTH 2 0
BBX 1 1 1 0
BITMAP
80
ENDCHAR
STARTCHAR slash
ENCODING 47
SWIDTH 277 0
DWIDTH 3 0
BBX 4 7 0 0
BITMAP
30
20
20
20
40
40
C0
ENDCHAR
STARTCHAR zero
ENCODING 48
SWIDTH 556 0
DWIDTH 5 0
BBX 5 7 0 0
BITMAP
70
88
88
88
88
88
70
ENDCHAR
STARTCHAR one
ENCODING 49
SWIDTH 556 0
DWIDTH 5 0
BBX 3 7 0 0
BITMAP
20
E0
20
20
20
20
20
ENDCHAR
STARTCHAR two
ENCODING 50
SWIDTH 556 0
DWIDTH 5 0
BBX 5 7 0 0
BITMAP
70
88
88
10
20
40
F8
ENDCHAR
STARTCHAR three
ENCODING 51
SWIDTH 556 0
DWIDTH 5 0
BBX 5 7 0 0
BITMAP
70
88
08
70
08
88
70
ENDCHAR
STARTCHAR four
ENCODING 52
SWIDTH 556 0
DWIDTH 5 0
BBX 5 7 0 0
BITMAP
30
30
50
90
F8
10
10
ENDCHAR
STARTCHAR five
ENCODING 53
SWIDTH 556 0
DWIDTH 5 0
BBX 5 7 0 0
BITMAP
78
80
F0
08
08
88
70
ENDCHAR
STARTCHAR six
ENCODING 54
SWIDTH 556 0
DWIDTH 5 0
BBX 5 7 0 0
BITMAP
70
88
F0
88
88
88
70
ENDCHAR
STARTCHAR seven
ENCODING 55
SWIDTH 556 0
DWIDTH 5 0
BBX 5 7 0 0
BITMAP
F8
10
20
20
40
40
40
ENDCHAR
STARTCHAR eight
ENCODING 56
SWIDTH 556 0
DWIDTH 5 0
BBX 5 7 0 0
BITMAP
70
88
88
70
88
88
70
ENDCHAR
STARTCHAR nine
ENCODING 57
SWIDTH 556 0
DWIDTH 5 0
BBX 5 7 0 0
BITMAP
70
88
88
88
78
88
70
ENDCHAR
STARTCHAR colon
ENCODING 58
SWIDTH 333 0
DWIDTH 3 0
BBX 1 5 1 0
BITMAP
80
00
00
00
80
ENDCHAR
STARTCHAR semicolon
ENCODING 59
SWIDTH 333 0
DWIDTH 3 0
BBX 1 7 1 -2
BITMAP
80
00
00
00
80
80
80
ENDCHAR
STARTCHAR less
ENCODING 60
SWIDTH 583 0
DWIDTH 6 0
BBX 6 7 0 0
BITMAP
04
1C
60
80
70
1C
04
ENDCHAR
STARTCHAR equal
ENCODING 61
SWIDTH 583 0
DWIDTH 6 0
BBX 5 3 1 1
BITMAP
F8
00
F8
ENDCHAR
STARTCHAR greater
ENCODING 62
SWIDTH 583 0
DWIDTH 6 0
BBX 6 7 0 0
BITMAP
80
E0
18
04
18
E0
80
ENDCHAR
STARTCHAR question
ENCODING 63
SWIDTH 610 0
DWIDTH 6 0
BBX 5 7 1 0
BITMAP
70
88
08
30
20
00
20
ENDCHAR
STARTCHAR at
ENCODING 64
SWIDTH 975 0
DWIDTH 10 0
BBX 8 8 1 0
BITMAP
3C
42
9D
A5
A5
BE
42
3C
ENDCHAR
STARTCHAR A
ENCODING 65
SWIDTH 722 0
DWIDTH 7 0
BBX 5 7 1 0
BITMAP
20
70
50
50
70
88
88
ENDCHAR
STARTCHAR B
ENCODING 66
SWIDTH 722 0
DWIDTH 8 0
BBX 6 7 1 0
BITMAP
F8
84
84
F8
84
84
F8
ENDCHAR
STARTCHAR C
ENCODING 67
SWIDTH 722 0
DWIDTH 7 0
BBX 6 7 0 0
BITMAP
78
C4
80
80
84
CC
78
ENDCHAR
STARTCHAR D
ENCODING 68
SWIDTH 722 0
DWIDTH 8 0
BBX 6 7 1 0
BITMAP
F8
8C
84
84
84
8C
F8
ENDCHAR
STARTCHAR E
ENCODING 69
SWIDTH 666 0
DWIDTH 7 0
BBX 5 7 1 0
BITMAP
F8
80
80
F0
80
80
F8
ENDCHAR
STARTCHAR F
ENCODING 70
SWIDTH 610 0
DWIDTH 6 0
BBX 5 7 1 0
BITMAP
F8
80
80
F8
80
80
80
ENDCHAR
STARTCHAR G
ENCODING 71
SWIDTH 777 0
DWIDTH 8 0
BBX 7 7 0 0
BITMAP
3C
42
80
8E
82
46
3A
ENDCHAR
STARTCHAR H
ENCODING 72
SWIDTH 722 0
DWIDTH 8 0
BBX 6 7 1 0
BITMAP
84
84
84
FC
84
84
84
ENDCHAR
STARTCHAR I
ENCODING 73
SWIDTH 277 0
DWIDTH 3 0
BBX 1 7 1 0
BITMAP
80
80
80
80
80
80
80
ENDCHAR
STARTCHAR J
ENCODING 74
SWIDTH 556 0
DWIDTH 6 0
BBX 5 7 0 0
BITMAP
08
08
08
08
88
88
70
ENDCHAR
STARTCHAR K
ENCODING 75
SWIDTH 722 0
DWIDTH 7 0
BBX 6 7 1 0
BITMAP
88
90
A0
E0
90
90
8C
ENDCHAR
STARTCHAR L
ENCODING 76
SWIDTH 610 0
DWIDTH 6 0
BBX 5 7 1 0
BITMAP
80
80
80
80
80
80
F8
ENDCHAR
STARTCHAR M
ENCODING 77
SWIDTH 833 0
DWIDTH 9 0
BBX 7 7 1 0
BITMAP
C6
C6
AA
AA
AA
AA
92
ENDCHAR
STARTCHAR N
ENCODING 78
SWIDTH 722 0
DWIDTH 8 0
BBX 6 7 1 0
BITMAP
C4
C4
A4
94
94
8C
84
ENDCHAR
STARTCHAR O
ENCODING 79
SWIDTH 777 0
DWIDTH 9 0
BBX 7 7 1 0
BITMAP
7C
C6
82
82
82
C6
7C
ENDCHAR
STARTCHAR P
ENCODING 80
SWIDTH 666 0
DWIDTH 7 0
BBX 5 7 1 0
BITMAP
F0
88
88
F0
80
80
80
ENDCHAR
STARTCHAR Q
ENCODING 81
SWIDTH 777 0
DWIDTH 9 0
BBX 7 7 1 0
BITMAP
38
44
82
82
82
CE
3E
ENDCHAR
STARTCHAR R
ENCODING 82
SWIDTH 722 0
DWIDTH 8 0
BBX 6 7 1 0
BITMAP
F8
84
84
F8
84
84
84
ENDCHAR
STARTCHAR S
ENCODING 83
SWIDTH 666 0
DWIDTH 7 0
BBX 6 7 0 0
BITMAP
78
84
80
78
04
84
78
ENDCHAR
STARTCHAR T
ENCODING 84
SWIDTH 610 0
DWIDTH 5 0
BBX 5 7 0 0
BITMAP
F8
20
20
20
20
20
20
ENDCHAR
STARTCHAR U
ENCODING 85
SWIDTH 722 0
DWIDTH 8 0
BBX 6 7 1 0
BITMAP
84
84
84
84
84
84
78
ENDCHAR
STARTCHAR V
ENCODING 86
SWIDTH 666 0
DWIDTH 7 0
BBX 5 7 1 0
BITMAP
88
88
50
50
50
20
20
ENDCHAR
STARTCHAR W
ENCODING 87
SWIDTH 943 0
DWIDTH 11 0
BBX 9 7 1 0
BITMAP
8880
5500
5500
5500
5500
2200
2200
ENDCHAR
STARTCHAR X
ENCODING 88
SWIDTH 666 0
DWIDTH 7 0
BBX 7 7 0 0
BITMAP
C6
44
28
10
28
44
C6
ENDCHAR
STARTCHAR Y
ENCODING 89
SWIDTH 666 0
DWIDTH 5 0
BBX 5 7 0 0
BITMAP
D8
50
50
20
20
20
20
ENDCHAR
STARTCHAR Z
ENCODING 90
SWIDTH 610 0
DWIDTH 6 0
BBX 6 7 0 0
BITMAP
FC
08
10
20
40
80
FC
ENDCHAR
STARTCHAR bracketleft
ENCODING 91
SWIDTH 333 0
DWIDTH 3 0
BBX 2 7 1 0
BITMAP
C0
80
80
80
80
80
C0
ENDCHAR
STARTCHAR backslash
ENCODING 92
SWIDTH 277 0
DWIDTH 3 0
BBX 4 7 0 0
BITMAP
80
80
40
40
40
20
30
ENDCHAR
STARTCHAR bracketright
ENCODING 93
SWIDTH 333 0
DWIDTH 3 0
BBX 2 7 0 0
BITMAP
C0
40
40
40
40
40
C0
ENDCHAR
STARTCHAR asciicircum
ENCODING 94
SWIDTH 583 0
DWIDTH 4 0
BBX 5 4 0 3
BITMAP
20
50
50
D8
ENDCHAR
STARTCHAR underscore
ENCODING 95
SWIDTH 556 0
DWIDTH 6 0
BBX 6 1 0 -1
BITMAP
FC
ENDCHAR
STARTCHAR grave
ENCODING 96
SWIDTH 333 0
DWIDTH 3 0
BBX 2 1 0 6
BITMAP
C0
ENDCHAR
STARTCHAR a
ENCODING 97
SWIDTH 556 0
DWIDTH 6 0
BBX 5 5 0 0
BITMAP
78
88
78
88
F8
ENDCHAR
STARTCHAR b
ENCODING 98
SWIDTH 610 0
DWIDTH 6 0
BBX 5 7 0 0
BITMAP
80
80
F0
88
88
88
F0
ENDCHAR
STARTCHAR c
ENCODING 99
SWIDTH 556 0
DWIDTH 6 0
BBX 5 5 0 0
BITMAP
70
88
80
88
70
ENDCHAR
STARTCHAR d
ENCODING 100
SWIDTH 610 0
DWIDTH 6 0
BBX 5 7 0 0
BITMAP
08
08
78
88
88
88
78
ENDCHAR
STARTCHAR e
ENCODING 101
SWIDTH 556 0
DWIDTH 6 0
BBX 5 5 0 0
BITMAP
70
88
F8
90
78
ENDCHAR
STARTCHAR f
ENCODING 102
SWIDTH 333 0
DWIDTH 3 0
BBX 3 7 0 0
BITMAP
60
40
E0
40
40
40
40
ENDCHAR
STARTCHAR g
ENCODING 103
SWIDTH 610 0
DWIDTH 6 0
BBX 5 7 0 -2
BITMAP
78
88
88
88
78
88
70
ENDCHAR
STARTCHAR h
ENCODING 104
SWIDTH 610 0
DWIDTH 6 0
BBX 5 7 0 0
BITMAP
80
80
F0
88
88
88
88
ENDCHAR
STARTCHAR i
ENCODING 105
SWIDTH 277 0
DWIDTH 2 0
BBX 1 7 0 0
BITMAP
80
00
80
80
80
80
80
ENDCHAR
STARTCHAR j
ENCODING 106
SWIDTH 277 0
DWIDTH 3 0
BBX 2 9 0 -2
BITMAP
40
00
40
40
40
40
40
40
C0
ENDCHAR
STARTCHAR k
ENCODING 107
SWIDTH 556 0
DWIDTH 5 0
BBX 3 7 1 0
BITMAP
80
80
A0
C0
C0
A0
A0
ENDCHAR
STARTCHAR l
ENCODING 108
SWIDTH 277 0
DWIDTH 2 0
BBX 1 7 0 0
BITMAP
80
80
80
80
80
80
80
ENDCHAR
STARTCHAR m
ENCODING 109
SWIDTH 889 0
DWIDTH 8 0
BBX 7 5 0 0
BITMAP
FC
92
92
92
92
ENDCHAR
STARTCHAR n
ENCODING 110
SWIDTH 610 0
DWIDTH 6 0
BBX 5 5 0 0
BITMAP
F0
88
88
88
88
ENDCHAR
STARTCHAR o
ENCODING 111
SWIDTH 610 0
DWIDTH 6 0
BBX 5 5 0 0
BITMAP
70
88
88
88
70
ENDCHAR
STARTCHAR p
ENCODING 112
SWIDTH 610 0
DWIDTH 6 0
BBX 5 7 0 -2
BITMAP
F0
88
88
88
F0
80
80
ENDCHAR
STARTCHAR q
ENCODING 113
SWIDTH 610 0
DWIDTH 6 0
BBX 5 7 0 -2
BITMAP
78
88
88
88
78
08
08
ENDCHAR
STARTCHAR r
ENCODING 114
SWIDTH 389 0
DWIDTH 3 0
BBX 3 5 0 0
BITMAP
E0
80
80
80
80
ENDCHAR
STARTCHAR s
ENCODING 115
SWIDTH 556 0
DWIDTH 6 0
BBX 5 5 0 0
BITMAP
70
88
78
88
78
ENDCHAR
STARTCHAR t
ENCODING 116
SWIDTH 333 0
DWIDTH 4 0
BBX 3 6 0 0
BITMAP
40
E0
40
40
40
60
ENDCHAR
STARTCHAR u
ENCODING 117
SWIDTH 610 0
DWIDTH 6 0
BBX 5 5 0 0
BITMAP
88
88
88
88
78
ENDCHAR
STARTCHAR v
ENCODING 118
SWIDTH 556 0
DWIDTH 7 0
BBX 5 5 1 0
BITMAP
88
50
50
50
20
ENDCHAR
STARTCHAR w
ENCODING 119
SWIDTH 777 0
DWIDTH 8 0
BBX 8 5 0 0
BITMAP
DB
5A
5A
6E
64
ENDCHAR
STARTCHAR x
ENCODING 120
SWIDTH 556 0
DWIDTH 6 0
BBX 6 5 0 0
BITMAP
CC
30
30
30
4C
ENDCHAR
STARTCHAR y
ENCODING 121
SWIDTH 556 0
DWIDTH 7 0
BBX 5 7 1 -2
BITMAP
88
50
50
50
20
20
C0
ENDCHAR
STARTCHAR z
ENCODING 122
SWIDTH 500 0
DWIDTH 5 0
BBX 5 5 0 0
BITMAP
F8
10
20
40
F8
ENDCHAR
STARTCHAR braceleft
ENCODING 123
SWIDTH 389 0
DWIDTH 4 0
BBX 3 9 0 -2
BITMAP
60
40
40
40
80
40
40
40
60
ENDCHAR
STARTCHAR bar
ENCODING 124
SWIDTH 279 0
DWIDTH 3 0
BBX 1 7 1 0
BITMAP
80
80
80
80
80
80
80
ENDCHAR
STARTCHAR braceright
ENCODING 125
SWIDTH 389 0
DWIDTH 4 0
BBX 3 9 1 -2
BITMAP
C0
40
40
40
20
40
40
40
C0
ENDCHAR
STARTCHAR asciitilde
ENCODING 126
SWIDTH 583 0
DWIDTH 6 0
BBX 6 2 0 1
BITMAP
64
98
ENDCHAR
STARTCHAR nonbreakingspace
ENCODING 160
SWIDTH 277 0
DWIDTH 3 0
BBX 1 1 0 0
BITMAP
00
ENDCHAR
STARTCHAR exclamdown
ENCODING 161
SWIDTH 333 0
DWIDTH 3 0
BBX 1 7 1 -2
BITMAP
80
00
80
80
80
80
80
ENDCHAR
STARTCHAR cent
ENCODING 162
SWIDTH 556 0
DWIDTH 5 0
BBX 5 7 0 -1
BITMAP
10
70
A8
A0
C8
F0
80
ENDCHAR
STARTCHAR sterling
ENCODING 163
SWIDTH 556 0
DWIDTH 5 0
BBX 5 7 0 0
BITMAP
70
88
80
F0
80
E8
B0
ENDCHAR
STARTCHAR currency
ENCODING 164
SWIDTH 556 0
DWIDTH 6 0
BBX 5 5 0 1
BITMAP
B8
58
48
58
B8
ENDCHAR
STARTCHAR yen
ENCODING 165
SWIDTH 556 0
DWIDTH 5 0
BBX 5 7 0 0
BITMAP
88
50
50
F8
20
F8
20
ENDCHAR
STARTCHAR brokenbar
ENCODING 166
SWIDTH 279 0
DWIDTH 3 0
BBX 1 7 1 0
BITMAP
80
80
80
00
80
80
80
ENDCHAR
STARTCHAR section
ENCODING 167
SWIDTH 556 0
DWIDTH 6 0
BBX 5 9 1 -2
BITMAP
70
98
C0
F0
88
78
18
C8
70
ENDCHAR
STARTCHAR dieresis
ENCODING 168
SWIDTH 333 0
DWIDTH 3 0
BBX 3 1 0 6
BITMAP
A0
ENDCHAR
STARTCHAR copyright
ENCODING 169
SWIDTH 736 0
DWIDTH 7 0
BBX 7 7 0 0
BITMAP
38
44
9A
AA
A2
5C
38
ENDCHAR
STARTCHAR ordfeminine
ENCODING 170
SWIDTH 370 0
DWIDTH 4 0
BBX 3 4 1 3
BITMAP
E0
60
A0
E0
ENDCHAR
STARTCHAR guillemotleft
ENCODING 171
SWIDTH 556 0
DWIDTH 5 0
BBX 4 5 0 0
BITMAP
50
50
A0
50
50
ENDCHAR
STARTCHAR logicalnot
ENCODING 172
SWIDTH 583 0
DWIDTH 6 0
BBX 4 4 1 1
BITMAP
F0
10
10
10
ENDCHAR
STARTCHAR softhyphen
ENCODING 173
SWIDTH 333 0
DWIDTH 3 0
BBX 3 1 0 2
BITMAP
E0
ENDCHAR
STARTCHAR registered
ENCODING 174
SWIDTH 736 0
DWIDTH 7 0
BBX 7 7 0 0
BITMAP
38
44
BA
AA
BA
6C
38
ENDCHAR
STARTCHAR macron
ENCODING 175
SWIDTH 333 0
DWIDTH 4 0
BBX 4 1 0 6
BITMAP
F0
ENDCHAR
STARTCHAR degree
ENCODING 176
SWIDTH 399 0
DWIDTH 4 0
BBX 3 3 1 4
BITMAP
E0
A0
E0
ENDCHAR
STARTCHAR plusminus
ENCODING 177
SWIDTH 548 0
DWIDTH 5 0
BBX 5 5 0 0
BITMAP
20
F8
20
00
F8
ENDCHAR
STARTCHAR twosuperior
ENCODING 178
SWIDTH 333 0
DWIDTH 3 0
BBX 3 4 0 3
BITMAP
E0
A0
40
E0
ENDCHAR
STARTCHAR threesuperior
ENCODING 179
SWIDTH 333 0
DWIDTH 3 0
BBX 3 4 0 3
BITMAP
E0
20
60
E0
ENDCHAR
STARTCHAR acute
ENCODING 180
SWIDTH 333 0
DWIDTH 3 0
BBX 2 1 1 6
BITMAP
C0
ENDCHAR
STARTCHAR mu
ENCODING 181
SWIDTH 576 0
DWIDTH 6 0
BBX 6 7 0 -2
BITMAP
4C
48
48
58
A8
80
80
ENDCHAR
STARTCHAR paragraph
ENCODING 182
SWIDTH 556 0
DWIDTH 6 0
BBX 6 9 0 -2
BITMAP
7C
E8
E8
E8
68
28
28
28
28
ENDCHAR
STARTCHAR periodcentered
ENCODING 183
SWIDTH 277 0
DWIDTH 2 0
BBX 1 1 1 3
BITMAP
80
ENDCHAR
STARTCHAR cedilla
ENCODING 184
SWIDTH 333 0
DWIDTH 3 0
BBX 2 3 0 -3
BITMAP
80
40
C0
ENDCHAR
STARTCHAR onesuperior
ENCODING 185
SWIDTH 333 0
DWIDTH 3 0
BBX 2 4 0 3
BITMAP
40
C0
40
40
ENDCHAR
STARTCHAR ordmasculine
ENCODING 186
SWIDTH 365 0
DWIDTH 4 0
BBX 4 4 0 3
BITMAP
60
90
90
60
ENDCHAR
STARTCHAR guillemotright
ENCODING 187
SWIDTH 556 0
DWIDTH 5 0
BBX 4 5 1 0
BITMAP
C0
A0
50
A0
C0
ENDCHAR
STARTCHAR onequarter
ENCODING 188
SWIDTH 833 0
DWIDTH 8 0
BBX 8 7 0 0
BITMAP
44
C8
48
51
33
25
47
ENDCHAR
STARTCHAR onehalf
ENCODING 189
SWIDTH 833 0
DWIDTH 8 0
BBX 8 7 0 0
BITMAP
44
C8
48
57
35
22
47
ENDCHAR
STARTCHAR threequarters
ENCODING 190
SWIDTH 833 0
DWIDTH 8 0
BBX 8 7 0 0
BITMAP
E2
24
64
E9
1B
15
27
ENDCHAR
STARTCHAR questiondown
ENCODING 191
SWIDTH 610 0
DWIDTH 6 0
BBX 4 7 2 -2
BITMAP
20
00
20
60
80
90
60
ENDCHAR
STARTCHAR Agrave
ENCODING 192
SWIDTH 722 0
DWIDTH 7 0
BBX 5 9 1 0
BITMAP
60
00
20
70
50
50
70
88
88
ENDCHAR
STARTCHAR Aacute
ENCODING 193
SWIDTH 722 0
DWIDTH 7 0
BBX 5 9 1 0
BITMAP
10
20
20
70
50
50
70
88
88
ENDCHAR
STARTCHAR Acircumflex
ENCODING 194
SWIDTH 722 0
DWIDTH 7 0
BBX 5 9 1 0
BITMAP
38
40
20
70
50
50
70
88
88
ENDCHAR
STARTCHAR Atilde
ENCODING 195
SWIDTH 722 0
DWIDTH 7 0
BBX 5 9 1 0
BITMAP
38
40
20
70
50
50
70
88
88
ENDCHAR
STARTCHAR Adieresis
ENCODING 196
SWIDTH 722 0
DWIDTH 7 0
BBX 5 9 1 0
BITMAP
50
00
20
70
50
50
70
88
88
ENDCHAR
STARTCHAR Aring
ENCODING 197
SWIDTH 722 0
DWIDTH 7 0
BBX 5 9 1 0
BITMAP
30
20
20
70
50
50
70
88
88
ENDCHAR
STARTCHAR AE
ENCODING 198
SWIDTH 1000 0
DWIDTH 11 0
BBX 10 7 0 0
BITMAP
1FC0
1400
2400
27C0
7C00
4400
C7C0
ENDCHAR
STARTCHAR Ccedilla
ENCODING 199
SWIDTH 722 0
DWIDTH 7 0
BBX 6 9 0 -2
BITMAP
78
C4
80
80
84
C8
78
10
30
ENDCHAR
STARTCHAR Egrave
ENCODING 200
SWIDTH 666 0
DWIDTH 7 0
BBX 5 9 1 0
BITMAP
40
20
F8
80
80
F0
80
80
F8
ENDCHAR
STARTCHAR Eacute
ENCODING 201
SWIDTH 666 0
DWIDTH 7 0
BBX 5 9 1 0
BITMAP
10
20
F8
80
80
F0
80
80
F8
ENDCHAR
STARTCHAR Ecircumflex
ENCODING 202
SWIDTH 666 0
DWIDTH 7 0
BBX 5 9 1 0
BITMAP
30
48
F8
80
80
F0
80
80
F8
ENDCHAR
STARTCHAR Edieresis
ENCODING 203
SWIDTH 666 0
DWIDTH 7 0
BBX 5 9 1 0
BITMAP
50
00
F8
80
80
F0
80
80
F8
ENDCHAR
STARTCHAR Igrave
ENCODING 204
SWIDTH 277 0
DWIDTH 3 0
BBX 2 9 0 0
BITMAP
C0
00
40
40
40
40
40
40
40
ENDCHAR
STARTCHAR Iacute
ENCODING 205
SWIDTH 277 0
DWIDTH 3 0
BBX 2 9 1 0
BITMAP
C0
00
80
80
80
80
80
80
80
ENDCHAR
STARTCHAR Icircumflex
ENCODING 206
SWIDTH 277 0
DWIDTH 3 0
BBX 4 9 0 0
BITMAP
60
90
40
40
40
40
40
40
40
ENDCHAR
STARTCHAR Idieresis
ENCODING 207
SWIDTH 277 0
DWIDTH 3 0
BBX 3 9 0 0
BITMAP
A0
00
40
40
40
40
40
40
40
ENDCHAR
STARTCHAR Eth
ENCODING 208
SWIDTH 722 0
DWIDTH 8 0
BBX 7 7 0 0
BITMAP
7C
46
42
F2
42
46
7C
ENDCHAR
STARTCHAR Ntilde
ENCODING 209
SWIDTH 722 0
DWIDTH 8 0
BBX 6 9 1 0
BITMAP
38
40
C4
C4
A4
94
94
8C
84
ENDCHAR
STARTCHAR Ograve
ENCODING 210
SWIDTH 777 0
DWIDTH 9 0
BBX 7 9 1 0
BITMAP
20
10
7C
C6
82
82
82
C6
7C
ENDCHAR
STARTCHAR Oacute
ENCODING 211
SWIDTH 777 0
DWIDTH 9 0
BBX 7 9 1 0
BITMAP
18
00
7C
C6
82
82
82
C6
7C
ENDCHAR
STARTCHAR Ocircumflex
ENCODING 212
SWIDTH 777 0
DWIDTH 9 0
BBX 7 9 1 0
BITMAP
38
04
7C
C6
82
82
82
C6
7C
ENDCHAR
STARTCHAR Otilde
ENCODING 213
SWIDTH 777 0
DWIDTH 9 0
BBX 7 9 1 0
BITMAP
3C
00
7C
C6
82
82
82
C6
7C
ENDCHAR
STARTCHAR Odieresis
ENCODING 214
SWIDTH 777 0
DWIDTH 9 0
BBX 7 9 1 0
BITMAP
28
00
7C
C6
82
82
82
C6
7C
ENDCHAR
STARTCHAR multiply
ENCODING 215
SWIDTH 583 0
DWIDTH 6 0
BBX 6 5 0 1
BITMAP
88
48
30
30
CC
ENDCHAR
STARTCHAR Oslash
ENCODING 216
SWIDTH 777 0
DWIDTH 9 0
BBX 7 7 1 0
BITMAP
3E
46
8A
92
A2
C4
F8
ENDCHAR
STARTCHAR Ugrave
ENCODING 217
SWIDTH 722 0
DWIDTH 8 0
BBX 6 9 1 0
BITMAP
60
00
84
84
84
84
84
84
78
ENDCHAR
STARTCHAR Uacute
ENCODING 218
SWIDTH 722 0
DWIDTH 8 0
BBX 6 9 1 0
BITMAP
10
20
84
84
84
84
84
84
78
ENDCHAR
STARTCHAR Ucircumflex
ENCODING 219
SWIDTH 722 0
DWIDTH 8 0
BBX 6 9 1 0
BITMAP
38
40
84
84
84
84
84
84
78
ENDCHAR
STARTCHAR Udieresis
ENCODING 220
SWIDTH 722 0
DWIDTH 8 0
BBX 6 9 1 0
BITMAP
50
00
84
84
84
84
84
84
78
ENDCHAR
STARTCHAR Yacute
ENCODING 221
SWIDTH 666 0
DWIDTH 5 0
BBX 5 9 0 0
BITMAP
08
10
D8
50
50
20
20
20
20
ENDCHAR
STARTCHAR Thorn
ENCODING 222
SWIDTH 666 0
DWIDTH 7 0
BBX 5 7 1 0
BITMAP
80
F8
88
88
F0
80
80
ENDCHAR
STARTCHAR germandbls
ENCODING 223
SWIDTH 610 0
DWIDTH 6 0
BBX 5 7 0 0
BITMAP
F0
88
88
B0
88
88
B0
ENDCHAR
STARTCHAR agrave
ENCODING 224
SWIDTH 556 0
DWIDTH 6 0
BBX 5 7 0 0
BITMAP
60
00
78
88
78
88
F8
ENDCHAR
STARTCHAR aacute
ENCODING 225
SWIDTH 556 0
DWIDTH 6 0
BBX 5 7 0 0
BITMAP
10
20
78
88
78
88
F8
ENDCHAR
STARTCHAR acircumflex
ENCODING 226
SWIDTH 556 0
DWIDTH 6 0
BBX 5 8 0 0
BITMAP
10
28
40
78
88
78
88
F8
ENDCHAR
STARTCHAR atilde
ENCODING 227
SWIDTH 556 0
DWIDTH 6 0
BBX 5 7 0 0
BITMAP
38
40
78
88
78
88
F8
ENDCHAR
STARTCHAR adieresis
ENCODING 228
SWIDTH 556 0
DWIDTH 6 0
BBX 5 7 0 0
BITMAP
50
00
78
88
78
88
F8
ENDCHAR
STARTCHAR aring
ENCODING 229
SWIDTH 556 0
DWIDTH 6 0
BBX 5 8 0 0
BITMAP
10
30
00
78
88
78
88
F8
ENDCHAR
STARTCHAR ae
ENCODING 230
SWIDTH 889 0
DWIDTH 9 0
BBX 8 5 0 0
BITMAP
7E
89
7F
88
F7
ENDCHAR
STARTCHAR ccedilla
ENCODING 231
SWIDTH 556 0
DWIDTH 6 0
BBX 5 7 0 -2
BITMAP
70
88
80
88
70
10
30
ENDCHAR
STARTCHAR egrave
ENCODING 232
SWIDTH 556 0
DWIDTH 6 0
BBX 5 7 0 0
BITMAP
60
00
70
88
F8
90
78
ENDCHAR
STARTCHAR eacute
ENCODING 233
SWIDTH 556 0
DWIDTH 6 0
BBX 5 7 0 0
BITMAP
10
20
70
88
F8
90
78
ENDCHAR
STARTCHAR ecircumflex
ENCODING 234
SWIDTH 556 0
DWIDTH 6 0
BBX 5 8 0 0
BITMAP
10
28
40
70
88
F8
90
78
ENDCHAR
STARTCHAR edieresis
ENCODING 235
SWIDTH 556 0
DWIDTH 6 0
BBX 5 7 0 0
BITMAP
50
00
70
88
F8
90
78
ENDCHAR
STARTCHAR igrave
ENCODING 236
SWIDTH 277 0
DWIDTH 2 0
BBX 2 7 0 0
BITMAP
C0
00
80
80
80
80
80
ENDCHAR
STARTCHAR iacute
ENCODING 237
SWIDTH 277 0
DWIDTH 2 0
BBX 3 7 0 0
BITMAP
60
00
80
80
80
80
80
ENDCHAR
STARTCHAR icircumflex
ENCODING 238
SWIDTH 277 0
DWIDTH 2 0
BBX 4 8 0 0
BITMAP
60
90
00
80
80
80
80
80
ENDCHAR
STARTCHAR idieresis
ENCODING 239
SWIDTH 277 0
DWIDTH 2 0
BBX 3 7 0 0
BITMAP
A0
00
80
80
80
80
80
ENDCHAR
STARTCHAR eth
ENCODING 240
SWIDTH 610 0
DWIDTH 6 0
BBX 5 7 0 0
BITMAP
30
F8
78
88
88
88
70
ENDCHAR
STARTCHAR ntilde
ENCODING 241
SWIDTH 610 0
DWIDTH 6 0
BBX 6 7 0 0
BITMAP
3C
00
F0
88
88
88
88
ENDCHAR
STARTCHAR ograve
ENCODING 242
SWIDTH 610 0
DWIDTH 6 0
BBX 5 7 0 0
BITMAP
20
10
70
88
88
88
70
ENDCHAR
STARTCHAR oacute
ENCODING 243
SWIDTH 610 0
DWIDTH 6 0
BBX 5 7 0 0
BITMAP
18
00
70
88
88
88
70
ENDCHAR
STARTCHAR ocircumflex
ENCODING 244
SWIDTH 610 0
DWIDTH 6 0
BBX 6 8 0 0
BITMAP
10
28
04
70
88
88
88
70
ENDCHAR
STARTCHAR otilde
ENCODING 245
SWIDTH 610 0
DWIDTH 6 0
BBX 6 7 0 0
BITMAP
3C
00
70
88
88
88
70
ENDCHAR
STARTCHAR odieresis
ENCODING 246
SWIDTH 610 0
DWIDTH 6 0
BBX 5 7 0 0
BITMAP
28
00
70
88
88
88
70
ENDCHAR
STARTCHAR divide
ENCODING 247
SWIDTH 548 0
DWIDTH 5 0
BBX 5 5 0 0
BITMAP
20
00
F8
00
20
ENDCHAR
STARTCHAR oslash
ENCODING 248
SWIDTH 610 0
DWIDTH 6 0
BBX 5 5 0 0
BITMAP
78
98
A8
C8
F0
ENDCHAR
STARTCHAR ugrave
ENCODING 249
SWIDTH 610 0
DWIDTH 6 0
BBX 5 7 0 0
BITMAP
20
10
88
88
88
88
78
ENDCHAR
STARTCHAR uacute
ENCODING 250
SWIDTH 610 0
DWIDTH 6 0
BBX 5 7 0 0
BITMAP
18
00
88
88
88
88
78
ENDCHAR
STARTCHAR ucircumflex
ENCODING 251
SWIDTH 610 0
DWIDTH 6 0
BBX 6 8 0 0
BITMAP
10
28
04
88
88
88
88
78
ENDCHAR
STARTCHAR udieresis
ENCODING 252
SWIDTH 610 0
DWIDTH 6 0
BBX 5 7 0 0
BITMAP
28
00
88
88
88
88
78
ENDCHAR
STARTCHAR yacute
ENCODING 253
SWIDTH 556 0
DWIDTH 7 0
BBX 5 9 1 -2
BITMAP
20
40
88
50
50
50
20
20
C0
ENDCHAR
STARTCHAR thorn
ENCODING 254
SWIDTH 610 0
DWIDTH 6 0
BBX 5 9 0 -2
BITMAP
80
80
F0
88
88
88
F0
80
80
ENDCHAR
STARTCHAR ydieresis
ENCODING 255
SWIDTH 556 0
DWIDTH 7 0
BBX 5 9 1 -2
BITMAP
A0
00
88
50
50
50
20
20
C0
ENDCHAR
STARTCHAR Amacron
ENCODING 256
SWIDTH 722 0
DWIDTH 7 0
BBX 5 9 1 0
BITMAP
78
00
20
70
50
50
70
88
88
ENDCHAR
STARTCHAR amacron
ENCODING 257
SWIDTH 556 0
DWIDTH 6 0
BBX 5 7 0 0
BITMAP
78
00
78
88
78
88
F8
ENDCHAR
STARTCHAR Abreve
ENCODING 258
SWIDTH 722 0
DWIDTH 7 0
BBX 5 10 1 0
BITMAP
48
38
00
20
70
50
50
70
88
88
ENDCHAR
STARTCHAR abreve
ENCODING 259
SWIDTH 556 0
DWIDTH 6 0
BBX 5 8 0 0
BITMAP
48
38
00
78
88
78
88
F8
ENDCHAR
STARTCHAR Aogonek
ENCODING 260
SWIDTH 722 0
DWIDTH 7 0
BBX 7 10 1 -3
BITMAP
20
70
50
50
70
88
88
06
04
06
ENDCHAR
STARTCHAR aogonek
ENCODING 261
SWIDTH 556 0
DWIDTH 6 0
BBX 6 8 0 -3
BITMAP
78
88
78
88
F8
0C
08
0C
ENDCHAR
STARTCHAR Cacute
ENCODING 262
SWIDTH 722 0
DWIDTH 7 0
BBX 6 9 0 0
BITMAP
08
10
78
C4
80
80
84
CC
78
ENDCHAR
STARTCHAR cacute
ENCODING 263
SWIDTH 556 0
DWIDTH 6 0
BBX 5 7 0 0
BITMAP
10
20
70
88
80
88
70
ENDCHAR
STARTCHAR Ccircumflex
ENCODING 264
SWIDTH 722 0
DWIDTH 7 0
BBX 6 10 0 0
BITMAP
08
14
20
78
C4
80
80
84
CC
78
ENDCHAR
STARTCHAR ccircumflex
ENCODING 265
SWIDTH 556 0
DWIDTH 6 0
BBX 6 8 0 0
BITMAP
10
28
44
70
88
80
88
70
ENDCHAR
STARTCHAR Cdotaccent
ENCODING 266
SWIDTH 722 0
DWIDTH 7 0
BBX 6 9 0 0
BITMAP
10
00
78
C4
80
80
84
CC
78
ENDCHAR
STARTCHAR cdotaccent
ENCODING 267
SWIDTH 556 0
DWIDTH 6 0
BBX 5 7 0 0
BITMAP
20
00
70
88
80
88
70
ENDCHAR
STARTCHAR Ccaron
ENCODING 268
SWIDTH 722 0
DWIDTH 7 0
BBX 6 9 0 0
BITMAP
3C
00
78
C4
80
80
84
CC
78
ENDCHAR
STARTCHAR ccaron
ENCODING 269
SWIDTH 556 0
DWIDTH 6 0
BBX 5 8 0 0
BITMAP
48
30
00
70
88
80
88
70
ENDCHAR
STARTCHAR Dcaron
ENCODING 270
SWIDTH 722 0
DWIDTH 8 0
BBX 6 10 1 0
BITMAP
50
30
00
F8
8C
84
84
84
8C
F8
ENDCHAR
STARTCHAR dcaron
ENCODING 271
SWIDTH 750 0
DWIDTH 9 0
BBX 7 9 1 0
BITMAP
06
02
14
10
70
90
90
90
70
ENDCHAR
STARTCHAR Dcroat
ENCODING 272
SWIDTH 722 0
DWIDTH 8 0
BBX 7 7 0 0
BITMAP
7C
46
42
F2
42
46
7C
ENDCHAR
STARTCHAR dcroat
ENCODING 273
SWIDTH 610 0
DWIDTH 6 0
BBX 6 7 0 0
BITMAP
08
1C
78
88
88
88
78
ENDCHAR
STARTCHAR Emacron
ENCODING 274
SWIDTH 666 0
DWIDTH 7 0
BBX 5 9 1 0
BITMAP
78
00
F8
80
80
F0
80
80
F8
ENDCHAR
STARTCHAR emacron
ENCODING 275
SWIDTH 556 0
DWIDTH 6 0
BBX 5 7 0 0
BITMAP
78
00
70
88
F8
90
78
ENDCHAR
STARTCHAR Ebreve
ENCODING 276
SWIDTH 666 0
DWIDTH 7 0
BBX 5 10 1 0
BITMAP
48
78
00
F8
80
80
F0
80
80
F8
ENDCHAR
STARTCHAR ebreve
ENCODING 277
SWIDTH 556 0
DWIDTH 6 0
BBX 5 8 0 0
BITMAP
48
38
00
70
88
F8
90
78
ENDCHAR
STARTCHAR Edotaccent
ENCODING 278
SWIDTH 666 0
DWIDTH 7 0
BBX 5 9 1 0
BITMAP
20
00
F8
80
80
F0
80
80
F8
ENDCHAR
STARTCHAR edotaccent
ENCODING 279
SWIDTH 556 0
DWIDTH 6 0
BBX 5 7 0 0
BITMAP
20
00
70
88
F8
90
78
ENDCHAR
STARTCHAR Eogonek
ENCODING 280
SWIDTH 666 0
DWIDTH 7 0
BBX 5 10 1 -3
BITMAP
F8
80
80
F0
80
80
F8
10
20
30
ENDCHAR
STARTCHAR eogonek
ENCODING 281
SWIDTH 556 0
DWIDTH 6 0
BBX 5 8 0 -3
BITMAP
70
88
F8
90
78
10
20
30
ENDCHAR
STARTCHAR Ecaron
ENCODING 282
SWIDTH 666 0
DWIDTH 7 0
BBX 5 10 1 0
BITMAP
50
30
00
F8
80
80
F0
80
80
F8
ENDCHAR
STARTCHAR ecaron
ENCODING 283
SWIDTH 556 0
DWIDTH 6 0
BBX 5 8 0 0
BITMAP
58
30
00
70
88
F8
90
78
ENDCHAR
STARTCHAR Gcircumflex
ENCODING 284
SWIDTH 777 0
DWIDTH 8 0
BBX 7 10 0 0
BITMAP
08
14
20
3C
42
80
8E
82
46
3A
ENDCHAR
STARTCHAR gcircumflex
ENCODING 285
SWIDTH 610 0
DWIDTH 6 0
BBX 6 10 0 -2
BITMAP
10
28
04
78
88
88
88
78
88
70
ENDCHAR
STARTCHAR Gbreve
ENCODING 286
SWIDTH 777 0
DWIDTH 8 0
BBX 7 10 0 0
BITMAP
26
1C
00
3C
42
80
8E
82
46
3A
ENDCHAR
STARTCHAR gbreve
ENCODING 287
SWIDTH 610 0
DWIDTH 6 0
BBX 6 10 0 -2
BITMAP
44
38
00
78
88
88
88
78
88
70
ENDCHAR
STARTCHAR Gdotaccent
ENCODING 288
SWIDTH 777 0
DWIDTH 8 0
BBX 7 9 0 0
BITMAP
10
00
3C
42
80
8E
82
46
3A
ENDCHAR
STARTCHAR gdotaccent
ENCODING 289
SWIDTH 610 0
DWIDTH 6 0
BBX 5 9 0 -2
BITMAP
20
00
78
88
88
88
78
88
70
ENDCHAR
STARTCHAR Gcommaaccent
ENCODING 290
SWIDTH 777 0
DWIDTH 8 0
BBX 7 11 0 -4
BITMAP
3C
42
80
8E
82
46
3A
00
10
10
10
ENDCHAR
STARTCHAR gcommaaccent
ENCODING 291
SWIDTH 610 0
DWIDTH 6 0
BBX 5 12 0 -2
BITMAP
20
20
20
00
00
78
88
88
88
78
88
70
ENDCHAR
STARTCHAR Hcircumflex
ENCODING 292
SWIDTH 722 0
DWIDTH 8 0
BBX 6 10 1 0
BITMAP
10
28
40
84
84
84
FC
84
84
84
ENDCHAR
STARTCHAR hcircumflex
ENCODING 293
SWIDTH 610 0
DWIDTH 6 0
BBX 5 10 0 0
BITMAP
10
28
40
80
80
F0
88
88
88
88
ENDCHAR
STARTCHAR Hbar
ENCODING 294
SWIDTH 722 0
DWIDTH 8 0
BBX 8 7 0 0
BITMAP
46
FF
46
7E
46
46
46
ENDCHAR
STARTCHAR hbar
ENCODING 295
SWIDTH 610 0
DWIDTH 6 0
BBX 5 7 0 0
BITMAP
F0
80
F0
88
88
88
88
ENDCHAR
STARTCHAR Itilde
ENCODING 296
SWIDTH 419 0
DWIDTH 4 0
BBX 4 9 0 0
BITMAP
70
80
40
40
40
40
40
40
40
ENDCHAR
STARTCHAR itilde
ENCODING 297
SWIDTH 430 0
DWIDTH 4 0
BBX 4 8 0 0
BITMAP
70
80
00
80
80
80
80
80
ENDCHAR
STARTCHAR Imacron
ENCODING 298
SWIDTH 424 0
DWIDTH 4 0
BBX 4 9 0 0
BITMAP
F0
00
40
40
40
40
40
40
40
ENDCHAR
STARTCHAR imacron
ENCODING 299
SWIDTH 419 0
DWIDTH 4 0
BBX 4 7 0 0
BITMAP
F0
00
80
80
80
80
80
ENDCHAR
STARTCHAR Ibreve
ENCODING 300
SWIDTH 277 0
DWIDTH 3 0
BBX 4 10 0 0
BITMAP
90
F0
00
40
40
40
40
40
40
40
ENDCHAR
STARTCHAR ibreve
ENCODING 301
SWIDTH 277 0
DWIDTH 2 0
BBX 4 8 0 0
BITMAP
90
F0
00
80
80
80
80
80
ENDCHAR
STARTCHAR Iogonek
ENCODING 302
SWIDTH 277 0
DWIDTH 3 0
BBX 2 10 1 -3
BITMAP
80
80
80
80
80
80
80
C0
80
C0
ENDCHAR
STARTCHAR iogonek
ENCODING 303
SWIDTH 277 0
DWIDTH 2 0
BBX 3 10 0 -3
BITMAP
80
00
80
80
80
80
80
60
40
60
ENDCHAR
STARTCHAR Idotaccent
ENCODING 304
SWIDTH 277 0
DWIDTH 3 0
BBX 1 9 1 0
BITMAP
80
00
80
80
80
80
80
80
80
ENDCHAR
STARTCHAR dotlessi
ENCODING 305
SWIDTH 277 0
DWIDTH 2 0
BBX 1 5 0 0
BITMAP
80
80
80
80
80
ENDCHAR
STARTCHAR IJ
ENCODING 306
SWIDTH 833 0
DWIDTH 8 0
BBX 7 7 1 0
BITMAP
82
82
82
82
A2
A2
9C
ENDCHAR
STARTCHAR ij
ENCODING 307
SWIDTH 555 0
DWIDTH 6 0
BBX 5 9 0 -2
BITMAP
88
00
88
88
88
88
88
08
18
ENDCHAR
STARTCHAR Jcircumflex
ENCODING 308
SWIDTH 556 0
DWIDTH 6 0
BBX 7 10 0 0
BITMAP
08
14
02
08
08
08
08
88
88
70
ENDCHAR
STARTCHAR jcircumflex
ENCODING 309
SWIDTH 310 0
DWIDTH 3 0
BBX 4 10 0 -2
BITMAP
60
50
80
40
40
40
40
40
40
C0
ENDCHAR
STARTCHAR Kcommaaccent
ENCODING 310
SWIDTH 722 0
DWIDTH 7 0
BBX 6 11 1 -4
BITMAP
88
90
A0
E0
90
90
88
04
20
20
40
ENDCHAR
STARTCHAR kcommaaccent
ENCODING 311
SWIDTH 556 0
DWIDTH 5 0
BBX 3 11 1 -4
BITMAP
80
80
A0
C0
C0
A0
A0
00
20
40
40
ENDCHAR
STARTCHAR kgreenlandic
ENCODING 312
SWIDTH 556 0
DWIDTH 6 0
BBX 5 5 1 0
BITMAP
B0
E0
E0
B0
98
ENDCHAR
STARTCHAR Lacute
ENCODING 313
SWIDTH 610 0
DWIDTH 6 0
BBX 5 9 1 0
BITMAP
40
80
80
80
80
80
80
80
F8
ENDCHAR
STARTCHAR lacute
ENCODING 314
SWIDTH 305 0
DWIDTH 3 0
BBX 3 9 0 0
BITMAP
60
00
80
80
80
80
80
80
80
ENDCHAR
STARTCHAR Lcommaaccent
ENCODING 315
SWIDTH 610 0
DWIDTH 6 0
BBX 5 11 1 -4
BITMAP
80
80
80
80
80
80
F8
00
20
20
40
ENDCHAR
STARTCHAR lcommaaccent
ENCODING 316
SWIDTH 277 0
DWIDTH 2 0
BBX 2 11 0 -4
BITMAP
80
80
80
80
80
80
80
00
40
40
80
ENDCHAR
STARTCHAR Lcaron
ENCODING 317
SWIDTH 610 0
DWIDTH 7 0
BBX 5 7 1 0
BITMAP
D8
C8
D0
C0
C0
C0
F8
ENDCHAR
STARTCHAR lcaron
ENCODING 318
SWIDTH 416 0
DWIDTH 5 0
BBX 3 7 1 0
BITMAP
E0
A0
C0
80
80
80
80
ENDCHAR
STARTCHAR Ldotaccent
ENCODING 319
SWIDTH 610 0
DWIDTH 6 0
BBX 5 7 1 0
BITMAP
80
80
80
A0
80
80
F8
ENDCHAR
STARTCHAR ldotaccent
ENCODING 320
SWIDTH 395 0
DWIDTH 4 0
BBX 4 7 0 0
BITMAP
80
80
80
90
80
80
80
ENDCHAR
STARTCHAR Lslash
ENCODING 321
SWIDTH 610 0
DWIDTH 6 0
BBX 6 7 0 0
BITMAP
40
60
60
C0
C0
40
7C
ENDCHAR
STARTCHAR lslash
ENCODING 322
SWIDTH 277 0
DWIDTH 3 0
BBX 3 7 0 0
BITMAP
40
40
60
E0
C0
40
40
ENDCHAR
STARTCHAR Nacute
ENCODING 323
SWIDTH 722 0
DWIDTH 8 0
BBX 6 9 1 0
BITMAP
10
20
C4
C4
A4
94
94
8C
84
ENDCHAR
STARTCHAR nacute
ENCODING 324
SWIDTH 610 0
DWIDTH 6 0
BBX 5 7 0 0
BITMAP
18
00
F0
88
88
88
88
ENDCHAR
STARTCHAR Ncommaaccent
ENCODING 325
SWIDTH 722 0
DWIDTH 8 0
BBX 6 11 1 -4
BITMAP
C4
C4
A4
94
94
8C
84
00
20
20
40
ENDCHAR
STARTCHAR ncommaaccent
ENCODING 326
SWIDTH 610 0
DWIDTH 6 0
BBX 5 9 0 -4
BITMAP
F0
88
88
88
88
00
10
10
20
ENDCHAR
STARTCHAR Ncaron
ENCODING 327
SWIDTH 722 0
DWIDTH 8 0
BBX 6 10 1 0
BITMAP
48
30
00
C4
C4
A4
94
94
8C
84
ENDCHAR
STARTCHAR ncaron
ENCODING 328
SWIDTH 610 0
DWIDTH 6 0
BBX 5 8 0 0
BITMAP
28
10
00
F0
88
88
88
88
ENDCHAR
STARTCHAR napostrophe
ENCODING 329
SWIDTH 610 0
DWIDTH 6 0
BBX 5 9 0 0
BITMAP
40
40
80
00
F0
88
88
88
88
ENDCHAR
STARTCHAR Eng
ENCODING 330
SWIDTH 722 0
DWIDTH 7 0
BBX 5 9 1 -2
BITMAP
C8
C8
E8
A8
B8
98
88
08
18
ENDCHAR
STARTCHAR eng
ENCODING 331
SWIDTH 610 0
DWIDTH 6 0
BBX 4 7 1 -2
BITMAP
F0
90
90
90
90
10
30
ENDCHAR
STARTCHAR Omacron
ENCODING 332
SWIDTH 777 0
DWIDTH 9 0
BBX 7 9 1 0
BITMAP
78
00
7C
C6
82
82
82
C6
7C
ENDCHAR
STARTCHAR omacron
ENCODING 333
SWIDTH 610 0
DWIDTH 6 0
BBX 6 7 0 0
BITMAP
3C
00
70
88
88
88
70
ENDCHAR
STARTCHAR Obreve
ENCODING 334
SWIDTH 777 0
DWIDTH 9 0
BBX 7 10 1 0
BITMAP
48
38
00
7C
C6
82
82
82
C6
7C
ENDCHAR
STARTCHAR obreve
ENCODING 335
SWIDTH 610 0
DWIDTH 6 0
BBX 6 8 0 0
BITMAP
44
38
00
70
88
88
88
70
ENDCHAR
STARTCHAR Ohungarumlaut
ENCODING 336
SWIDTH 777 0
DWIDTH 9 0
BBX 7 9 1 0
BITMAP
28
50
7C
C6
82
82
82
C6
7C
ENDCHAR
STARTCHAR ohungarumlaut
ENCODING 337
SWIDTH 610 0
DWIDTH 6 0
BBX 6 7 0 0
BITMAP
3C
00
70
88
88
88
70
ENDCHAR
STARTCHAR OE
ENCODING 338
SWIDTH 1000 0
DWIDTH 10 0
BBX 9 7 0 0
BITMAP
7F80
C800
8800
8F80
8800
C800
7F80
ENDCHAR
STARTCHAR oe
ENCODING 339
SWIDTH 943 0
DWIDTH 10 0
BBX 9 5 0 0
BITMAP
7700
8880
8F80
8900
7780
ENDCHAR
STARTCHAR Racute
ENCODING 340
SWIDTH 722 0
DWIDTH 8 0
BBX 6 9 1 0
BITMAP
30
00
F8
84
84
F8
84
84
84
ENDCHAR
STARTCHAR racute
ENCODING 341
SWIDTH 389 0
DWIDTH 3 0
BBX 3 7 0 0
BITMAP
20
40
E0
80
80
80
80
ENDCHAR
STARTCHAR Rcommaaccent
ENCODING 342
SWIDTH 722 0
DWIDTH 8 0
BBX 6 11 1 -4
BITMAP
F8
84
84
F8
84
84
84
00
20
20
20
ENDCHAR
STARTCHAR rcommaaccent
ENCODING 343
SWIDTH 389 0
DWIDTH 3 0
BBX 3 9 0 -4
BITMAP
E0
80
80
80
80
00
40
40
80
ENDCHAR
STARTCHAR Rcaron
ENCODING 344
SWIDTH 722 0
DWIDTH 8 0
BBX 6 10 1 0
BITMAP
50
30
00
F8
84
84
F8
84
84
84
ENDCHAR
STARTCHAR rcaron
ENCODING 345
SWIDTH 389 0
DWIDTH 3 0
BBX 4 8 0 0
BITMAP
50
60
00
E0
80
80
80
80
ENDCHAR
STARTCHAR Sacute
ENCODING 346
SWIDTH 666 0
DWIDTH 7 0
BBX 6 9 0 0
BITMAP
18
00
78
84
80
78
04
84
78
ENDCHAR
STARTCHAR sacute
ENCODING 347
SWIDTH 556 0
DWIDTH 6 0
BBX 5 7 0 0
BITMAP
10
20
70
88
78
88
78
ENDCHAR
STARTCHAR Scircumflex
ENCODING 348
SWIDTH 666 0
DWIDTH 7 0
BBX 6 10 0 0
BITMAP
18
24
00
78
84
80
78
04
84
78
ENDCHAR
STARTCHAR scircumflex
ENCODING 349
SWIDTH 556 0
DWIDTH 6 0
BBX 5 8 0 0
BITMAP
10
28
40
70
88
78
88
78
ENDCHAR
STARTCHAR Scedilla
ENCODING 350
SWIDTH 666 0
DWIDTH 7 0
BBX 6 9 0 -2
BITMAP
78
84
C0
FC
0C
84
78
30
70
ENDCHAR
STARTCHAR scedilla
ENCODING 351
SWIDTH 556 0
DWIDTH 6 0
BBX 5 7 0 -2
BITMAP
70
88
70
88
78
20
E0
ENDCHAR
STARTCHAR Scaron
ENCODING 352
SWIDTH 666 0
DWIDTH 7 0
BBX 6 10 0 0
BITMAP
28
10
00
78
84
80
78
04
84
78
ENDCHAR
STARTCHAR scaron
ENCODING 353
SWIDTH 556 0
DWIDTH 6 0
BBX 5 8 0 0
BITMAP
58
30
00
70
88
78
88
78
ENDCHAR
STARTCHAR Tcedilla
ENCODING 354
SWIDTH 610 0
DWIDTH 5 0
BBX 5 10 0 -3
BITMAP
F8
20
20
20
20
20
20
20
30
30
ENDCHAR
STARTCHAR tcedilla
ENCODING 355
SWIDTH 333 0
DWIDTH 4 0
BBX 3 9 0 -3
BITMAP
40
E0
40
40
40
60
40
20
60
ENDCHAR
STARTCHAR Tcaron
ENCODING 356
SWIDTH 610 0
DWIDTH 5 0
BBX 5 10 0 0
BITMAP
28
30
00
F8
20
20
20
20
20
20
ENDCHAR
STARTCHAR tcaron
ENCODING 357
SWIDTH 464 0
DWIDTH 6 0
BBX 5 9 0 0
BITMAP
18
08
10
40
E0
40
40
40
60
ENDCHAR
STARTCHAR Tbar
ENCODING 358
SWIDTH 610 0
DWIDTH 5 0
BBX 6 7 0 0
BITMAP
F8
20
20
3C
20
20
20
ENDCHAR
STARTCHAR tbar
ENCODING 359
SWIDTH 333 0
DWIDTH 4 0
BBX 4 6 0 0
BITMAP
40
E0
F0
40
40
60
ENDCHAR
STARTCHAR Utilde
ENCODING 360
SWIDTH 722 0
DWIDTH 8 0
BBX 6 9 1 0
BITMAP
38
40
84
84
84
84
84
84
78
ENDCHAR
STARTCHAR utilde
ENCODING 361
SWIDTH 610 0
DWIDTH 6 0
BBX 6 7 0 0
BITMAP
3C
00
88
88
88
88
78
ENDCHAR
STARTCHAR Umacron
ENCODING 362
SWIDTH 722 0
DWIDTH 8 0
BBX 6 9 1 0
BITMAP
78
00
84
84
84
84
84
84
78
ENDCHAR
STARTCHAR umacron
ENCODING 363
SWIDTH 610 0
DWIDTH 6 0
BBX 6 7 0 0
BITMAP
3C
00
88
88
88
88
78
ENDCHAR
STARTCHAR Ubreve
ENCODING 364
SWIDTH 722 0
DWIDTH 8 0
BBX 6 10 1 0
BITMAP
48
38
00
84
84
84
84
84
84
78
ENDCHAR
STARTCHAR ubreve
ENCODING 365
SWIDTH 610 0
DWIDTH 6 0
BBX 6 8 0 0
BITMAP
44
38
00
88
88
88
88
78
ENDCHAR
STARTCHAR Uring
ENCODING 366
SWIDTH 722 0
DWIDTH 8 0
BBX 6 10 1 0
BITMAP
30
30
00
84
84
84
84
84
84
78
ENDCHAR
STARTCHAR uring
ENCODING 367
SWIDTH 610 0
DWIDTH 6 0
BBX 5 8 0 0
BITMAP
18
18
00
88
88
88
88
78
ENDCHAR
STARTCHAR Uhungarumlaut
ENCODING 368
SWIDTH 722 0
DWIDTH 8 0
BBX 6 9 1 0
BITMAP
78
00
84
84
84
84
84
84
78
ENDCHAR
STARTCHAR uhungarumlaut
ENCODING 369
SWIDTH 610 0
DWIDTH 6 0
BBX 6 7 0 0
BITMAP
3C
00
88
88
88
88
78
ENDCHAR
STARTCHAR Uogonek
ENCODING 370
SWIDTH 722 0
DWIDTH 8 0
BBX 6 10 1 -3
BITMAP
84
84
84
84
84
84
78
20
20
30
ENDCHAR
STARTCHAR uogonek
ENCODING 371
SWIDTH 610 0
DWIDTH 6 0
BBX 6 8 0 -3
BITMAP
88
88
88
88
78
0C
08
0C
ENDCHAR
STARTCHAR Wcircumflex
ENCODING 372
SWIDTH 943 0
DWIDTH 11 0
BBX 9 10 1 0
BITMAP
0800
1400
2000
8880
5500
5500
5500
5500
2200
2200
ENDCHAR
STARTCHAR wcircumflex
ENCODING 373
SWIDTH 777 0
DWIDTH 8 0
BBX 8 8 0 0
BITMAP
18
24
00
DB
5A
5A
6E
64
ENDCHAR
STARTCHAR Ycircumflex
ENCODING 374
SWIDTH 666 0
DWIDTH 5 0
BBX 6 10 0 0
BITMAP
18
24
00
D8
50
50
20
20
20
20
ENDCHAR
STARTCHAR ycircumflex
ENCODING 375
SWIDTH 556 0
DWIDTH 7 0
BBX 5 10 1 -2
BITMAP
20
50
80
88
50
50
50
20
20
C0
ENDCHAR
STARTCHAR Ydieresis
ENCODING 376
SWIDTH 666 0
DWIDTH 5 0
BBX 5 9 0 0
BITMAP
28
00
D8
50
50
20
20
20
20
ENDCHAR
STARTCHAR Zacute
ENCODING 377
SWIDTH 610 0
DWIDTH 6 0
BBX 6 9 0 0
BITMAP
18
00
FC
08
10
20
40
80
FC
ENDCHAR
STARTCHAR zacute
ENCODING 378
SWIDTH 500 0
DWIDTH 5 0
BBX 5 7 0 0
BITMAP
30
00
F8
10
20
40
F8
ENDCHAR
STARTCHAR Zdotaccent
ENCODING 379
SWIDTH 610 0
DWIDTH 6 0
BBX 6 9 0 0
BITMAP
10
00
FC
08
10
20
40
80
FC
ENDCHAR
STARTCHAR zdotaccent
ENCODING 380
SWIDTH 500 0
DWIDTH 5 0
BBX 5 7 0 0
BITMAP
20
00
F8
10
20
40
F8
ENDCHAR
STARTCHAR Zcaron
ENCODING 381
SWIDTH 610 0
DWIDTH 6 0
BBX 6 9 0 0
BITMAP
38
00
FC
08
10
20
40
80
FC
ENDCHAR
STARTCHAR zcaron
ENCODING 382
SWIDTH 500 0
DWIDTH 5 0
BBX 5 8 0 0
BITMAP
50
30
00
F8
10
20
40
F8
ENDCHAR
STARTCHAR slong
ENCODING 383
SWIDTH 333 0
DWIDTH 3 0
BBX 3 7 0 0
BITMAP
60
40
C0
40
40
40
40
ENDCHAR
STARTCHAR bstroke
ENCODING 384
SWIDTH 610 0
DWIDTH 6 0
BBX 6 7 0 0
BITMAP
E0
40
78
44
44
44
78
ENDCHAR
STARTCHAR Btopbar
ENCODING 386
SWIDTH 666 0
DWIDTH 7 0
BBX 6 7 1 0
BITMAP
FC
C0
F0
F8
C4
84
F8
ENDCHAR
STARTCHAR btopbar
ENCODING 387
SWIDTH 610 0
DWIDTH 6 0
BBX 4 7 1 0
BITMAP
F0
80
E0
90
90
90
E0
ENDCHAR
STARTCHAR Oopen
ENCODING 390
SWIDTH 722 0
DWIDTH 8 0
BBX 7 7 0 0
BITMAP
38
44
86
06
06
C4
78
ENDCHAR
STARTCHAR Dafrican
ENCODING 393
SWIDTH 722 0
DWIDTH 7 0
BBX 6 7 0 0
BITMAP
78
4C
4C
FC
4C
4C
78
ENDCHAR
STARTCHAR Dtopbar
ENCODING 395
SWIDTH 666 0
DWIDTH 7 0
BBX 6 7 0 0
BITMAP
FC
0C
0C
7C
4C
4C
3C
ENDCHAR
STARTCHAR dtopbar
ENCODING 396
SWIDTH 610 0
DWIDTH 6 0
BBX 4 7 1 0
BITMAP
F0
10
70
90
90
90
70
ENDCHAR
STARTCHAR deltaturned
ENCODING 397
SWIDTH 577 0
DWIDTH 6 0
BBX 5 7 0 0
BITMAP
70
88
88
88
70
30
F8
ENDCHAR
STARTCHAR Ereversed
ENCODING 398
SWIDTH 666 0
DWIDTH 7 0
BBX 5 7 1 0
BITMAP
F8
08
08
78
08
08
F8
ENDCHAR
STARTCHAR Schwa
ENCODING 399
SWIDTH 750 0
DWIDTH 8 0
BBX 6 7 1 0
BITMAP
78
8C
04
FC
84
CC
78
ENDCHAR
STARTCHAR Eopen
ENCODING 400
SWIDTH 567 0
DWIDTH 6 0
BBX 5 7 0 0
BITMAP
F0
90
80
E0
80
88
70
ENDCHAR
STARTCHAR Fhook
ENCODING 401
SWIDTH 610 0
DWIDTH 6 0
BBX 6 9 0 -2
BITMAP
FC
C0
C0
F8
C0
C0
C0
C0
C0
ENDCHAR
STARTCHAR florin
ENCODING 402
SWIDTH 556 0
DWIDTH 5 0
BBX 5 10 0 -3
BITMAP
18
10
10
78
10
20
20
20
20
C0
ENDCHAR
STARTCHAR Iotaafrican
ENCODING 406
SWIDTH 277 0
DWIDTH 3 0
BBX 2 7 1 0
BITMAP
80
80
80
80
80
80
C0
ENDCHAR
STARTCHAR Istroke
ENCODING 407
SWIDTH 389 0
DWIDTH 4 0
BBX 3 7 0 0
BITMAP
40
40
E0
40
40
40
40
ENDCHAR
STARTCHAR lbar
ENCODING 410
SWIDTH 389 0
DWIDTH 4 0
BBX 3 7 0 0
BITMAP
40
40
E0
40
40
40
40
ENDCHAR
STARTCHAR uni019B
ENCODING 411
SWIDTH 548 0
DWIDTH 5 0
BBX 5 7 0 0
BITMAP
70
E0
30
30
70
58
C8
ENDCHAR
STARTCHAR Nhookleft
ENCODING 413
SWIDTH 722 0
DWIDTH 7 0
BBX 6 9 0 -2
BITMAP
64
64
74
54
5C
4C
4C
40
C0
ENDCHAR
STARTCHAR nlegrightlong
ENCODING 414
SWIDTH 610 0
DWIDTH 6 0
BBX 4 7 1 -2
BITMAP
F0
90
90
90
90
10
10
ENDCHAR
STARTCHAR Ocenteredtilde
ENCODING 415
SWIDTH 777 0
DWIDTH 8 0
BBX 7 7 0 0
BITMAP
3C
66
42
FE
42
66
3C
ENDCHAR
STARTCHAR Ohorn
ENCODING 416
SWIDTH 946 0
DWIDTH 9 0
BBX 8 8 1 0
BITMAP
02
7B
CC
CC
CC
CC
C8
78
ENDCHAR
STARTCHAR ohorn
ENCODING 417
SWIDTH 794 0
DWIDTH 8 0
BBX 8 6 0 0
BITMAP
01
7B
84
84
84
78
ENDCHAR
STARTCHAR yr
ENCODING 422
SWIDTH 649 0
DWIDTH 7 0
BBX 5 8 1 -1
BITMAP
80
F8
98
98
F0
98
98
18
ENDCHAR
STARTCHAR Tonetwo
ENCODING 423
SWIDTH 666 0
DWIDTH 7 0
BBX 6 7 0 0
BITMAP
3C
64
0C
78
80
88
F0
ENDCHAR
STARTCHAR tonetwo
ENCODING 424
SWIDTH 556 0
DWIDTH 6 0
BBX 5 5 0 0
BITMAP
78
C8
78
C8
78
ENDCHAR
STARTCHAR Esh
ENCODING 425
SWIDTH 595 0
DWIDTH 6 0
BBX 6 7 0 0
BITMAP
FC
60
30
18
30
60
FC
ENDCHAR
STARTCHAR Tretroflexhook
ENCODING 430
SWIDTH 610 0
DWIDTH 6 0
BBX 6 9 0 -2
BITMAP
FC
30
30
30
30
30
30
30
30
ENDCHAR
STARTCHAR Uhorn
ENCODING 431
SWIDTH 917 0
DWIDTH 9 0
BBX 7 8 1 0
BITMAP
1A
DE
DC
D8
D8
D8
D8
70
ENDCHAR
STARTCHAR uhorn
ENCODING 432
SWIDTH 805 0
DWIDTH 8 0
BBX 6 6 1 0
BITMAP
04
9C
98
90
90
F0
ENDCHAR
STARTCHAR Upsilonafrican
ENCODING 433
SWIDTH 774 0
DWIDTH 8 0
BBX 6 7 1 0
BITMAP
FC
78
CC
CC
CC
CC
78
ENDCHAR
STARTCHAR uni01B5
ENCODING 437
SWIDTH 610 0
DWIDTH 6 0
BBX 6 7 0 0
BITMAP
FC
0C
18
78
20
60
FC
ENDCHAR
STARTCHAR uni01B6
ENCODING 438
SWIDTH 500 0
DWIDTH 5 0
BBX 5 5 0 0
BITMAP
F8
30
70
60
F8
ENDCHAR
STARTCHAR Ezh
ENCODING 439
SWIDTH 599 0
DWIDTH 6 0
BBX 5 7 0 0
BITMAP
F8
18
30
48
08
C8
70
ENDCHAR
STARTCHAR Ezhreversed
ENCODING 440
SWIDTH 599 0
DWIDTH 6 0
BBX 5 7 1 0
BITMAP
F8
C0
60
90
80
98
70
ENDCHAR
STARTCHAR ezhreversed
ENCODING 441
SWIDTH 550 0
DWIDTH 6 0
BBX 4 7 1 -2
BITMAP
F0
C0
40
A0
80
90
E0
ENDCHAR
STARTCHAR twostroke
ENCODING 443
SWIDTH 611 0
DWIDTH 6 0
BBX 5 7 1 0
BITMAP
E0
90
10
F8
60
80
F0
ENDCHAR
STARTCHAR clickdental
ENCODING 448
SWIDTH 279 0
DWIDTH 3 0
BBX 1 7 1 0
BITMAP
80
80
80
80
80
80
80
ENDCHAR
STARTCHAR clicklateral
ENCODING 449
SWIDTH 528 0
DWIDTH 5 0
BBX 3 7 1 0
BITMAP
A0
A0
A0
A0
A0
A0
A0
ENDCHAR
STARTCHAR clickalveolar
ENCODING 450
SWIDTH 572 0
DWIDTH 6 0
BBX 5 7 0 0
BITMAP
20
20
F8
20
F8
20
20
ENDCHAR
STARTCHAR clickretroflex
ENCODING 451
SWIDTH 333 0
DWIDTH 4 0
BBX 2 7 1 0
BITMAP
C0
C0
C0
C0
C0
00
C0
ENDCHAR
STARTCHAR DZcaron
ENCODING 452
SWIDTH 1229 0
DWIDTH 12 0
BBX 11 9 1 0
BITMAP
0140
0080
F7E0
8820
8440
8480
8900
8A00
F7E0
ENDCHAR
STARTCHAR Dzcaron
ENCODING 453
SWIDTH 1132 0
DWIDTH 11 0
BBX 10 8 1 0
BITMAP
02C0
F980
8800
87C0
8440
8580
8A00
F7C0
ENDCHAR
STARTCHAR dzcaron
ENCODING 454
SWIDTH 1060 0
DWIDTH 11 0
BBX 11 8 0 0
BITMAP
0140
0980
0800
7BE0
8840
8880
8B00
7BE0
ENDCHAR
STARTCHAR LJ
ENCODING 455
SWIDTH 1057 0
DWIDTH 11 0
BBX 9 7 1 0
BITMAP
8080
8080
8080
8080
8880
8480
FF80
ENDCHAR
STARTCHAR Lj
ENCODING 456
SWIDTH 835 0
DWIDTH 8 0
BBX 7 9 1 -2
BITMAP
82
80
82
82
82
82
FA
02
06
ENDCHAR
STARTCHAR lj
ENCODING 457
SWIDTH 521 0
DWIDTH 5 0
BBX 5 9 0 -2
BITMAP
88
80
88
88
88
88
88
08
18
ENDCHAR
STARTCHAR NJ
ENCODING 458
SWIDTH 1158 0
DWIDTH 12 0
BBX 10 7 1 0
BITMAP
8440
C440
A440
A440
9440
8E40
8FC0
ENDCHAR
STARTCHAR Nj
ENCODING 459
SWIDTH 905 0
DWIDTH 9 0
BBX 8 9 1 -2
BITMAP
87
C4
A7
A7
97
8F
8F
02
06
ENDCHAR
STARTCHAR nj
ENCODING 460
SWIDTH 800 0
DWIDTH 8 0
BBX 7 9 0 -2
BITMAP
02
00
F2
8A
8A
8A
8A
02
06
ENDCHAR
STARTCHAR Acaron
ENCODING 461
SWIDTH 722 0
DWIDTH 7 0
BBX 5 10 1 0
BITMAP
58
30
00
20
70
50
50
70
88
88
ENDCHAR
STARTCHAR acaron
ENCODING 462
SWIDTH 556 0
DWIDTH 6 0
BBX 5 8 0 0
BITMAP
58
30
00
78
88
78
88
F8
ENDCHAR
STARTCHAR Icaron
ENCODING 463
SWIDTH 277 0
DWIDTH 3 0
BBX 3 10 0 0
BITMAP
A0
40
00
40
40
40
40
40
40
40
ENDCHAR
STARTCHAR icaron
ENCODING 464
SWIDTH 277 0
DWIDTH 2 0
BBX 3 8 0 0
BITMAP
A0
40
00
80
80
80
80
80
ENDCHAR
STARTCHAR Ocaron
ENCODING 465
SWIDTH 777 0
DWIDTH 9 0
BBX 7 10 1 0
BITMAP
28
30
00
7C
C6
82
82
82
C6
7C
ENDCHAR
STARTCHAR ocaron
ENCODING 466
SWIDTH 610 0
DWIDTH 6 0
BBX 5 8 0 0
BITMAP
28
30
00
70
88
88
88
70
ENDCHAR
STARTCHAR Ucaron
ENCODING 467
SWIDTH 722 0
DWIDTH 8 0
BBX 6 10 1 0
BITMAP
50
30
00
84
84
84
84
84
84
78
ENDCHAR
STARTCHAR ucaron
ENCODING 468
SWIDTH 610 0
DWIDTH 6 0
BBX 5 8 0 0
BITMAP
28
30
00
88
88
88
88
78
ENDCHAR
STARTCHAR Udieresismacron
ENCODING 469
SWIDTH 722 0
DWIDTH 8 0
BBX 6 11 1 0
BITMAP
78
00
50
00
84
84
84
84
84
84
78
ENDCHAR
STARTCHAR udieresismacron
ENCODING 470
SWIDTH 610 0
DWIDTH 6 0
BBX 6 9 0 0
BITMAP
3C
00
28
00
88
88
88
88
78
ENDCHAR
STARTCHAR Udieresisacute
ENCODING 471
SWIDTH 722 0
DWIDTH 8 0
BBX 6 10 1 0
BITMAP
10
70
00
84
84
84
84
84
84
78
ENDCHAR
STARTCHAR udieresisacute
ENCODING 472
SWIDTH 610 0
DWIDTH 6 0
BBX 5 9 0 0
BITMAP
18
00
28
00
88
88
88
88
78
ENDCHAR
STARTCHAR Udieresiscaron
ENCODING 473
SWIDTH 722 0
DWIDTH 8 0
BBX 6 12 1 0
BITMAP
50
30
00
50
00
84
84
84
84
84
84
78
ENDCHAR
STARTCHAR udieresiscaron
ENCODING 474
SWIDTH 610 0
DWIDTH 6 0
BBX 5 10 0 0
BITMAP
28
30
00
28
00
88
88
88
88
78
ENDCHAR
STARTCHAR Udieresisgrave
ENCODING 475
SWIDTH 722 0
DWIDTH 8 0
BBX 6 10 1 0
BITMAP
60
50
00
84
84
84
84
84
84
78
ENDCHAR
STARTCHAR udieresisgrave
ENCODING 476
SWIDTH 610 0
DWIDTH 6 0
BBX 5 9 0 0
BITMAP
60
00
28
00
88
88
88
88
78
ENDCHAR
STARTCHAR eturned
ENCODING 477
SWIDTH 556 0
DWIDTH 6 0
BBX 5 5 0 0
BITMAP
70
C8
F8
C8
70
ENDCHAR
STARTCHAR Adieresismacron
ENCODING 478
SWIDTH 722 0
DWIDTH 7 0
BBX 5 11 1 0
BITMAP
78
00
50
00
20
70
50
50
70
88
88
ENDCHAR
STARTCHAR adieresismacron
ENCODING 479
SWIDTH 556 0
DWIDTH 6 0
BBX 5 9 0 0
BITMAP
78
00
50
00
78
88
78
88
F8
ENDCHAR
STARTCHAR Adotmacron
ENCODING 480
SWIDTH 722 0
DWIDTH 7 0
BBX 5 11 1 0
BITMAP
78
00
20
00
20
70
50
50
70
88
88
ENDCHAR
STARTCHAR adotmacron
ENCODING 481
SWIDTH 556 0
DWIDTH 6 0
BBX 5 9 0 0
BITMAP
78
00
20
00
78
88
78
88
F8
ENDCHAR
STARTCHAR AEmacron
ENCODING 482
SWIDTH 1000 0
DWIDTH 11 0
BBX 10 9 0 0
BITMAP
0F00
0000
1FC0
1400
2400
27C0
7C00
4400
C7C0
ENDCHAR
STARTCHAR aemacron
ENCODING 483
SWIDTH 889 0
DWIDTH 9 0
BBX 8 7 0 0
BITMAP
1E
00
7E
89
7F
88
F7
ENDCHAR
STARTCHAR Gstroke
ENCODING 484
SWIDTH 825 0
DWIDTH 8 0
BBX 8 7 0 0
BITMAP
3C
46
C0
CE
C2
4F
3A
ENDCHAR
STARTCHAR gstroke
ENCODING 485
SWIDTH 687 0
DWIDTH 6 0
BBX 6 7 0 -2
BITMAP
78
88
9C
88
78
C8
70
ENDCHAR
STARTCHAR Gcaron
ENCODING 486
SWIDTH 777 0
DWIDTH 8 0
BBX 7 10 0 0
BITMAP
14
18
00
3C
42
80
8E
82
46
3A
ENDCHAR
STARTCHAR gcaron
ENCODING 487
SWIDTH 610 0
DWIDTH 6 0
BBX 5 10 0 -2
BITMAP
50
30
00
78
88
88
88
78
88
70
ENDCHAR
STARTCHAR Kcaron
ENCODING 488
SWIDTH 722 0
DWIDTH 7 0
BBX 6 10 1 0
BITMAP
50
30
00
88
90
A0
E0
90
90
8C
ENDCHAR
STARTCHAR kcaron
ENCODING 489
SWIDTH 556 0
DWIDTH 5 0
BBX 4 10 1 0
BITMAP
50
20
00
80
80
A0
C0
C0
A0
A0
ENDCHAR
STARTCHAR Oogonek
ENCODING 490
SWIDTH 777 0
DWIDTH 9 0
BBX 7 10 1 -3
BITMAP
7C
C6
82
82
82
C6
7C
10
20
10
ENDCHAR
STARTCHAR oogonek
ENCODING 491
SWIDTH 610 0
DWIDTH 6 0
BBX 5 8 0 -3
BITMAP
70
88
88
88
70
10
20
10
ENDCHAR
STARTCHAR Oogonekmacron
ENCODING 492
SWIDTH 777 0
DWIDTH 9 0
BBX 7 12 1 -3
BITMAP
78
00
7C
C6
82
82
82
C6
7C
10
20
10
ENDCHAR
STARTCHAR oogonekmacron
ENCODING 493
SWIDTH 610 0
DWIDTH 6 0
BBX 6 10 0 -3
BITMAP
3C
00
70
88
88
88
70
10
20
10
ENDCHAR
STARTCHAR Ezhcaron
ENCODING 494
SWIDTH 581 0
DWIDTH 6 0
BBX 5 9 0 0
BITMAP
78
00
F8
18
30
48
08
C8
70
ENDCHAR
STARTCHAR ezhcaron
ENCODING 495
SWIDTH 533 0
DWIDTH 6 0
BBX 4 10 1 -2
BITMAP
F0
00
00
F0
30
20
50
10
90
70
ENDCHAR
STARTCHAR jcaron
ENCODING 496
SWIDTH 277 0
DWIDTH 3 0
BBX 3 10 0 -2
BITMAP
A0
40
00
40
40
40
40
40
40
C0
ENDCHAR
STARTCHAR DZ
ENCODING 497
SWIDTH 1255 0
DWIDTH 13 0
BBX 11 7 1 0
BITMAP
FFE0
8820
8440
8480
8500
8A00
F7E0
ENDCHAR
STARTCHAR Dz
ENCODING 498
SWIDTH 1152 0
DWIDTH 12 0
BBX 10 7 1 0
BITMAP
F800
8800
87C0
8440
8580
8A00
F7C0
ENDCHAR
STARTCHAR dz
ENCODING 499
SWIDTH 1083 0
DWIDTH 11 0
BBX 11 7 0 0
BITMAP
0800
0800
7BE0
8840
8880
8B00
7BE0
ENDCHAR
STARTCHAR Gacute
ENCODING 500
SWIDTH 777 0
DWIDTH 8 0
BBX 7 9 0 0
BITMAP
0C
10
3C
42
80
8E
82
46
3A
ENDCHAR
STARTCHAR gacute
ENCODING 501
SWIDTH 610 0
DWIDTH 6 0
BBX 5 9 0 -2
BITMAP
10
20
78
88
88
88
78
88
70
ENDCHAR
STARTCHAR Wynn
ENCODING 503
SWIDTH 666 0
DWIDTH 7 0
BBX 5 7 1 0
BITMAP
F8
C8
C8
D8
B0
E0
C0
ENDCHAR
STARTCHAR Ngrave
ENCODING 504
SWIDTH 722 0
DWIDTH 8 0
BBX 6 9 1 0
BITMAP
60
00
C4
C4
A4
94
94
8C
84
ENDCHAR
STARTCHAR ngrave
ENCODING 505
SWIDTH 610 0
DWIDTH 6 0
BBX 5 7 0 0
BITMAP
20
10
F0
88
88
88
88
ENDCHAR
STARTCHAR Aringacute
ENCODING 506
SWIDTH 722 0
DWIDTH 7 0
BBX 5 11 1 0
BITMAP
10
30
30
00
20
70
50
50
70
88
88
ENDCHAR
STARTCHAR aringacute
ENCODING 507
SWIDTH 556 0
DWIDTH 6 0
BBX 5 9 0 0
BITMAP
10
30
30
00
78
88
78
88
F8
ENDCHAR
STARTCHAR AEacute
ENCODING 508
SWIDTH 1000 0
DWIDTH 11 0
BBX 10 9 0 0
BITMAP
0200
0400
1FC0
1400
2400
27C0
7C00
4400
C7C0
ENDCHAR
STARTCHAR aeacute
ENCODING 509
SWIDTH 889 0
DWIDTH 9 0
BBX 8 7 0 0
BITMAP
04
08
7E
89
7F
88
F7
ENDCHAR
STARTCHAR Ostrokeacute
ENCODING 510
SWIDTH 777 0
DWIDTH 9 0
BBX 7 9 1 0
BITMAP
18
00
3E
46
8A
92
A2
C4
F8
ENDCHAR
STARTCHAR ostrokeacute
ENCODING 511
SWIDTH 610 0
DWIDTH 6 0
BBX 5 7 0 0
BITMAP
18
00
78
98
A8
C8
F0
ENDCHAR
STARTCHAR Adblgrave
ENCODING 512
SWIDTH 722 0
DWIDTH 7 0
BBX 5 9 1 0
BITMAP
F0
00
20
70
50
50
70
88
88
ENDCHAR
STARTCHAR adblgrave
ENCODING 513
SWIDTH 556 0
DWIDTH 6 0
BBX 5 7 0 0
BITMAP
F0
08
78
88
78
88
F8
ENDCHAR
STARTCHAR Ainvertedbreve
ENCODING 514
SWIDTH 722 0
DWIDTH 7 0
BBX 5 9 1 0
BITMAP
70
00
20
70
50
50
70
88
88
ENDCHAR
STARTCHAR ainvertedbreve
ENCODING 515
SWIDTH 556 0
DWIDTH 6 0
BBX 5 7 0 0
BITMAP
70
00
78
88
78
88
F8
ENDCHAR
STARTCHAR Edblgrave
ENCODING 516
SWIDTH 666 0
DWIDTH 7 0
BBX 5 9 1 0
BITMAP
F0
00
F8
80
80
F0
80
80
F8
ENDCHAR
STARTCHAR edblgrave
ENCODING 517
SWIDTH 556 0
DWIDTH 6 0
BBX 5 7 0 0
BITMAP
F0
08
70
88
F8
90
78
ENDCHAR
STARTCHAR Einvertedbreve
ENCODING 518
SWIDTH 666 0
DWIDTH 7 0
BBX 5 9 1 0
BITMAP
70
00
F8
80
80
F0
80
80
F8
ENDCHAR
STARTCHAR einvertedbreve
ENCODING 519
SWIDTH 556 0
DWIDTH 6 0
BBX 5 7 0 0
BITMAP
70
08
70
88
F8
90
78
ENDCHAR
STARTCHAR Idblgrave
ENCODING 520
SWIDTH 277 0
DWIDTH 3 0
BBX 4 9 -1 0
BITMAP
F0
00
20
20
20
20
20
20
20
ENDCHAR
STARTCHAR idblgrave
ENCODING 521
SWIDTH 277 0
DWIDTH 2 0
BBX 4 7 -1 0
BITMAP
F0
00
40
40
40
40
40
ENDCHAR
STARTCHAR Iinvertedbreve
ENCODING 522
SWIDTH 277 0
DWIDTH 3 0
BBX 3 9 0 0
BITMAP
E0
00
40
40
40
40
40
40
40
ENDCHAR
STARTCHAR iinvertedbreve
ENCODING 523
SWIDTH 277 0
DWIDTH 2 0
BBX 3 7 0 0
BITMAP
E0
00
80
80
80
80
80
ENDCHAR
STARTCHAR Odblgrave
ENCODING 524
SWIDTH 777 0
DWIDTH 9 0
BBX 7 9 1 0
BITMAP
F0
08
7C
C6
82
82
82
C6
7C
ENDCHAR
STARTCHAR odblgrave
ENCODING 525
SWIDTH 610 0
DWIDTH 6 0
BBX 5 7 0 0
BITMAP
D0
28
70
88
88
88
70
ENDCHAR
STARTCHAR Oinvertedbreve
ENCODING 526
SWIDTH 777 0
DWIDTH 9 0
BBX 7 9 1 0
BITMAP
70
08
7C
C6
82
82
82
C6
7C
ENDCHAR
STARTCHAR oinvertedbreve
ENCODING 527
SWIDTH 610 0
DWIDTH 6 0
BBX 5 7 0 0
BITMAP
30
48
70
88
88
88
70
ENDCHAR
STARTCHAR Rdblgrave
ENCODING 528
SWIDTH 722 0
DWIDTH 8 0
BBX 6 9 1 0
BITMAP
F0
00
F8
84
84
F8
84
84
84
ENDCHAR
STARTCHAR rdblgrave
ENCODING 529
SWIDTH 389 0
DWIDTH 3 0
BBX 4 7 0 0
BITMAP
B0
40
E0
80
80
80
80
ENDCHAR
STARTCHAR Rinvertedbreve
ENCODING 530
SWIDTH 722 0
DWIDTH 8 0
BBX 6 9 1 0
BITMAP
70
00
F8
84
84
F8
84
84
84
ENDCHAR
STARTCHAR rinvertedbreve
ENCODING 531
SWIDTH 389 0
DWIDTH 3 0
BBX 4 7 0 0
BITMAP
70
80
E0
80
80
80
80
ENDCHAR
STARTCHAR Udblgrave
ENCODING 532
SWIDTH 722 0
DWIDTH 8 0
BBX 6 9 1 0
BITMAP
F0
00
84
84
84
84
84
84
78
ENDCHAR
STARTCHAR udblgrave
ENCODING 533
SWIDTH 610 0
DWIDTH 6 0
BBX 5 7 0 0
BITMAP
D0
28
88
88
88
88
78
ENDCHAR
STARTCHAR Uinvertedbreve
ENCODING 534
SWIDTH 722 0
DWIDTH 8 0
BBX 6 9 1 0
BITMAP
70
00
84
84
84
84
84
84
78
ENDCHAR
STARTCHAR uinvertedbreve
ENCODING 535
SWIDTH 610 0
DWIDTH 6 0
BBX 5 7 0 0
BITMAP
38
40
88
88
88
88
78
ENDCHAR
STARTCHAR Scommaaccent
ENCODING 536
SWIDTH 666 0
DWIDTH 7 0
BBX 5 10 1 -3
BITMAP
F0
98
80
70
08
88
78
00
20
20
ENDCHAR
STARTCHAR scommaaccent
ENCODING 537
SWIDTH 556 0
DWIDTH 6 0
BBX 4 8 1 -3
BITMAP
E0
B0
F0
90
F0
00
40
40
ENDCHAR
STARTCHAR Tcommaaccent
ENCODING 538
SWIDTH 610 0
DWIDTH 6 0
BBX 6 10 0 -3
BITMAP
FC
30
30
30
30
30
30
00
10
10
ENDCHAR
STARTCHAR tcommaaccent
ENCODING 539
SWIDTH 333 0
DWIDTH 3 0
BBX 3 10 0 -3
BITMAP
40
40
E0
40
40
40
60
00
40
40
ENDCHAR
STARTCHAR Yogh
ENCODING 540
SWIDTH 663 0
DWIDTH 7 0
BBX 5 7 1 0
BITMAP
78
48
08
38
08
08
F8
ENDCHAR
STARTCHAR yogh
ENCODING 541
SWIDTH 663 0
DWIDTH 7 0
BBX 5 7 1 -2
BITMAP
78
48
08
38
08
08
F8
ENDCHAR
STARTCHAR Hcaron
ENCODING 542
SWIDTH 722 0
DWIDTH 8 0
BBX 6 10 1 0
BITMAP
58
30
00
84
84
84
FC
84
84
84
ENDCHAR
STARTCHAR hcaron
ENCODING 543
SWIDTH 610 0
DWIDTH 6 0
BBX 5 10 0 0
BITMAP
28
30
00
80
80
F0
88
88
88
88
ENDCHAR
STARTCHAR uni0220
ENCODING 544
SWIDTH 722 0
DWIDTH 8 0
BBX 6 9 1 -2
BITMAP
F8
CC
CC
CC
CC
CC
CC
0C
0C
ENDCHAR
STARTCHAR uni0226
ENCODING 550
SWIDTH 722 0
DWIDTH 7 0
BBX 5 9 1 0
BITMAP
20
00
20
70
50
50
70
88
88
ENDCHAR
STARTCHAR uni0227
ENCODING 551
SWIDTH 556 0
DWIDTH 6 0
BBX 5 7 0 0
BITMAP
20
00
78
88
78
88
F8
ENDCHAR
STARTCHAR uni0228
ENCODING 552
SWIDTH 666 0
DWIDTH 7 0
BBX 5 10 1 -3
BITMAP
F8
80
80
F0
80
80
F8
40
20
60
ENDCHAR
STARTCHAR uni0229
ENCODING 553
SWIDTH 556 0
DWIDTH 6 0
BBX 5 8 0 -3
BITMAP
70
88
F8
90
78
40
20
60
ENDCHAR
STARTCHAR uni022A
ENCODING 554
SWIDTH 777 0
DWIDTH 9 0
BBX 7 10 1 0
BITMAP
3C
50
00
7C
C6
82
82
82
C6
7C
ENDCHAR
STARTCHAR uni022B
ENCODING 555
SWIDTH 610 0
DWIDTH 6 0
BBX 6 8 0 0
BITMAP
3C
28
00
70
88
88
88
70
ENDCHAR
STARTCHAR uni022C
ENCODING 556
SWIDTH 777 0
DWIDTH 9 0
BBX 7 10 1 0
BITMAP
3C
38
00
7C
C6
82
82
82
C6
7C
ENDCHAR
STARTCHAR uni022D
ENCODING 557
SWIDTH 610 0
DWIDTH 6 0
BBX 6 9 0 0
BITMAP
3C
00
3C
00
70
88
88
88
70
ENDCHAR
STARTCHAR uni022E
ENCODING 558
SWIDTH 777 0
DWIDTH 9 0
BBX 7 9 1 0
BITMAP
10
00
7C
C6
82
82
82
C6
7C
ENDCHAR
STARTCHAR uni022F
ENCODING 559
SWIDTH 610 0
DWIDTH 6 0
BBX 5 7 0 0
BITMAP
10
00
70
88
88
88
70
ENDCHAR
STARTCHAR uni0230
ENCODING 560
SWIDTH 777 0
DWIDTH 9 0
BBX 7 10 1 0
BITMAP
3C
10
00
7C
C6
82
82
82
C6
7C
ENDCHAR
STARTCHAR uni0231
ENCODING 561
SWIDTH 610 0
DWIDTH 6 0
BBX 6 8 0 0
BITMAP
3C
10
00
70
88
88
88
70
ENDCHAR
STARTCHAR uni0232
ENCODING 562
SWIDTH 666 0
DWIDTH 5 0
BBX 6 9 0 0
BITMAP
3C
00
D8
50
50
20
20
20
20
ENDCHAR
STARTCHAR uni0233
ENCODING 563
SWIDTH 556 0
DWIDTH 7 0
BBX 5 9 1 -2
BITMAP
F0
00
88
50
50
50
20
20
C0
ENDCHAR
STARTCHAR dotlessj
ENCODING 567
SWIDTH 277 0
DWIDTH 3 0
BBX 2 7 0 -2
BITMAP
40
40
40
40
40
40
C0
ENDCHAR
STARTCHAR uni0238
ENCODING 568
SWIDTH 960 0
DWIDTH 10 0
BBX 8 7 1 0
BITMAP
10
10
7E
91
91
91
7E
ENDCHAR
STARTCHAR uni0239
ENCODING 569
SWIDTH 962 0
DWIDTH 10 0
BBX 8 7 1 -2
BITMAP
7E
91
91
91
7E
10
10
ENDCHAR
STARTCHAR uni023A
ENCODING 570
SWIDTH 722 0
DWIDTH 7 0
BBX 7 9 0 -1
BITMAP
04
1C
3C
28
2C
7C
56
D6
30
ENDCHAR
STARTCHAR uni023B
ENCODING 571
SWIDTH 722 0
DWIDTH 7 0
BBX 7 9 0 -1
BITMAP
0C
38
4C
D6
D0
D0
F6
78
20
ENDCHAR
STARTCHAR uni023C
ENCODING 572
SWIDTH 556 0
DWIDTH 6 0
BBX 5 7 1 -1
BITMAP
10
70
B8
E0
D8
F0
C0
ENDCHAR
STARTCHAR uni023D
ENCODING 573
SWIDTH 610 0
DWIDTH 6 0
BBX 7 7 0 0
BITMAP
60
60
60
F0
60
60
7E
ENDCHAR
STARTCHAR uni023E
ENCODING 574
SWIDTH 610 0
DWIDTH 6 0
BBX 6 9 0 -1
BITMAP
04
FC
38
30
30
30
70
70
80
ENDCHAR
STARTCHAR uni0241
ENCODING 577
SWIDTH 610 0
DWIDTH 6 0
BBX 4 7 1 0
BITMAP
F0
90
10
20
40
40
40
ENDCHAR
STARTCHAR uni0242
ENCODING 578
SWIDTH 610 0
DWIDTH 6 0
BBX 4 5 1 0
BITMAP
F0
90
10
60
40
ENDCHAR
STARTCHAR uni0243
ENCODING 579
SWIDTH 763 0
DWIDTH 9 0
BBX 7 7 1 0
BITMAP
78
44
44
7C
E6
46
7C
ENDCHAR
STARTCHAR uni0244
ENCODING 580
SWIDTH 832 0
DWIDTH 9 0
BBX 9 7 0 0
BITMAP
6300
6300
FF80
6300
6300
6300
3E00
ENDCHAR
STARTCHAR uni0245
ENCODING 581
SWIDTH 666 0
DWIDTH 7 0
BBX 7 7 0 0
BITMAP
30
38
28
68
6C
44
C6
ENDCHAR
STARTCHAR uni0246
ENCODING 582
SWIDTH 666 0
DWIDTH 7 0
BBX 5 9 1 -1
BITMAP
10
F8
A0
A0
F8
E0
C0
F8
C0
ENDCHAR
STARTCHAR uni0247
ENCODING 583
SWIDTH 556 0
DWIDTH 6 0
BBX 5 7 0 -1
BITMAP
18
70
D8
F8
E8
70
40
ENDCHAR
STARTCHAR uni0248
ENCODING 584
SWIDTH 556 0
DWIDTH 6 0
BBX 6 7 0 0
BITMAP
18
18
3C
18
98
98
70
ENDCHAR
STARTCHAR uni0249
ENCODING 585
SWIDTH 277 0
DWIDTH 3 0
BBX 3 9 0 -2
BITMAP
40
00
40
40
E0
40
40
40
C0
ENDCHAR
STARTCHAR uni024A
ENCODING 586
SWIDTH 824 0
DWIDTH 9 0
BBX 9 9 0 -2
BITMAP
3F00
4700
C300
C300
C300
4700
3F00
0300
0180
ENDCHAR
STARTCHAR uni024B
ENCODING 587
SWIDTH 658 0
DWIDTH 7 0
BBX 6 7 1 -2
BITMAP
78
88
88
88
78
08
0C
ENDCHAR
STARTCHAR uni024C
ENCODING 588
SWIDTH 772 0
DWIDTH 8 0
BBX 6 7 1 0
BITMAP
78
4C
4C
F8
4C
4C
4C
ENDCHAR
STARTCHAR uni024D
ENCODING 589
SWIDTH 439 0
DWIDTH 4 0
BBX 4 5 0 0
BITMAP
70
40
E0
40
40
ENDCHAR
STARTCHAR uni024E
ENCODING 590
SWIDTH 766 0
DWIDTH 8 0
BBX 8 7 0 0
BITMAP
66
FF
3C
3C
18
18
18
ENDCHAR
STARTCHAR uni024F
ENCODING 591
SWIDTH 660 0
DWIDTH 7 0
BBX 6 7 0 -2
BITMAP
4C
FC
28
38
30
30
60
ENDCHAR
STARTCHAR aturned
ENCODING 592
SWIDTH 556 0
DWIDTH 6 0
BBX 4 5 1 0
BITMAP
F0
90
B0
D0
F0
ENDCHAR
STARTCHAR ascript
ENCODING 593
SWIDTH 591 0
DWIDTH 6 0
BBX 5 5 0 0
BITMAP
78
88
88
88
78
ENDCHAR
STARTCHAR ascriptturned
ENCODING 594
SWIDTH 591 0
DWIDTH 6 0
BBX 5 5 0 0
BITMAP
F0
88
88
88
F0
ENDCHAR
STARTCHAR uni0253
ENCODING 595
SWIDTH 610 0
DWIDTH 7 0
BBX 5 7 1 0
BITMAP
C0
80
F0
88
88
88
F0
ENDCHAR
STARTCHAR oopen
ENCODING 596
SWIDTH 556 0
DWIDTH 6 0
BBX 4 5 1 0
BITMAP
70
90
10
90
F0
ENDCHAR
STARTCHAR uni0256
ENCODING 598
SWIDTH 645 0
DWIDTH 6 0
BBX 5 9 1 -2
BITMAP
10
10
70
90
90
90
70
10
18
ENDCHAR
STARTCHAR uni0257
ENCODING 599
SWIDTH 610 0
DWIDTH 6 0
BBX 5 7 1 0
BITMAP
18
10
70
90
90
90
70
ENDCHAR
STARTCHAR ereversed
ENCODING 600
SWIDTH 556 0
DWIDTH 6 0
BBX 5 5 0 0
BITMAP
70
C8
F8
C8
70
ENDCHAR
STARTCHAR schwa
ENCODING 601
SWIDTH 556 0
DWIDTH 6 0
BBX 5 5 0 0
BITMAP
70
C8
F8
C8
70
ENDCHAR
STARTCHAR schwahook
ENCODING 602
SWIDTH 882 0
DWIDTH 9 0
BBX 9 5 0 0
BITMAP
7800
CE00
7E80
4800
7800
ENDCHAR
STARTCHAR eopen
ENCODING 603
SWIDTH 504 0
DWIDTH 5 0
BBX 5 5 0 0
BITMAP
70
D8
60
D8
70
ENDCHAR
STARTCHAR eopenreversed
ENCODING 604
SWIDTH 504 0
DWIDTH 5 0
BBX 5 5 0 0
BITMAP
70
D8
30
C8
70
ENDCHAR
STARTCHAR eopenreversedhook
ENCODING 605
SWIDTH 797 0
DWIDTH 8 0
BBX 7 5 1 0
BITMAP
7C
96
30
90
70
ENDCHAR
STARTCHAR eopenreversedclosed
ENCODING 606
SWIDTH 536 0
DWIDTH 6 0
BBX 4 5 1 0
BITMAP
70
90
B0
90
F0
ENDCHAR
STARTCHAR jdotlessstroke
ENCODING 607
SWIDTH 333 0
DWIDTH 3 0
BBX 3 7 0 -2
BITMAP
40
40
40
40
E0
40
C0
ENDCHAR
STARTCHAR uni0260
ENCODING 608
SWIDTH 610 0
DWIDTH 6 0
BBX 6 9 0 -2
BITMAP
0C
08
38
48
48
48
38
C8
70
ENDCHAR
STARTCHAR gscript
ENCODING 609
SWIDTH 610 0
DWIDTH 6 0
BBX 5 7 0 -2
BITMAP
78
88
88
88
78
C8
70
ENDCHAR
STARTCHAR hturned
ENCODING 613
SWIDTH 610 0
DWIDTH 6 0
BBX 4 7 1 -2
BITMAP
90
90
90
90
F0
10
10
ENDCHAR
STARTCHAR uni0266
ENCODING 614
SWIDTH 610 0
DWIDTH 6 0
BBX 4 8 1 0
BITMAP
C0
80
80
F0
90
90
90
90
ENDCHAR
STARTCHAR uni0267
ENCODING 615
SWIDTH 658 0
DWIDTH 6 0
BBX 5 10 1 -2
BITMAP
C0
80
80
F0
90
90
90
90
10
18
ENDCHAR
STARTCHAR istroke
ENCODING 616
SWIDTH 377 0
DWIDTH 4 0
BBX 3 7 0 0
BITMAP
40
00
40
E0
40
40
40
ENDCHAR
STARTCHAR iotalatin
ENCODING 617
SWIDTH 277 0
DWIDTH 3 0
BBX 1 5 1 0
BITMAP
80
80
80
80
80
ENDCHAR
STARTCHAR Ismallipa
ENCODING 618
SWIDTH 334 0
DWIDTH 3 0
BBX 3 5 0 0
BITMAP
E0
40
40
40
E0
ENDCHAR
STARTCHAR lmiddletilde
ENCODING 619
SWIDTH 391 0
DWIDTH 4 0
BBX 3 7 0 0
BITMAP
40
40
40
E0
40
40
40
ENDCHAR
STARTCHAR uni026D
ENCODING 621
SWIDTH 305 0
DWIDTH 3 0
BBX 2 9 1 -2
BITMAP
80
80
80
80
80
80
80
80
C0
ENDCHAR
STARTCHAR mturned
ENCODING 623
SWIDTH 889 0
DWIDTH 9 0
BBX 7 5 1 0
BITMAP
92
92
92
92
FE
ENDCHAR
STARTCHAR mlonglegturned
ENCODING 624
SWIDTH 889 0
DWIDTH 9 0
BBX 7 7 1 -2
BITMAP
92
92
92
92
FE
02
02
ENDCHAR
STARTCHAR mhook
ENCODING 625
SWIDTH 889 0
DWIDTH 9 0
BBX 7 7 1 -2
BITMAP
FE
92
92
92
92
02
06
ENDCHAR
STARTCHAR nhookleft
ENCODING 626
SWIDTH 610 0
DWIDTH 6 0
BBX 5 7 0 -2
BITMAP
78
48
48
48
48
40
C0
ENDCHAR
STARTCHAR uni0273
ENCODING 627
SWIDTH 648 0
DWIDTH 6 0
BBX 5 7 1 -2
BITMAP
F0
90
90
90
90
10
18
ENDCHAR
STARTCHAR Nsmallipa
ENCODING 628
SWIDTH 529 0
DWIDTH 5 0
BBX 4 5 0 0
BITMAP
D0
D0
F0
B0
B0
ENDCHAR
STARTCHAR uni0275
ENCODING 629
SWIDTH 610 0
DWIDTH 6 0
BBX 6 5 0 0
BITMAP
78
4C
FC
4C
78
ENDCHAR
STARTCHAR uni0276
ENCODING 630
SWIDTH 943 0
DWIDTH 9 0
BBX 9 5 0 0
BITMAP
7700
8900
8F80
8900
7700
ENDCHAR
STARTCHAR philatin
ENCODING 632
SWIDTH 722 0
DWIDTH 8 0
BBX 7 9 0 -2
BITMAP
10
10
7C
92
92
D6
7C
10
10
ENDCHAR
STARTCHAR rturned
ENCODING 633
SWIDTH 389 0
DWIDTH 5 0
BBX 3 5 1 0
BITMAP
20
20
20
20
E0
ENDCHAR
STARTCHAR rlonglegturned
ENCODING 634
SWIDTH 389 0
DWIDTH 5 0
BBX 3 7 1 0
BITMAP
20
20
20
20
20
20
E0
ENDCHAR
STARTCHAR uni027B
ENCODING 635
SWIDTH 471 0
DWIDTH 5 0
BBX 4 7 1 -2
BITMAP
20
20
20
20
E0
20
30
ENDCHAR
STARTCHAR rlongleg
ENCODING 636
SWIDTH 389 0
DWIDTH 4 0
BBX 3 7 1 -2
BITMAP
E0
80
80
80
80
80
80
ENDCHAR
STARTCHAR uni027D
ENCODING 637
SWIDTH 389 0
DWIDTH 4 0
BBX 3 7 1 -2
BITMAP
E0
80
80
80
80
80
C0
ENDCHAR
STARTCHAR rfishhook
ENCODING 638
SWIDTH 277 0
DWIDTH 3 0
BBX 2 5 0 0
BITMAP
C0
80
80
80
80
ENDCHAR
STARTCHAR rfishhookreversed
ENCODING 639
SWIDTH 277 0
DWIDTH 3 0
BBX 2 5 0 0
BITMAP
C0
40
40
40
40
ENDCHAR
STARTCHAR Rsmallipa
ENCODING 640
SWIDTH 533 0
DWIDTH 6 0
BBX 4 5 1 0
BITMAP
F0
B0
E0
B0
B0
ENDCHAR
STARTCHAR Rsmallinverted
ENCODING 641
SWIDTH 533 0
DWIDTH 6 0
BBX 4 5 1 0
BITMAP
B0
B0
E0
B0
F0
ENDCHAR
STARTCHAR esh
ENCODING 643
SWIDTH 380 0
DWIDTH 4 0
BBX 4 9 0 -2
BITMAP
30
60
60
60
60
60
40
40
C0
ENDCHAR
STARTCHAR dotlessjstrokehook
ENCODING 644
SWIDTH 380 0
DWIDTH 4 0
BBX 4 9 0 -2
BITMAP
30
60
60
60
60
60
E0
40
C0
ENDCHAR
STARTCHAR eshsquatreversed
ENCODING 645
SWIDTH 428 0
DWIDTH 4 0
BBX 4 5 0 0
BITMAP
C0
60
60
60
30
ENDCHAR
STARTCHAR tturned
ENCODING 647
SWIDTH 333 0
DWIDTH 3 0
BBX 3 7 0 0
BITMAP
C0
40
40
40
40
E0
40
ENDCHAR
STARTCHAR tretroflexhook
ENCODING 648
SWIDTH 333 0
DWIDTH 3 0
BBX 3 9 0 -2
BITMAP
40
40
E0
40
40
40
40
40
60
ENDCHAR
STARTCHAR ubar
ENCODING 649
SWIDTH 749 0
DWIDTH 7 0
BBX 7 5 0 0
BITMAP
44
FE
44
44
3C
ENDCHAR
STARTCHAR upsilonlatin
ENCODING 650
SWIDTH 577 0
DWIDTH 6 0
BBX 5 5 0 0
BITMAP
D8
88
88
88
70
ENDCHAR
STARTCHAR vturned
ENCODING 652
SWIDTH 556 0
DWIDTH 6 0
BBX 5 5 0 0
BITMAP
30
70
50
58
C8
ENDCHAR
STARTCHAR wturned
ENCODING 653
SWIDTH 777 0
DWIDTH 8 0
BBX 8 5 0 0
BITMAP
64
6E
5A
5A
DB
ENDCHAR
STARTCHAR yturned
ENCODING 654
SWIDTH 556 0
DWIDTH 6 0
BBX 5 7 0 0
BITMAP
18
30
30
70
50
58
C8
ENDCHAR
STARTCHAR Ysmallipa
ENCODING 655
SWIDTH 499 0
DWIDTH 5 0
BBX 6 5 0 0
BITMAP
CC
78
30
30
30
ENDCHAR
STARTCHAR ezh
ENCODING 658
SWIDTH 550 0
DWIDTH 6 0
BBX 4 7 1 -2
BITMAP
F0
30
20
50
10
90
70
ENDCHAR
STARTCHAR glottalstop
ENCODING 660
SWIDTH 610 0
DWIDTH 6 0
BBX 5 7 1 0
BITMAP
70
D8
18
30
20
20
20
ENDCHAR
STARTCHAR glottalstopreversed
ENCODING 661
SWIDTH 610 0
DWIDTH 6 0
BBX 5 7 1 0
BITMAP
70
D8
C0
60
20
20
20
ENDCHAR
STARTCHAR glottalstopinverted
ENCODING 662
SWIDTH 610 0
DWIDTH 6 0
BBX 4 7 1 0
BITMAP
40
40
40
20
10
90
F0
ENDCHAR
STARTCHAR cstretched
ENCODING 663
SWIDTH 520 0
DWIDTH 5 0
BBX 4 7 0 -2
BITMAP
70
90
80
80
80
90
60
ENDCHAR
STARTCHAR bilabialclick
ENCODING 664
SWIDTH 777 0
DWIDTH 9 0
BBX 7 7 1 0
BITMAP
7C
CE
86
A6
86
CE
7C
ENDCHAR
STARTCHAR eopenclosed
ENCODING 666
SWIDTH 536 0
DWIDTH 6 0
BBX 5 5 0 0
BITMAP
70
88
C8
88
F8
ENDCHAR
STARTCHAR Hsmallipa
ENCODING 668
SWIDTH 645 0
DWIDTH 6 0
BBX 4 5 1 0
BITMAP
B0
B0
F0
B0
B0
ENDCHAR
STARTCHAR kturned
ENCODING 670
SWIDTH 556 0
DWIDTH 6 0
BBX 5 7 0 -2
BITMAP
C8
68
38
38
68
08
08
ENDCHAR
STARTCHAR Lsmallipa
ENCODING 671
SWIDTH 530 0
DWIDTH 5 0
BBX 5 5 1 0
BITMAP
C0
C0
C0
C0
F8
ENDCHAR
STARTCHAR uni02A0
ENCODING 672
SWIDTH 610 0
DWIDTH 6 0
BBX 5 9 1 -2
BITMAP
18
10
70
90
90
90
70
10
10
ENDCHAR
STARTCHAR glottalstopstroke
ENCODING 673
SWIDTH 610 0
DWIDTH 6 0
BBX 4 7 1 0
BITMAP
F0
90
10
60
40
E0
40
ENDCHAR
STARTCHAR glottalstopstrokereversed
ENCODING 674
SWIDTH 610 0
DWIDTH 6 0
BBX 4 7 1 0
BITMAP
F0
90
80
60
20
70
20
ENDCHAR
STARTCHAR uni02A3
ENCODING 675
SWIDTH 1000 0
DWIDTH 10 0
BBX 9 7 0 0
BITMAP
0800
0800
7F80
8980
8B00
8E00
7F80
ENDCHAR
STARTCHAR dezh
ENCODING 676
SWIDTH 1016 0
DWIDTH 11 0
BBX 10 9 0 -2
BITMAP
0800
0800
7FC0
88C0
8980
8A40
7840
0240
01C0
ENDCHAR
STARTCHAR uni02A6
ENCODING 678
SWIDTH 787 0
DWIDTH 8 0
BBX 7 7 0 0
BITMAP
40
40
FC
56
4E
52
7E
ENDCHAR
STARTCHAR uni02A7
ENCODING 679
SWIDTH 606 0
DWIDTH 6 0
BBX 6 9 0 -2
BITMAP
1C
50
F0
50
50
50
70
10
30
ENDCHAR
STARTCHAR uni02A9
ENCODING 681
SWIDTH 835 0
DWIDTH 9 0
BBX 8 9 0 -2
BITMAP
60
40
FF
51
51
51
51
01
03
ENDCHAR
STARTCHAR uni02AA
ENCODING 682
SWIDTH 687 0
DWIDTH 7 0
BBX 5 7 1 0
BITMAP
80
80
F0
C8
B8
C8
F8
ENDCHAR
STARTCHAR uni02AB
ENCODING 683
SWIDTH 666 0
DWIDTH 7 0
BBX 5 7 1 0
BITMAP
80
80
F8
98
B0
E0
F8
ENDCHAR
STARTCHAR uni02AC
ENCODING 684
SWIDTH 443 0
DWIDTH 4 0
BBX 4 7 0 0
BITMAP
B0
F0
50
00
B0
F0
50
ENDCHAR
STARTCHAR uni02AD
ENCODING 685
SWIDTH 588 0
DWIDTH 6 0
BBX 5 7 0 0
BITMAP
F8
88
88
00
F8
88
88
ENDCHAR
STARTCHAR uni02AE
ENCODING 686
SWIDTH 610 0
DWIDTH 6 0
BBX 5 9 0 -2
BITMAP
C0
40
48
48
48
48
78
08
08
ENDCHAR
STARTCHAR uni02AF
ENCODING 687
SWIDTH 610 0
DWIDTH 6 0
BBX 6 9 0 -2
BITMAP
C0
40
48
48
48
48
78
08
0C
ENDCHAR
STARTCHAR uni02B0
ENCODING 688
SWIDTH 305 0
DWIDTH 3 0
BBX 2 3 0 4
BITMAP
C0
C0
C0
ENDCHAR
STARTCHAR uni02B1
ENCODING 689
SWIDTH 305 0
DWIDTH 3 0
BBX 2 4 0 4
BITMAP
80
C0
C0
C0
ENDCHAR
STARTCHAR uni02B2
ENCODING 690
SWIDTH 139 0
DWIDTH 1 0
BBX 1 5 0 2
BITMAP
80
80
80
80
80
ENDCHAR
STARTCHAR uni02B3
ENCODING 691
SWIDTH 194 0
DWIDTH 2 0
BBX 2 2 0 4
BITMAP
C0
80
ENDCHAR
STARTCHAR uni02B4
ENCODING 692
SWIDTH 194 0
DWIDTH 3 0
BBX 2 3 0 3
BITMAP
40
40
C0
ENDCHAR
STARTCHAR uni02B5
ENCODING 693
SWIDTH 235 0
DWIDTH 3 0
BBX 2 4 0 2
BITMAP
40
40
C0
40
ENDCHAR
STARTCHAR Rsmallinvertedsuperior
ENCODING 694
SWIDTH 378 0
DWIDTH 4 0
BBX 3 3 0 4
BITMAP
A0
E0
E0
ENDCHAR
STARTCHAR uni02B7
ENCODING 695
SWIDTH 389 0
DWIDTH 4 0
BBX 4 2 0 4
BITMAP
D0
60
ENDCHAR
STARTCHAR uni02B8
ENCODING 696
SWIDTH 278 0
DWIDTH 3 0
BBX 3 4 0 2
BITMAP
A0
C0
40
C0
ENDCHAR
STARTCHAR primemod
ENCODING 697
SWIDTH 333 0
DWIDTH 3 0
BBX 2 3 1 4
BITMAP
40
C0
80
ENDCHAR
STARTCHAR dblprimemod
ENCODING 698
SWIDTH 610 0
DWIDTH 6 0
BBX 5 3 1 4
BITMAP
58
D0
B0
ENDCHAR
STARTCHAR commaturnedmod
ENCODING 699
SWIDTH 277 0
DWIDTH 3 0
BBX 1 2 1 5
BITMAP
80
80
ENDCHAR
STARTCHAR apostrophemod
ENCODING 700
SWIDTH 277 0
DWIDTH 3 0
BBX 1 3 1 4
BITMAP
80
80
80
ENDCHAR
STARTCHAR afii64937
ENCODING 701
SWIDTH 277 0
DWIDTH 3 0
BBX 1 3 1 4
BITMAP
80
80
80
ENDCHAR
STARTCHAR uni02BE
ENCODING 702
SWIDTH 205 0
DWIDTH 3 0
BBX 1 2 1 6
BITMAP
80
80
ENDCHAR
STARTCHAR uni02BF
ENCODING 703
SWIDTH 205 0
DWIDTH 2 0
BBX 1 2 0 6
BITMAP
80
80
ENDCHAR
STARTCHAR uni02C0
ENCODING 704
SWIDTH 305 0
DWIDTH 4 0
BBX 2 3 1 4
BITMAP
C0
40
40
ENDCHAR
STARTCHAR uni02C1
ENCODING 705
SWIDTH 305 0
DWIDTH 4 0
BBX 2 3 1 4
BITMAP
C0
80
40
ENDCHAR
STARTCHAR uni02C2
ENCODING 706
SWIDTH 291 0
DWIDTH 3 0
BBX 3 3 0 3
BITMAP
20
C0
60
ENDCHAR
STARTCHAR uni02C3
ENCODING 707
SWIDTH 291 0
DWIDTH 3 0
BBX 3 3 0 3
BITMAP
80
60
C0
ENDCHAR
STARTCHAR uni02C4
ENCODING 708
SWIDTH 291 0
DWIDTH 3 0
BBX 3 3 0 3
BITMAP
40
C0
A0
ENDCHAR
STARTCHAR uni02C5
ENCODING 709
SWIDTH 291 0
DWIDTH 3 0
BBX 3 3 0 3
BITMAP
A0
C0
40
ENDCHAR
STARTCHAR circumflex
ENCODING 710
SWIDTH 333 0
DWIDTH 4 0
BBX 4 2 0 6
BITMAP
60
90
ENDCHAR
STARTCHAR caron
ENCODING 711
SWIDTH 333 0
DWIDTH 4 0
BBX 3 2 0 6
BITMAP
A0
40
ENDCHAR
STARTCHAR uni02C8
ENCODING 712
SWIDTH 333 0
DWIDTH 3 0
BBX 1 2 1 5
BITMAP
80
80
ENDCHAR
STARTCHAR uni02C9
ENCODING 713
SWIDTH 333 0
DWIDTH 3 0
BBX 3 1 0 6
BITMAP
E0
ENDCHAR
STARTCHAR uni02CA
ENCODING 714
SWIDTH 333 0
DWIDTH 3 0
BBX 2 1 1 6
BITMAP
C0
ENDCHAR
STARTCHAR uni02CB
ENCODING 715
SWIDTH 333 0
DWIDTH 3 0
BBX 3 1 0 6
BITMAP
E0
ENDCHAR
STARTCHAR uni02CC
ENCODING 716
SWIDTH 333 0
DWIDTH 3 0
BBX 1 2 1 -2
BITMAP
80
80
ENDCHAR
STARTCHAR uni02CD
ENCODING 717
SWIDTH 333 0
DWIDTH 3 0
BBX 3 1 0 -2
BITMAP
E0
ENDCHAR
STARTCHAR uni02CE
ENCODING 718
SWIDTH 333 0
DWIDTH 3 0
BBX 3 1 0 -2
BITMAP
E0
ENDCHAR
STARTCHAR uni02CF
ENCODING 719
SWIDTH 333 0
DWIDTH 3 0
BBX 2 1 1 -2
BITMAP
C0
ENDCHAR
STARTCHAR colontriangularmod
ENCODING 720
SWIDTH 207 0
DWIDTH 3 0
BBX 2 5 0 0
BITMAP
C0
80
00
80
C0
ENDCHAR
STARTCHAR colontriangularhalfmod
ENCODING 721
SWIDTH 207 0
DWIDTH 2 0
BBX 2 2 0 2
BITMAP
C0
40
ENDCHAR
STARTCHAR uni02D2
ENCODING 722
SWIDTH 205 0
DWIDTH 3 0
BBX 1 2 1 2
BITMAP
80
80
ENDCHAR
STARTCHAR uni02D3
ENCODING 723
SWIDTH 205 0
DWIDTH 2 0
BBX 1 2 0 2
BITMAP
80
80
ENDCHAR
STARTCHAR uni02D4
ENCODING 724
SWIDTH 291 0
DWIDTH 3 0
BBX 3 3 0 0
BITMAP
40
40
E0
ENDCHAR
STARTCHAR uni02D5
ENCODING 725
SWIDTH 291 0
DWIDTH 3 0
BBX 3 3 0 0
BITMAP
E0
40
40
ENDCHAR
STARTCHAR uni02D6
ENCODING 726
SWIDTH 291 0
DWIDTH 3 0
BBX 3 3 0 0
BITMAP
40
E0
40
ENDCHAR
STARTCHAR uni02D7
ENCODING 727
SWIDTH 333 0
DWIDTH 3 0
BBX 3 1 0 2
BITMAP
E0
ENDCHAR
STARTCHAR breve
ENCODING 728
SWIDTH 333 0
DWIDTH 4 0
BBX 4 2 0 6
BITMAP
90
F0
ENDCHAR
STARTCHAR dotaccent
ENCODING 729
SWIDTH 333 0
DWIDTH 3 0
BBX 1 1 1 6
BITMAP
80
ENDCHAR
STARTCHAR ring
ENCODING 730
SWIDTH 333 0
DWIDTH 3 0
BBX 2 2 1 6
BITMAP
C0
C0
ENDCHAR
STARTCHAR ogonek
ENCODING 731
SWIDTH 333 0
DWIDTH 3 0
BBX 2 3 1 -3
BITMAP
40
80
C0
ENDCHAR
STARTCHAR tilde
ENCODING 732
SWIDTH 333 0
DWIDTH 4 0
BBX 4 1 0 6
BITMAP
F0
ENDCHAR
STARTCHAR hungarumlaut
ENCODING 733
SWIDTH 333 0
DWIDTH 3 0
BBX 4 1 0 6
BITMAP
F0
ENDCHAR
STARTCHAR rhotichookmod
ENCODING 734
SWIDTH 413 0
DWIDTH 4 0
BBX 4 3 0 1
BITMAP
40
D0
20
ENDCHAR
STARTCHAR uni02DF
ENCODING 735
SWIDTH 291 0
DWIDTH 3 0
BBX 3 2 0 4
BITMAP
A0
E0
ENDCHAR
STARTCHAR uni02E0
ENCODING 736
SWIDTH 277 0
DWIDTH 3 0
BBX 3 3 0 3
BITMAP
A0
40
40
ENDCHAR
STARTCHAR uni02E1
ENCODING 737
SWIDTH 138 0
DWIDTH 1 0
BBX 1 3 0 4
BITMAP
80
80
80
ENDCHAR
STARTCHAR uni02E2
ENCODING 738
SWIDTH 277 0
DWIDTH 3 0
BBX 2 4 0 3
BITMAP
C0
80
40
C0
ENDCHAR
STARTCHAR uni02E3
ENCODING 739
SWIDTH 277 0
DWIDTH 3 0
BBX 3 2 0 4
BITMAP
E0
E0
ENDCHAR
STARTCHAR uni02E4
ENCODING 740
SWIDTH 305 0
DWIDTH 4 0
BBX 2 3 1 4
BITMAP
C0
80
40
ENDCHAR
STARTCHAR tonebarextrahighmod
ENCODING 741
SWIDTH 474 0
DWIDTH 5 0
BBX 4 7 0 0
BITMAP
F0
10
10
10
10
10
10
ENDCHAR
STARTCHAR tonebarhighmod
ENCODING 742
SWIDTH 470 0
DWIDTH 5 0
BBX 4 7 0 0
BITMAP
10
F0
10
10
10
10
10
ENDCHAR
STARTCHAR tonebarmidmod
ENCODING 743
SWIDTH 470 0
DWIDTH 5 0
BBX 4 7 0 0
BITMAP
10
10
10
F0
10
10
10
ENDCHAR
STARTCHAR tonebarlowmod
ENCODING 744
SWIDTH 470 0
DWIDTH 5 0
BBX 4 7 0 0
BITMAP
10
10
10
10
F0
10
10
ENDCHAR
STARTCHAR tonebarextralowmod
ENCODING 745
SWIDTH 474 0
DWIDTH 5 0
BBX 4 7 0 0
BITMAP
10
10
10
10
10
10
F0
ENDCHAR
STARTCHAR uni02EA
ENCODING 746
SWIDTH 295 0
DWIDTH 3 0
BBX 3 5 0 0
BITMAP
80
80
80
80
E0
ENDCHAR
STARTCHAR uni02EB
ENCODING 747
SWIDTH 295 0
DWIDTH 3 0
BBX 3 5 0 0
BITMAP
80
80
E0
80
80
ENDCHAR
STARTCHAR uni02EC
ENCODING 748
SWIDTH 333 0
DWIDTH 3 0
BBX 3 2 0 -2
BITMAP
A0
60
ENDCHAR
STARTCHAR uni02ED
ENCODING 749
SWIDTH 333 0
DWIDTH 3 0
BBX 3 2 0 5
BITMAP
E0
E0
ENDCHAR
STARTCHAR uni02EE
ENCODING 750
SWIDTH 500 0
DWIDTH 4 0
BBX 3 2 1 5
BITMAP
A0
A0
ENDCHAR
STARTCHAR uni02EF
ENCODING 751
SWIDTH 291 0
DWIDTH 3 0
BBX 3 2 0 -2
BITMAP
A0
40
ENDCHAR
STARTCHAR uni02F0
ENCODING 752
SWIDTH 291 0
DWIDTH 3 0
BBX 3 2 0 -2
BITMAP
40
A0
ENDCHAR
STARTCHAR uni02F1
ENCODING 753
SWIDTH 291 0
DWIDTH 3 0
BBX 3 2 0 -2
BITMAP
60
E0
ENDCHAR
STARTCHAR uni02F2
ENCODING 754
SWIDTH 291 0
DWIDTH 3 0
BBX 3 2 0 -2
BITMAP
C0
E0
ENDCHAR
STARTCHAR uni02F3
ENCODING 755
SWIDTH 333 0
DWIDTH 3 0
BBX 1 2 1 -2
BITMAP
80
80
ENDCHAR
STARTCHAR uni02F4
ENCODING 756
SWIDTH 333 0
DWIDTH 3 0
BBX 3 1 0 3
BITMAP
E0
ENDCHAR
STARTCHAR uni02F5
ENCODING 757
SWIDTH 333 0
DWIDTH 3 0
BBX 4 1 0 3
BITMAP
F0
ENDCHAR
STARTCHAR uni02F6
ENCODING 758
SWIDTH 333 0
DWIDTH 3 0
BBX 4 1 0 3
BITMAP
F0
ENDCHAR
STARTCHAR uni02F7
ENCODING 759
SWIDTH 333 0
DWIDTH 3 0
BBX 4 1 0 0
BITMAP
F0
ENDCHAR
STARTCHAR uni02F8
ENCODING 760
SWIDTH 333 0
DWIDTH 3 0
BBX 1 5 1 2
BITMAP
80
00
00
00
80
ENDCHAR
STARTCHAR uni02F9
ENCODING 761
SWIDTH 333 0
DWIDTH 3 0
BBX 2 3 1 4
BITMAP
C0
80
80
ENDCHAR
STARTCHAR uni02FA
ENCODING 762
SWIDTH 333 0
DWIDTH 3 0
BBX 2 3 1 4
BITMAP
C0
40
40
ENDCHAR
STARTCHAR uni02FB
ENCODING 763
SWIDTH 333 0
DWIDTH 3 0
BBX 2 3 1 0
BITMAP
80
80
C0
ENDCHAR
STARTCHAR uni02FC
ENCODING 764
SWIDTH 333 0
DWIDTH 3 0
BBX 2 3 1 0
BITMAP
40
40
C0
ENDCHAR
STARTCHAR uni02FD
ENCODING 765
SWIDTH 333 0
DWIDTH 5 0
BBX 4 1 0 0
BITMAP
F0
ENDCHAR
STARTCHAR uni02FE
ENCODING 766
SWIDTH 333 0
DWIDTH 3 0
BBX 3 1 0 0
BITMAP
E0
ENDCHAR
STARTCHAR uni02FF
ENCODING 767
SWIDTH 594 0
DWIDTH 6 0
BBX 6 2 0 0
BITMAP
FC
20
ENDCHAR
STARTCHAR gravecmb
ENCODING 768
SWIDTH 0 0
DWIDTH 0 0
BBX 2 1 -4 6
BITMAP
C0
ENDCHAR
STARTCHAR acutecmb
ENCODING 769
SWIDTH 0 0
DWIDTH 0 0
BBX 2 1 -4 6
BITMAP
C0
ENDCHAR
STARTCHAR circumflexcmb
ENCODING 770
SWIDTH 0 0
DWIDTH 0 0
BBX 4 2 -5 6
BITMAP
60
F0
ENDCHAR
STARTCHAR tildecmb
ENCODING 771
SWIDTH 0 0
DWIDTH 0 0
BBX 4 1 -5 6
BITMAP
F0
ENDCHAR
STARTCHAR macroncmb
ENCODING 772
SWIDTH 0 0
DWIDTH 0 0
BBX 4 1 -5 6
BITMAP
F0
ENDCHAR
STARTCHAR overlinecmb
ENCODING 773
SWIDTH 0 0
DWIDTH 0 0
BBX 4 1 -5 6
BITMAP
F0
ENDCHAR
STARTCHAR brevecmb
ENCODING 774
SWIDTH 0 0
DWIDTH 0 0
BBX 4 1 -5 6
BITMAP
F0
ENDCHAR
STARTCHAR dotaccentcmb
ENCODING 775
SWIDTH 0 0
DWIDTH 0 0
BBX 1 1 -4 6
BITMAP
80
ENDCHAR
STARTCHAR dieresiscmb
ENCODING 776
SWIDTH 0 0
DWIDTH 0 0
BBX 3 1 -5 6
BITMAP
A0
ENDCHAR
STARTCHAR hookcmb
ENCODING 777
SWIDTH 0 0
DWIDTH 0 0
BBX 2 2 -4 6
BITMAP
C0
80
ENDCHAR
STARTCHAR ringcmb
ENCODING 778
SWIDTH 0 0
DWIDTH 0 0
BBX 3 2 -4 6
BITMAP
E0
E0
ENDCHAR
STARTCHAR hungarumlautcmb
ENCODING 779
SWIDTH 0 0
DWIDTH 0 0
BBX 4 1 -5 6
BITMAP
F0
ENDCHAR
STARTCHAR caroncmb
ENCODING 780
SWIDTH 0 0
DWIDTH 0 0
BBX 4 2 -5 6
BITMAP
F0
60
ENDCHAR
STARTCHAR verticallineabovecmb
ENCODING 781
SWIDTH 0 0
DWIDTH 0 0
BBX 1 2 -4 5
BITMAP
80
80
ENDCHAR
STARTCHAR dblverticallineabovecmb
ENCODING 782
SWIDTH 0 0
DWIDTH 0 0
BBX 2 2 -4 5
BITMAP
C0
C0
ENDCHAR
STARTCHAR dblgravecmb
ENCODING 783
SWIDTH 0 0
DWIDTH 0 0
BBX 4 1 -5 6
BITMAP
F0
ENDCHAR
STARTCHAR candrabinducmb
ENCODING 784
SWIDTH 0 0
DWIDTH 0 0
BBX 4 3 -5 6
BITMAP
40
00
F0
ENDCHAR
STARTCHAR breveinvertedcmb
ENCODING 785
SWIDTH 0 0
DWIDTH 0 0
BBX 4 1 -5 6
BITMAP
F0
ENDCHAR
STARTCHAR commaturnedabovecmb
ENCODING 786
SWIDTH 0 0
DWIDTH 0 0
BBX 1 2 -4 5
BITMAP
80
80
ENDCHAR
STARTCHAR commaabovecmb
ENCODING 787
SWIDTH 0 0
DWIDTH 0 0
BBX 1 3 -4 4
BITMAP
80
80
80
ENDCHAR
STARTCHAR commareversedabovecmb
ENCODING 788
SWIDTH 0 0
DWIDTH 0 0
BBX 1 2 -4 5
BITMAP
80
80
ENDCHAR
STARTCHAR commaaboverightcmb
ENCODING 789
SWIDTH 0 0
DWIDTH 0 0
BBX 1 3 -4 4
BITMAP
80
80
80
ENDCHAR
STARTCHAR gravebelowcmb
ENCODING 790
SWIDTH 0 0
DWIDTH 0 0
BBX 2 1 -4 -2
BITMAP
C0
ENDCHAR
STARTCHAR acutebelowcmb
ENCODING 791
SWIDTH 0 0
DWIDTH 0 0
BBX 2 1 -4 -2
BITMAP
C0
ENDCHAR
STARTCHAR lefttackbelowcmb
ENCODING 792
SWIDTH 0 0
DWIDTH 0 0
BBX 3 3 -5 -3
BITMAP
20
E0
20
ENDCHAR
STARTCHAR righttackbelowcmb
ENCODING 793
SWIDTH 0 0
DWIDTH 0 0
BBX 3 3 -5 -3
BITMAP
80
E0
80
ENDCHAR
STARTCHAR uni031A
ENCODING 794
SWIDTH 0 0
DWIDTH 0 0
BBX 3 2 -5 5
BITMAP
E0
20
ENDCHAR
STARTCHAR horncmb
ENCODING 795
SWIDTH 0 0
DWIDTH 0 0
BBX 4 2 -5 4
BITMAP
20
F0
ENDCHAR
STARTCHAR ringhalfleftbelowcmb
ENCODING 796
SWIDTH 0 0
DWIDTH 0 0
BBX 1 2 -4 -2
BITMAP
80
80
ENDCHAR
STARTCHAR uptackbelowcmb
ENCODING 797
SWIDTH 0 0
DWIDTH 0 0
BBX 3 3 -5 -3
BITMAP
40
40
E0
ENDCHAR
STARTCHAR downtackbelowcmb
ENCODING 798
SWIDTH 0 0
DWIDTH 0 0
BBX 3 3 -5 -3
BITMAP
E0
40
40
ENDCHAR
STARTCHAR plusbelowcmb
ENCODING 799
SWIDTH 0 0
DWIDTH 0 0
BBX 3 3 -5 -3
BITMAP
40
E0
40
ENDCHAR
STARTCHAR minusbelowcmb
ENCODING 800
SWIDTH 0 0
DWIDTH 0 0
BBX 4 1 -5 -2
BITMAP
F0
ENDCHAR
STARTCHAR uni0321
ENCODING 801
SWIDTH 0 0
DWIDTH 0 0
BBX 1 2 -3 -2
BITMAP
80
80
ENDCHAR
STARTCHAR uni0322
ENCODING 802
SWIDTH 0 0
DWIDTH 0 0
BBX 1 2 -4 -2
BITMAP
80
80
ENDCHAR
STARTCHAR dotbelowcmb
ENCODING 803
SWIDTH 0 0
DWIDTH 0 0
BBX 1 1 -4 -2
BITMAP
80
ENDCHAR
STARTCHAR dieresisbelowcmb
ENCODING 804
SWIDTH 0 0
DWIDTH 0 0
BBX 3 1 -5 -2
BITMAP
A0
ENDCHAR
STARTCHAR ringbelowcmb
ENCODING 805
SWIDTH 0 0
DWIDTH 0 0
BBX 3 2 -4 -2
BITMAP
E0
E0
ENDCHAR
STARTCHAR commaaccent
ENCODING 806
SWIDTH 0 0
DWIDTH 0 0
BBX 1 2 -4 -3
BITMAP
80
80
ENDCHAR
STARTCHAR cedillacmb
ENCODING 807
SWIDTH 0 0
DWIDTH 0 0
BBX 2 3 -4 -3
BITMAP
C0
40
C0
ENDCHAR
STARTCHAR ogonekcmb
ENCODING 808
SWIDTH 0 0
DWIDTH 0 0
BBX 2 2 -4 -2
BITMAP
C0
C0
ENDCHAR
STARTCHAR verticallinebelowcmb
ENCODING 809
SWIDTH 0 0
DWIDTH 0 0
BBX 1 2 -4 -2
BITMAP
80
80
ENDCHAR
STARTCHAR uni032A
ENCODING 810
SWIDTH 0 0
DWIDTH 0 0
BBX 4 1 -5 -1
BITMAP
F0
ENDCHAR
STARTCHAR dblarchinvertedbelowcmb
ENCODING 811
SWIDTH 0 0
DWIDTH 0 0
BBX 6 1 -6 -2
BITMAP
FC
ENDCHAR
STARTCHAR caronbelowcmb
ENCODING 812
SWIDTH 0 0
DWIDTH 0 0
BBX 4 2 -5 -2
BITMAP
F0
60
ENDCHAR
STARTCHAR circumflexbelowcmb
ENCODING 813
SWIDTH 0 0
DWIDTH 0 0
BBX 4 2 -5 -2
BITMAP
60
F0
ENDCHAR
STARTCHAR brevebelowcmb
ENCODING 814
SWIDTH 0 0
DWIDTH 0 0
BBX 4 1 -5 -2
BITMAP
F0
ENDCHAR
STARTCHAR breveinvertedbelowcmb
ENCODING 815
SWIDTH 0 0
DWIDTH 0 0
BBX 4 1 -5 -2
BITMAP
F0
ENDCHAR
STARTCHAR tildebelowcmb
ENCODING 816
SWIDTH 0 0
DWIDTH 0 0
BBX 4 1 -5 -1
BITMAP
F0
ENDCHAR
STARTCHAR macronbelowcmb
ENCODING 817
SWIDTH 0 0
DWIDTH 0 0
BBX 3 1 -5 -2
BITMAP
E0
ENDCHAR
STARTCHAR lowlinecmb
ENCODING 818
SWIDTH 0 0
DWIDTH 0 0
BBX 4 1 -5 -2
BITMAP
F0
ENDCHAR
STARTCHAR dbllowlinecmb
ENCODING 819
SWIDTH 0 0
DWIDTH 0 0
BBX 4 2 -5 -3
BITMAP
F0
F0
ENDCHAR
STARTCHAR tildeoverlaycmb
ENCODING 820
SWIDTH 0 0
DWIDTH 0 0
BBX 4 1 -5 2
BITMAP
F0
ENDCHAR
STARTCHAR strokeshortoverlaycmb
ENCODING 821
SWIDTH 0 0
DWIDTH 0 0
BBX 4 1 -5 2
BITMAP
F0
ENDCHAR
STARTCHAR strokelongoverlaycmb
ENCODING 822
SWIDTH 0 0
DWIDTH 0 0
BBX 4 1 -5 2
BITMAP
F0
ENDCHAR
STARTCHAR solidusshortoverlaycmb
ENCODING 823
SWIDTH 0 0
DWIDTH 0 0
BBX 4 3 -5 2
BITMAP
30
60
C0
ENDCHAR
STARTCHAR soliduslongoverlaycmb
ENCODING 824
SWIDTH 0 0
DWIDTH 0 0
BBX 4 7 -5 0
BITMAP
10
20
20
60
40
40
80
ENDCHAR
STARTCHAR ringhalfrightbelowcmb
ENCODING 825
SWIDTH 0 0
DWIDTH 0 0
BBX 1 2 -4 -2
BITMAP
80
80
ENDCHAR
STARTCHAR uni033A
ENCODING 826
SWIDTH 0 0
DWIDTH 0 0
BBX 4 1 -5 -1
BITMAP
F0
ENDCHAR
STARTCHAR squarebelowcmb
ENCODING 827
SWIDTH 0 0
DWIDTH 0 0
BBX 3 3 -4 -3
BITMAP
E0
A0
E0
ENDCHAR
STARTCHAR seagullbelowcmb
ENCODING 828
SWIDTH 0 0
DWIDTH 0 0
BBX 5 1 -6 -2
BITMAP
F8
ENDCHAR
STARTCHAR uni033D
ENCODING 829
SWIDTH 0 0
DWIDTH 0 0
BBX 2 2 -4 6
BITMAP
C0
C0
ENDCHAR
STARTCHAR tildeverticalcmb
ENCODING 830
SWIDTH 0 0
DWIDTH 0 0
BBX 1 4 -4 5
BITMAP
80
80
80
80
ENDCHAR
STARTCHAR dbloverlinecmb
ENCODING 831
SWIDTH 0 0
DWIDTH 0 0
BBX 4 2 -5 5
BITMAP
F0
F0
ENDCHAR
STARTCHAR gravetonecmb
ENCODING 832
SWIDTH 0 0
DWIDTH 0 0
BBX 2 1 -4 6
BITMAP
C0
ENDCHAR
STARTCHAR acutetonecmb
ENCODING 833
SWIDTH 0 0
DWIDTH 0 0
BBX 2 1 -4 6
BITMAP
C0
ENDCHAR
STARTCHAR perispomenigreekcmb
ENCODING 834
SWIDTH 0 0
DWIDTH 0 0
BBX 4 1 -5 6
BITMAP
F0
ENDCHAR
STARTCHAR koroniscmb
ENCODING 835
SWIDTH 0 0
DWIDTH 0 0
BBX 1 3 -4 4
BITMAP
80
80
80
ENDCHAR
STARTCHAR dialytikatonoscmb
ENCODING 836
SWIDTH 0 0
DWIDTH 0 0
BBX 4 1 -5 6
BITMAP
F0
ENDCHAR
STARTCHAR ypogegrammenigreekcmb
ENCODING 837
SWIDTH 0 0
DWIDTH 0 0
BBX 1 2 -4 -3
BITMAP
80
80
ENDCHAR
STARTCHAR uni0346
ENCODING 838
SWIDTH 0 0
DWIDTH 0 0
BBX 4 1 -5 7
BITMAP
F0
ENDCHAR
STARTCHAR uni0347
ENCODING 839
SWIDTH 0 0
DWIDTH 0 0
BBX 3 2 -5 -3
BITMAP
E0
E0
ENDCHAR
STARTCHAR uni0348
ENCODING 840
SWIDTH 0 0
DWIDTH 0 0
BBX 2 2 -4 -2
BITMAP
C0
C0
ENDCHAR
STARTCHAR uni0349
ENCODING 841
SWIDTH 0 0
DWIDTH 0 0
BBX 1 1 -4 -1
BITMAP
80
ENDCHAR
STARTCHAR uni034A
ENCODING 842
SWIDTH 0 0
DWIDTH 0 0
BBX 3 2 -5 6
BITMAP
20
A0
ENDCHAR
STARTCHAR uni034B
ENCODING 843
SWIDTH 0 0
DWIDTH 0 0
BBX 3 3 -4 6
BITMAP
40
A0
80
ENDCHAR
STARTCHAR uni034C
ENCODING 844
SWIDTH 0 0
DWIDTH 0 0
BBX 2 2 -4 6
BITMAP
C0
C0
ENDCHAR
STARTCHAR uni034D
ENCODING 845
SWIDTH 0 0
DWIDTH 0 0
BBX 8 2 -7 -2
BITMAP
44
FF
ENDCHAR
STARTCHAR uni034E
ENCODING 846
SWIDTH 0 0
DWIDTH 0 0
BBX 3 3 -5 -3
BITMAP
40
E0
40
ENDCHAR
STARTCHAR combininggraphemejoiner
ENCODING 847
SWIDTH 0 0
DWIDTH 0 0
BBX 1 1 0 0
BITMAP
00
ENDCHAR
STARTCHAR uni0350
ENCODING 848
SWIDTH 0 0
DWIDTH 0 0
BBX 2 3 -4 3
BITMAP
80
40
80
ENDCHAR
STARTCHAR uni0351
ENCODING 849
SWIDTH 0 0
DWIDTH 0 0
BBX 1 2 -4 6
BITMAP
80
80
ENDCHAR
STARTCHAR uni0352
ENCODING 850
SWIDTH 0 0
DWIDTH 0 0
BBX 4 3 -5 6
BITMAP
E0
10
40
ENDCHAR
STARTCHAR uni0353
ENCODING 851
SWIDTH 0 0
DWIDTH 0 0
BBX 2 2 -4 -2
BITMAP
C0
C0
ENDCHAR
STARTCHAR uni0354
ENCODING 852
SWIDTH 0 0
DWIDTH 0 0
BBX 2 2 -4 -2
BITMAP
40
C0
ENDCHAR
STARTCHAR uni0355
ENCODING 853
SWIDTH 0 0
DWIDTH 0 0
BBX 2 2 -4 -2
BITMAP
80
C0
ENDCHAR
STARTCHAR uni0356
ENCODING 854
SWIDTH 0 0
DWIDTH 0 0
BBX 6 2 -6 -2
BITMAP
C8
FC
ENDCHAR
STARTCHAR uni0357
ENCODING 855
SWIDTH 0 0
DWIDTH 0 0
BBX 1 2 -4 6
BITMAP
80
80
ENDCHAR
STARTCHAR uni0358
ENCODING 856
SWIDTH 0 0
DWIDTH 0 0
BBX 1 1 -2 6
BITMAP
80
ENDCHAR
STARTCHAR uni0359
ENCODING 857
SWIDTH 0 0
DWIDTH 0 0
BBX 3 3 -4 -3
BITMAP
40
E0
A0
ENDCHAR
STARTCHAR uni035A
ENCODING 858
SWIDTH 0 0
DWIDTH 0 0
BBX 4 3 -5 -2
BITMAP
F0
D0
F0
ENDCHAR
STARTCHAR uni035B
ENCODING 859
SWIDTH 0 0
DWIDTH 0 0
BBX 3 3 -5 6
BITMAP
40
60
A0
ENDCHAR
STARTCHAR uni035C
ENCODING 860
SWIDTH 0 0
DWIDTH 0 0
BBX 10 3 -8 -3
BITMAP
8040
4180
3E00
ENDCHAR
STARTCHAR uni035D
ENCODING 861
SWIDTH 0 0
DWIDTH 0 0
BBX 10 3 -8 5
BITMAP
8040
4180
3E00
ENDCHAR
STARTCHAR uni035E
ENCODING 862
SWIDTH 0 0
DWIDTH 0 0
BBX 10 1 -8 6
BITMAP
FFC0
ENDCHAR
STARTCHAR uni035F
ENCODING 863
SWIDTH 0 0
DWIDTH 0 0
BBX 10 1 -8 -2
BITMAP
FFC0
ENDCHAR
STARTCHAR tildedoublecmb
ENCODING 864
SWIDTH 0 0
DWIDTH 0 0
BBX 11 3 -9 5
BITMAP
0060
7FE0
8100
ENDCHAR
STARTCHAR breveinverteddoublecmb
ENCODING 865
SWIDTH 0 0
DWIDTH 0 0
BBX 10 3 -8 5
BITMAP
1E00
6180
8040
ENDCHAR
STARTCHAR uni0362
ENCODING 866
SWIDTH 0 0
DWIDTH 0 0
BBX 14 2 -10 0
BITMAP
FFFC
0010
ENDCHAR
STARTCHAR uni0363
ENCODING 867
SWIDTH 0 0
DWIDTH 0 0
BBX 2 3 -4 5
BITMAP
C0
40
C0
ENDCHAR
STARTCHAR uni0364
ENCODING 868
SWIDTH 0 0
DWIDTH 0 0
BBX 2 3 -4 5
BITMAP
C0
C0
C0
ENDCHAR
STARTCHAR uni0365
ENCODING 869
SWIDTH 0 0
DWIDTH 0 0
BBX 1 4 -4 5
BITMAP
80
80
80
80
ENDCHAR
STARTCHAR uni0366
ENCODING 870
SWIDTH 0 0
DWIDTH 0 0
BBX 3 3 -4 5
BITMAP
E0
A0
E0
ENDCHAR
STARTCHAR uni0367
ENCODING 871
SWIDTH 0 0
DWIDTH 0 0
BBX 2 3 -4 5
BITMAP
C0
C0
C0
ENDCHAR
STARTCHAR uni0368
ENCODING 872
SWIDTH 0 0
DWIDTH 0 0
BBX 2 3 -4 5
BITMAP
C0
80
C0
ENDCHAR
STARTCHAR uni0369
ENCODING 873
SWIDTH 0 0
DWIDTH 0 0
BBX 3 3 -4 5
BITMAP
E0
A0
E0
ENDCHAR
STARTCHAR uni036A
ENCODING 874
SWIDTH 0 0
DWIDTH 0 0
BBX 2 3 -4 5
BITMAP
C0
C0
C0
ENDCHAR
STARTCHAR uni036B
ENCODING 875
SWIDTH 0 0
DWIDTH 0 0
BBX 4 3 -5 5
BITMAP
F0
D0
D0
ENDCHAR
STARTCHAR uni036C
ENCODING 876
SWIDTH 0 0
DWIDTH 0 0
BBX 2 3 -4 5
BITMAP
C0
80
80
ENDCHAR
STARTCHAR uni036D
ENCODING 877
SWIDTH 0 0
DWIDTH 0 0
BBX 1 3 -4 5
BITMAP
80
80
80
ENDCHAR
STARTCHAR uni036E
ENCODING 878
SWIDTH 0 0
DWIDTH 0 0
BBX 2 3 -4 5
BITMAP
C0
C0
80
ENDCHAR
STARTCHAR uni036F
ENCODING 879
SWIDTH 0 0
DWIDTH 0 0
BBX 2 3 -4 5
BITMAP
C0
80
C0
ENDCHAR
STARTCHAR numeralsigngreek
ENCODING 884
SWIDTH 333 0
DWIDTH 3 0
BBX 2 3 1 4
BITMAP
40
C0
80
ENDCHAR
STARTCHAR numeralsignlowergreek
ENCODING 885
SWIDTH 333 0
DWIDTH 3 0
BBX 2 3 1 -3
BITMAP
40
40
C0
ENDCHAR
STARTCHAR ypogegrammeni
ENCODING 890
SWIDTH 139 0
DWIDTH 1 0
BBX 1 2 0 -3
BITMAP
80
80
ENDCHAR
STARTCHAR uni037B
ENCODING 891
SWIDTH 556 0
DWIDTH 6 0
BBX 4 5 1 0
BITMAP
F0
90
10
90
70
ENDCHAR
STARTCHAR uni037C
ENCODING 892
SWIDTH 556 0
DWIDTH 6 0
BBX 4 5 0 0
BITMAP
F0
90
A0
90
E0
ENDCHAR
STARTCHAR uni037D
ENCODING 893
SWIDTH 556 0
DWIDTH 6 0
BBX 4 5 1 0
BITMAP
F0
90
50
90
70
ENDCHAR
STARTCHAR questiongreek
ENCODING 894
SWIDTH 333 0
DWIDTH 4 0
BBX 2 7 1 -2
BITMAP
C0
00
00
00
C0
40
C0
ENDCHAR
STARTCHAR tonos
ENCODING 900
SWIDTH 266 0
DWIDTH 3 0
BBX 2 2 1 4
BITMAP
C0
80
ENDCHAR
STARTCHAR uni0385
ENCODING 901
SWIDTH 395 0
DWIDTH 4 0
BBX 3 3 0 5
BITMAP
20
40
A0
ENDCHAR
STARTCHAR Alphatonos
ENCODING 902
SWIDTH 850 0
DWIDTH 9 0
BBX 7 7 1 0
BITMAP
D8
B8
2C
2C
7C
46
C6
ENDCHAR
STARTCHAR anoteleia
ENCODING 903
SWIDTH 277 0
DWIDTH 3 0
BBX 1 2 1 2
BITMAP
80
80
ENDCHAR
STARTCHAR Epsilontonos
ENCODING 904
SWIDTH 939 0
DWIDTH 9 0
BBX 8 7 1 0
BITMAP
DF
98
18
1F
18
18
1F
ENDCHAR
STARTCHAR Etatonos
ENCODING 905
SWIDTH 973 0
DWIDTH 10 0
BBX 8 7 1 0
BITMAP
DB
9B
1B
1F
1B
1B
1B
ENDCHAR
STARTCHAR Iotatonos
ENCODING 906
SWIDTH 540 0
DWIDTH 5 0
BBX 4 7 1 0
BITMAP
F0
B0
30
30
30
30
30
ENDCHAR
STARTCHAR Omicrontonos
ENCODING 908
SWIDTH 978 0
DWIDTH 10 0
BBX 9 7 0 0
BITMAP
4F00
5900
9980
1980
1980
1900
0F00
ENDCHAR
STARTCHAR Upsilontonos
ENCODING 910
SWIDTH 932 0
DWIDTH 9 0
BBX 8 7 1 0
BITMAP
E3
B6
36
1C
1C
1C
1C
ENDCHAR
STARTCHAR Omegatonos
ENCODING 911
SWIDTH 1032 0
DWIDTH 10 0
BBX 9 7 1 0
BITMAP
CF00
9180
2080
2080
2080
1080
3180
ENDCHAR
STARTCHAR iotadieresistonos
ENCODING 912
SWIDTH 277 0
DWIDTH 3 0
BBX 3 9 0 0
BITMAP
40
40
A0
00
40
40
40
40
40
ENDCHAR
STARTCHAR Alpha
ENCODING 913
SWIDTH 722 0
DWIDTH 7 0
BBX 7 7 0 0
BITMAP
18
38
28
2C
7C
44
C6
ENDCHAR
STARTCHAR Beta
ENCODING 914
SWIDTH 722 0
DWIDTH 8 0
BBX 6 7 1 0
BITMAP
F8
C8
C8
F8
CC
CC
F8
ENDCHAR
STARTCHAR Gamma
ENCODING 915
SWIDTH 610 0
DWIDTH 6 0
BBX 5 7 1 0
BITMAP
F8
C0
C0
C0
C0
C0
C0
ENDCHAR
STARTCHAR Deltagreek
ENCODING 916
SWIDTH 722 0
DWIDTH 7 0
BBX 7 7 0 0
BITMAP
18
38
28
6C
64
46
FE
ENDCHAR
STARTCHAR Epsilon
ENCODING 917
SWIDTH 666 0
DWIDTH 7 0
BBX 6 7 1 0
BITMAP
FC
C0
C0
F8
C0
C0
FC
ENDCHAR
STARTCHAR Zeta
ENCODING 918
SWIDTH 610 0
DWIDTH 6 0
BBX 6 7 0 0
BITMAP
FC
08
18
30
60
60
FC
ENDCHAR
STARTCHAR Eta
ENCODING 919
SWIDTH 722 0
DWIDTH 7 0
BBX 5 7 1 0
BITMAP
D8
D8
D8
F8
D8
D8
D8
ENDCHAR
STARTCHAR Theta
ENCODING 920
SWIDTH 777 0
DWIDTH 8 0
BBX 6 7 1 0
BITMAP
78
CC
CC
FC
CC
CC
78
ENDCHAR
STARTCHAR Iota
ENCODING 921
SWIDTH 295 0
DWIDTH 3 0
BBX 2 7 0 0
BITMAP
C0
C0
C0
C0
C0
C0
C0
ENDCHAR
STARTCHAR Kappa
ENCODING 922
SWIDTH 722 0
DWIDTH 7 0
BBX 7 7 1 0
BITMAP
CE
D8
F0
F0
D8
CC
CE
ENDCHAR
STARTCHAR Lambda
ENCODING 923
SWIDTH 667 0
DWIDTH 7 0
BBX 6 7 0 0
BITMAP
30
38
38
68
6C
4C
C4
ENDCHAR
STARTCHAR Mu
ENCODING 924
SWIDTH 887 0
DWIDTH 9 0
BBX 7 7 1 0
BITMAP
C6
EE
EE
AA
AA
BA
92
ENDCHAR
STARTCHAR Nu
ENCODING 925
SWIDTH 777 0
DWIDTH 8 0
BBX 6 7 1 0
BITMAP
C4
E4
E4
B4
9C
9C
8C
ENDCHAR
STARTCHAR Xi
ENCODING 926
SWIDTH 610 0
DWIDTH 6 0
BBX 6 7 0 0
BITMAP
FC
00
00
78
00
00
FC
ENDCHAR
STARTCHAR Omicron
ENCODING 927
SWIDTH 777 0
DWIDTH 8 0
BBX 6 7 1 0
BITMAP
78
CC
CC
CC
CC
CC
78
ENDCHAR
STARTCHAR Pi
ENCODING 928
SWIDTH 722 0
DWIDTH 7 0
BBX 5 7 1 0
BITMAP
F8
D8
D8
D8
D8
D8
D8
ENDCHAR
STARTCHAR Rho
ENCODING 929
SWIDTH 666 0
DWIDTH 7 0
BBX 5 7 1 0
BITMAP
F0
D8
D8
F0
C0
C0
C0
ENDCHAR
STARTCHAR Sigma
ENCODING 931
SWIDTH 610 0
DWIDTH 6 0
BBX 6 7 0 0
BITMAP
FC
60
30
18
30
60
FC
ENDCHAR
STARTCHAR Tau
ENCODING 932
SWIDTH 611 0
DWIDTH 6 0
BBX 6 7 0 0
BITMAP
FC
30
30
30
30
30
30
ENDCHAR
STARTCHAR Upsilon
ENCODING 933
SWIDTH 666 0
DWIDTH 7 0
BBX 6 7 0 0
BITMAP
CC
CC
78
78
30
30
30
ENDCHAR
STARTCHAR Phi
ENCODING 934
SWIDTH 722 0
DWIDTH 8 0
BBX 7 7 0 0
BITMAP
10
7C
92
92
92
7C
10
ENDCHAR
STARTCHAR Chi
ENCODING 935
SWIDTH 666 0
DWIDTH 7 0
BBX 6 7 0 0
BITMAP
CC
68
38
30
38
6C
CC
ENDCHAR
STARTCHAR Psi
ENCODING 936
SWIDTH 833 0
DWIDTH 9 0
BBX 7 7 1 0
BITMAP
92
92
92
92
FE
38
10
ENDCHAR
STARTCHAR Omegagreek
ENCODING 937
SWIDTH 777 0
DWIDTH 8 0
BBX 6 7 1 0
BITMAP
78
CC
CC
CC
CC
78
FC
ENDCHAR
STARTCHAR Iotadieresis
ENCODING 938
SWIDTH 295 0
DWIDTH 2 0
BBX 3 9 0 0
BITMAP
A0
00
60
60
60
60
60
60
60
ENDCHAR
STARTCHAR Upsilondieresis
ENCODING 939
SWIDTH 666 0
DWIDTH 7 0
BBX 6 9 1 0
BITMAP
50
00
CC
CC
78
78
30
30
30
ENDCHAR
STARTCHAR alphatonos
ENCODING 940
SWIDTH 611 0
DWIDTH 6 0
BBX 4 8 1 0
BITMAP
20
40
00
70
90
90
90
70
ENDCHAR
STARTCHAR epsilontonos
ENCODING 941
SWIDTH 556 0
DWIDTH 6 0
BBX 4 8 1 0
BITMAP
20
40
00
F0
80
C0
90
F0
ENDCHAR
STARTCHAR etatonos
ENCODING 942
SWIDTH 609 0
DWIDTH 6 0
BBX 4 10 1 -2
BITMAP
20
40
00
F0
90
90
90
90
10
10
ENDCHAR
STARTCHAR iotatonos
ENCODING 943
SWIDTH 277 0
DWIDTH 3 0
BBX 2 8 1 0
BITMAP
C0
80
00
80
80
80
80
80
ENDCHAR
STARTCHAR upsilondieresistonos
ENCODING 944
SWIDTH 609 0
DWIDTH 6 0
BBX 4 9 1 0
BITMAP
20
40
A0
00
90
90
90
90
70
ENDCHAR
STARTCHAR alpha
ENCODING 945
SWIDTH 611 0
DWIDTH 6 0
BBX 4 5 1 0
BITMAP
70
90
90
90
70
ENDCHAR
STARTCHAR beta
ENCODING 946
SWIDTH 604 0
DWIDTH 6 0
BBX 4 9 1 -2
BITMAP
70
90
90
B0
90
90
F0
80
80
ENDCHAR
STARTCHAR gamma
ENCODING 947
SWIDTH 556 0
DWIDTH 6 0
BBX 5 7 0 -2
BITMAP
D8
50
50
70
20
20
20
ENDCHAR
STARTCHAR delta
ENCODING 948
SWIDTH 610 0
DWIDTH 6 0
BBX 5 7 0 0
BITMAP
F8
60
70
88
88
88
70
ENDCHAR
STARTCHAR epsilon
ENCODING 949
SWIDTH 556 0
DWIDTH 6 0
BBX 4 5 1 0
BITMAP
F0
80
C0
90
F0
ENDCHAR
STARTCHAR zeta
ENCODING 950
SWIDTH 443 0
DWIDTH 4 0
BBX 4 9 1 -2
BITMAP
F0
60
C0
80
80
80
E0
30
20
ENDCHAR
STARTCHAR eta
ENCODING 951
SWIDTH 609 0
DWIDTH 6 0
BBX 4 7 1 -2
BITMAP
F0
90
90
90
90
10
10
ENDCHAR
STARTCHAR theta
ENCODING 952
SWIDTH 609 0
DWIDTH 6 0
BBX 4 7 1 0
BITMAP
60
90
90
F0
90
90
60
ENDCHAR
STARTCHAR iota
ENCODING 953
SWIDTH 277 0
DWIDTH 3 0
BBX 1 5 1 0
BITMAP
80
80
80
80
80
ENDCHAR
STARTCHAR kappa
ENCODING 954
SWIDTH 556 0
DWIDTH 6 0
BBX 4 5 1 0
BITMAP
B0
E0
E0
B0
90
ENDCHAR
STARTCHAR lambda
ENCODING 955
SWIDTH 556 0
DWIDTH 6 0
BBX 5 7 0 0
BITMAP
60
20
30
30
70
58
C8
ENDCHAR
STARTCHAR mugreek
ENCODING 956
SWIDTH 609 0
DWIDTH 6 0
BBX 4 7 1 -2
BITMAP
90
90
90
90
F0
80
80
ENDCHAR
STARTCHAR nu
ENCODING 957
SWIDTH 556 0
DWIDTH 6 0
BBX 5 5 0 0
BITMAP
C8
58
70
70
30
ENDCHAR
STARTCHAR xi
ENCODING 958
SWIDTH 500 0
DWIDTH 5 0
BBX 4 9 1 -2
BITMAP
E0
80
80
60
80
80
F0
10
30
ENDCHAR
STARTCHAR omicron
ENCODING 959
SWIDTH 611 0
DWIDTH 6 0
BBX 5 5 0 0
BITMAP
70
88
88
88
70
ENDCHAR
STARTCHAR pi
ENCODING 960
SWIDTH 548 0
DWIDTH 5 0
BBX 5 5 0 0
BITMAP
F8
50
50
50
50
ENDCHAR
STARTCHAR rho
ENCODING 961
SWIDTH 610 0
DWIDTH 6 0
BBX 5 7 1 -2
BITMAP
F0
90
98
90
F0
80
80
ENDCHAR
STARTCHAR sigmafinal
ENCODING 962
SWIDTH 556 0
DWIDTH 6 0
BBX 4 7 1 -2
BITMAP
70
90
80
80
70
10
30
ENDCHAR
STARTCHAR sigma
ENCODING 963
SWIDTH 611 0
DWIDTH 6 0
BBX 6 5 0 0
BITMAP
7C
88
88
88
70
ENDCHAR
STARTCHAR tau
ENCODING 964
SWIDTH 500 0
DWIDTH 5 0
BBX 3 5 1 0
BITMAP
E0
40
40
40
40
ENDCHAR
STARTCHAR upsilon
ENCODING 965
SWIDTH 609 0
DWIDTH 6 0
BBX 4 5 1 0
BITMAP
90
90
90
90
70
ENDCHAR
STARTCHAR phi
ENCODING 966
SWIDTH 722 0
DWIDTH 7 0
BBX 6 8 0 -2
BITMAP
10
78
94
94
D4
78
10
10
ENDCHAR
STARTCHAR chi
ENCODING 967
SWIDTH 556 0
DWIDTH 6 0
BBX 5 7 0 -2
BITMAP
C8
58
70
30
70
58
C8
ENDCHAR
STARTCHAR psi
ENCODING 968
SWIDTH 722 0
DWIDTH 8 0
BBX 6 8 1 -2
BITMAP
20
A4
A4
A4
A4
F8
20
20
ENDCHAR
STARTCHAR omega
ENCODING 969
SWIDTH 722 0
DWIDTH 8 0
BBX 7 5 0 0
BITMAP
6C
92
92
92
6C
ENDCHAR
STARTCHAR iotadieresis
ENCODING 970
SWIDTH 277 0
DWIDTH 2 0
BBX 3 7 0 0
BITMAP
A0
00
40
40
40
40
40
ENDCHAR
STARTCHAR upsilondieresis
ENCODING 971
SWIDTH 609 0
DWIDTH 6 0
BBX 4 7 1 0
BITMAP
50
00
90
90
90
90
60
ENDCHAR
STARTCHAR omicrontonos
ENCODING 972
SWIDTH 611 0
DWIDTH 6 0
BBX 5 8 0 0
BITMAP
10
20
00
70
88
88
88
70
ENDCHAR
STARTCHAR upsilontonos
ENCODING 973
SWIDTH 609 0
DWIDTH 6 0
BBX 4 8 1 0
BITMAP
20
20
40
90
90
90
90
70
ENDCHAR
STARTCHAR omegatonos
ENCODING 974
SWIDTH 722 0
DWIDTH 8 0
BBX 7 8 0 0
BITMAP
08
10
00
6C
92
92
92
6C
ENDCHAR
STARTCHAR sigmalunatesymbolgreek
ENCODING 1010
SWIDTH 556 0
DWIDTH 6 0
BBX 4 5 1 0
BITMAP
F0
90
80
90
E0
ENDCHAR
STARTCHAR yotgreek
ENCODING 1011
SWIDTH 256 0
DWIDTH 3 0
BBX 2 8 0 -1
BITMAP
40
40
40
40
40
40
40
C0
ENDCHAR
STARTCHAR uni03F4
ENCODING 1012
SWIDTH 777 0
DWIDTH 8 0
BBX 6 7 1 0
BITMAP
78
CC
84
FC
84
CC
78
ENDCHAR
STARTCHAR uni03F5
ENCODING 1013
SWIDTH 508 0
DWIDTH 5 0
BBX 5 5 0 0
BITMAP
70
C8
F0
C8
70
ENDCHAR
STARTCHAR uni03F6
ENCODING 1014
SWIDTH 508 0
DWIDTH 5 0
BBX 5 5 0 0
BITMAP
70
D8
38
D8
70
ENDCHAR
STARTCHAR uni03F7
ENCODING 1015
SWIDTH 666 0
DWIDTH 6 0
BBX 4 7 1 0
BITMAP
80
F0
90
90
F0
80
80
ENDCHAR
STARTCHAR uni03F8
ENCODING 1016
SWIDTH 610 0
DWIDTH 6 0
BBX 4 9 1 -2
BITMAP
80
80
F0
90
90
90
F0
80
80
ENDCHAR
STARTCHAR uni03F9
ENCODING 1017
SWIDTH 722 0
DWIDTH 7 0
BBX 7 7 0 0
BITMAP
3C
44
C2
C0
C0
46
38
ENDCHAR
STARTCHAR uni03FA
ENCODING 1018
SWIDTH 833 0
DWIDTH 8 0
BBX 6 7 1 0
BITMAP
CC
CC
CC
B4
B4
B4
B4
ENDCHAR
STARTCHAR uni03FB
ENCODING 1019
SWIDTH 773 0
DWIDTH 8 0
BBX 6 7 1 -2
BITMAP
CC
CC
FC
B4
B4
80
80
ENDCHAR
STARTCHAR uni03FC
ENCODING 1020
SWIDTH 660 0
DWIDTH 7 0
BBX 6 7 0 -2
BITMAP
38
44
44
44
78
F0
40
ENDCHAR
STARTCHAR uni03FD
ENCODING 1021
SWIDTH 722 0
DWIDTH 8 0
BBX 7 7 0 0
BITMAP
78
44
86
06
06
C4
38
ENDCHAR
STARTCHAR uni03FE
ENCODING 1022
SWIDTH 722 0
DWIDTH 7 0
BBX 7 7 0 0
BITMAP
3C
44
C2
D0
C0
46
38
ENDCHAR
STARTCHAR uni03FF
ENCODING 1023
SWIDTH 722 0
DWIDTH 8 0
BBX 7 7 0 0
BITMAP
78
46
86
16
06
C6
38
ENDCHAR
STARTCHAR uni0400
ENCODING 1024
SWIDTH 678 0
DWIDTH 7 0
BBX 5 9 1 0
BITMAP
60
00
F8
80
80
F0
80
80
F8
ENDCHAR
STARTCHAR Iocyrillic
ENCODING 1025
SWIDTH 666 0
DWIDTH 7 0
BBX 5 9 1 0
BITMAP
50
00
F8
80
80
F8
80
80
F8
ENDCHAR
STARTCHAR Djecyrillic
ENCODING 1026
SWIDTH 761 0
DWIDTH 9 0
BBX 8 9 0 -2
BITMAP
FC
30
30
3E
33
33
33
07
0C
ENDCHAR
STARTCHAR Gjecyrillic
ENCODING 1027
SWIDTH 578 0
DWIDTH 6 0
BBX 4 9 1 0
BITMAP
60
00
F0
80
80
80
80
80
80
ENDCHAR
STARTCHAR Ecyrillic
ENCODING 1028
SWIDTH 722 0
DWIDTH 7 0
BBX 7 7 0 0
BITMAP
3C
66
C0
F0
C6
64
38
ENDCHAR
STARTCHAR Dzecyrillic
ENCODING 1029
SWIDTH 666 0
DWIDTH 7 0
BBX 5 7 1 0
BITMAP
70
88
C0
78
08
88
70
ENDCHAR
STARTCHAR Icyrillic
ENCODING 1030
SWIDTH 277 0
DWIDTH 3 0
BBX 2 7 0 0
BITMAP
C0
C0
C0
C0
C0
C0
C0
ENDCHAR
STARTCHAR Yicyrillic
ENCODING 1031
SWIDTH 277 0
DWIDTH 2 0
BBX 3 9 0 0
BITMAP
A0
00
60
60
60
60
60
60
60
ENDCHAR
STARTCHAR Jecyrillic
ENCODING 1032
SWIDTH 556 0
DWIDTH 6 0
BBX 5 7 0 0
BITMAP
18
18
18
18
98
98
70
ENDCHAR
STARTCHAR Ljecyrillic
ENCODING 1033
SWIDTH 1000 0
DWIDTH 11 0
BBX 9 7 1 0
BITMAP
7800
5800
5800
5F00
5980
5980
9F00
ENDCHAR
STARTCHAR Njecyrillic
ENCODING 1034
SWIDTH 988 0
DWIDTH 11 0
BBX 10 7 0 0
BITMAP
CC00
CC00
CC00
FF80
CCC0
CCC0
CF80
ENDCHAR
STARTCHAR Tshecyrillic
ENCODING 1035
SWIDTH 798 0
DWIDTH 9 0
BBX 8 7 0 0
BITMAP
FC
30
30
3F
33
33
33
ENDCHAR
STARTCHAR Kjecyrillic
ENCODING 1036
SWIDTH 722 0
DWIDTH 7 0
BBX 7 9 1 0
BITMAP
30
00
CE
D8
F0
F0
D8
CC
C6
ENDCHAR
STARTCHAR uni040D
ENCODING 1037
SWIDTH 733 0
DWIDTH 7 0
BBX 5 9 1 0
BITMAP
60
10
98
98
B8
A8
E8
C8
C8
ENDCHAR
STARTCHAR Ushortcyrillic
ENCODING 1038
SWIDTH 666 0
DWIDTH 7 0
BBX 7 9 0 0
BITMAP
2C
38
C6
6C
6C
28
38
10
70
ENDCHAR
STARTCHAR Dzhecyrillic
ENCODING 1039
SWIDTH 722 0
DWIDTH 8 0
BBX 7 9 0 -2
BITMAP
C6
C6
C6
C6
C6
C6
FE
10
10
ENDCHAR
STARTCHAR Acyrillic
ENCODING 1040
SWIDTH 722 0
DWIDTH 7 0
BBX 7 7 0 0
BITMAP
18
38
28
6C
7C
44
C6
ENDCHAR
STARTCHAR Becyrillic
ENCODING 1041
SWIDTH 717 0
DWIDTH 8 0
BBX 6 7 1 0
BITMAP
FC
C0
C0
FC
CC
CC
FC
ENDCHAR
STARTCHAR Vecyrillic
ENCODING 1042
SWIDTH 722 0
DWIDTH 7 0
BBX 6 7 1 0
BITMAP
F0
88
88
F8
8C
8C
F8
ENDCHAR
STARTCHAR Gecyrillic
ENCODING 1043
SWIDTH 578 0
DWIDTH 6 0
BBX 4 7 1 0
BITMAP
F0
80
80
80
80
80
80
ENDCHAR
STARTCHAR Decyrillic
ENCODING 1044
SWIDTH 736 0
DWIDTH 8 0
BBX 7 9 0 -2
BITMAP
3E
26
26
26
66
66
FE
82
82
ENDCHAR
STARTCHAR Iecyrillic
ENCODING 1045
SWIDTH 666 0
DWIDTH 7 0
BBX 5 7 1 0
BITMAP
F8
80
80
F8
80
80
F8
ENDCHAR
STARTCHAR Zhecyrillic
ENCODING 1046
SWIDTH 1000 0
DWIDTH 10 0
BBX 9 7 1 0
BITMAP
C980
6B00
2A00
3E00
2A00
6B00
C980
ENDCHAR
STARTCHAR Zecyrillic
ENCODING 1047
SWIDTH 673 0
DWIDTH 8 0
BBX 7 7 0 0
BITMAP
3C
64
04
1C
06
86
7C
ENDCHAR
STARTCHAR Iicyrillic
ENCODING 1048
SWIDTH 722 0
DWIDTH 7 0
BBX 5 7 1 0
BITMAP
98
98
B8
A8
E8
C8
C8
ENDCHAR
STARTCHAR Iishortcyrillic
ENCODING 1049
SWIDTH 722 0
DWIDTH 7 0
BBX 5 9 1 0
BITMAP
58
70
98
98
B8
A8
E8
C8
C8
ENDCHAR
STARTCHAR Kacyrillic
ENCODING 1050
SWIDTH 722 0
DWIDTH 7 0
BBX 7 7 1 0
BITMAP
CE
D8
F0
F0
D8
CC
C6
ENDCHAR
STARTCHAR Elcyrillic
ENCODING 1051
SWIDTH 720 0
DWIDTH 8 0
BBX 6 7 1 0
BITMAP
7C
4C
4C
4C
4C
4C
8C
ENDCHAR
STARTCHAR Emcyrillic
ENCODING 1052
SWIDTH 833 0
DWIDTH 8 0
BBX 6 7 1 0
BITMAP
CC
CC
CC
B4
B4
B4
B4
ENDCHAR
STARTCHAR Encyrillic
ENCODING 1053
SWIDTH 722 0
DWIDTH 8 0
BBX 6 7 1 0
BITMAP
CC
CC
CC
FC
CC
CC
CC
ENDCHAR
STARTCHAR Ocyrillic
ENCODING 1054
SWIDTH 777 0
DWIDTH 9 0
BBX 8 7 0 0
BITMAP
3C
67
C3
C3
C3
67
3C
ENDCHAR
STARTCHAR Pecyrillic
ENCODING 1055
SWIDTH 722 0
DWIDTH 8 0
BBX 6 7 1 0
BITMAP
FC
CC
CC
CC
CC
CC
CC
ENDCHAR
STARTCHAR Ercyrillic
ENCODING 1056
SWIDTH 666 0
DWIDTH 8 0
BBX 6 7 1 0
BITMAP
FC
CC
CC
FC
C0
C0
C0
ENDCHAR
STARTCHAR Escyrillic
ENCODING 1057
SWIDTH 722 0
DWIDTH 7 0
BBX 7 7 0 0
BITMAP
3C
44
C2
C0
C0
46
3C
ENDCHAR
STARTCHAR Tecyrillic
ENCODING 1058
SWIDTH 611 0
DWIDTH 6 0
BBX 6 7 0 0
BITMAP
FC
30
30
30
30
30
30
ENDCHAR
STARTCHAR Ucyrillic
ENCODING 1059
SWIDTH 666 0
DWIDTH 7 0
BBX 7 7 0 0
BITMAP
C6
6C
68
28
38
10
60
ENDCHAR
STARTCHAR Efcyrillic
ENCODING 1060
SWIDTH 833 0
DWIDTH 8 0
BBX 7 7 0 0
BITMAP
10
7C
92
92
92
7C
10
ENDCHAR
STARTCHAR Khacyrillic
ENCODING 1061
SWIDTH 666 0
DWIDTH 7 0
BBX 7 7 0 0
BITMAP
CC
68
38
30
38
6C
CE
ENDCHAR
STARTCHAR Tsecyrillic
ENCODING 1062
SWIDTH 736 0
DWIDTH 8 0
BBX 7 9 0 -2
BITMAP
C6
C6
C6
C6
C6
C6
FE
02
02
ENDCHAR
STARTCHAR Checyrillic
ENCODING 1063
SWIDTH 666 0
DWIDTH 8 0
BBX 7 7 0 0
BITMAP
86
86
86
FE
06
06
06
ENDCHAR
STARTCHAR Shacyrillic
ENCODING 1064
SWIDTH 943 0
DWIDTH 9 0
BBX 7 7 1 0
BITMAP
92
92
92
92
92
92
FE
ENDCHAR
STARTCHAR Shchacyrillic
ENCODING 1065
SWIDTH 958 0
DWIDTH 11 0
BBX 9 9 1 -2
BITMAP
9100
9100
9100
9100
9100
9100
FF80
0080
0080
ENDCHAR
STARTCHAR Hardsigncyrillic
ENCODING 1066
SWIDTH 833 0
DWIDTH 9 0
BBX 8 7 0 0
BITMAP
F0
30
30
3F
33
33
3F
ENDCHAR
STARTCHAR Yericyrillic
ENCODING 1067
SWIDTH 943 0
DWIDTH 10 0
BBX 8 7 1 0
BITMAP
83
83
83
FB
8F
8F
FB
ENDCHAR
STARTCHAR Softsigncyrillic
ENCODING 1068
SWIDTH 666 0
DWIDTH 8 0
BBX 6 7 1 0
BITMAP
C0
C0
C0
FC
CC
CC
FC
ENDCHAR
STARTCHAR Ereversedcyrillic
ENCODING 1069
SWIDTH 722 0
DWIDTH 8 0
BBX 7 7 0 0
BITMAP
78
CC
06
1E
C6
4C
38
ENDCHAR
STARTCHAR IUcyrillic
ENCODING 1070
SWIDTH 1000 0
DWIDTH 11 0
BBX 9 7 1 0
BITMAP
8F00
9180
B180
F180
B180
9180
8F00
ENDCHAR
STARTCHAR IAcyrillic
ENCODING 1071
SWIDTH 724 0
DWIDTH 7 0
BBX 5 7 1 0
BITMAP
78
C8
C8
78
C8
C8
C8
ENDCHAR
STARTCHAR acyrillic
ENCODING 1072
SWIDTH 556 0
DWIDTH 6 0
BBX 5 5 0 0
BITMAP
38
48
78
88
F8
ENDCHAR
STARTCHAR becyrillic
ENCODING 1073
SWIDTH 610 0
DWIDTH 7 0
BBX 6 7 0 0
BITMAP
38
C0
F8
84
84
84
78
ENDCHAR
STARTCHAR vecyrillic
ENCODING 1074
SWIDTH 596 0
DWIDTH 6 0
BBX 4 5 1 0
BITMAP
F0
90
F0
90
F0
ENDCHAR
STARTCHAR gecyrillic
ENCODING 1075
SWIDTH 443 0
DWIDTH 4 0
BBX 3 5 1 0
BITMAP
E0
80
80
80
80
ENDCHAR
STARTCHAR decyrillic
ENCODING 1076
SWIDTH 639 0
DWIDTH 7 0
BBX 6 6 0 -1
BITMAP
78
48
48
48
FC
84
ENDCHAR
STARTCHAR iecyrillic
ENCODING 1077
SWIDTH 556 0
DWIDTH 6 0
BBX 5 5 0 0
BITMAP
70
88
F8
88
70
ENDCHAR
STARTCHAR zhecyrillic
ENCODING 1078
SWIDTH 833 0
DWIDTH 8 0
BBX 7 5 1 0
BITMAP
D6
54
7C
54
D6
ENDCHAR
STARTCHAR zecyrillic
ENCODING 1079
SWIDTH 500 0
DWIDTH 5 0
BBX 4 5 0 0
BITMAP
70
D0
30
90
70
ENDCHAR
STARTCHAR iicyrillic
ENCODING 1080
SWIDTH 610 0
DWIDTH 6 0
BBX 4 5 1 0
BITMAP
B0
B0
F0
D0
D0
ENDCHAR
STARTCHAR iishortcyrillic
ENCODING 1081
SWIDTH 610 0
DWIDTH 6 0
BBX 4 7 1 0
BITMAP
70
00
90
B0
D0
D0
D0
ENDCHAR
STARTCHAR kacyrillic
ENCODING 1082
SWIDTH 610 0
DWIDTH 6 0
BBX 5 5 1 0
BITMAP
B8
E0
E0
B0
98
ENDCHAR
STARTCHAR elcyrillic
ENCODING 1083
SWIDTH 652 0
DWIDTH 7 0
BBX 6 5 0 0
BITMAP
7C
44
44
44
C4
ENDCHAR
STARTCHAR emcyrillic
ENCODING 1084
SWIDTH 722 0
DWIDTH 7 0
BBX 5 5 1 0
BITMAP
D8
D8
D8
A8
A8
ENDCHAR
STARTCHAR encyrillic
ENCODING 1085
SWIDTH 610 0
DWIDTH 6 0
BBX 4 5 1 0
BITMAP
90
90
F0
90
90
ENDCHAR
STARTCHAR ocyrillic
ENCODING 1086
SWIDTH 611 0
DWIDTH 6 0
BBX 5 5 0 0
BITMAP
70
88
88
88
70
ENDCHAR
STARTCHAR pecyrillic
ENCODING 1087
SWIDTH 610 0
DWIDTH 6 0
BBX 4 5 1 0
BITMAP
F0
90
90
90
90
ENDCHAR
STARTCHAR ercyrillic
ENCODING 1088
SWIDTH 610 0
DWIDTH 6 0
BBX 4 7 1 -2
BITMAP
F0
90
90
90
F0
80
80
ENDCHAR
STARTCHAR escyrillic
ENCODING 1089
SWIDTH 556 0
DWIDTH 6 0
BBX 4 5 1 0
BITMAP
E0
90
80
90
E0
ENDCHAR
STARTCHAR tecyrillic
ENCODING 1090
SWIDTH 500 0
DWIDTH 5 0
BBX 5 5 0 0
BITMAP
F8
20
20
20
20
ENDCHAR
STARTCHAR ucyrillic
ENCODING 1091
SWIDTH 556 0
DWIDTH 6 0
BBX 5 7 0 -2
BITMAP
C8
48
50
70
30
20
60
ENDCHAR
STARTCHAR efcyrillic
ENCODING 1092
SWIDTH 832 0
DWIDTH 8 0
BBX 7 9 0 -2
BITMAP
10
10
7C
92
92
92
7C
10
10
ENDCHAR
STARTCHAR khacyrillic
ENCODING 1093
SWIDTH 556 0
DWIDTH 6 0
BBX 5 5 0 0
BITMAP
D8
70
30
70
D8
ENDCHAR
STARTCHAR tsecyrillic
ENCODING 1094
SWIDTH 610 0
DWIDTH 7 0
BBX 5 6 1 -1
BITMAP
90
90
90
90
F8
08
ENDCHAR
STARTCHAR checyrillic
ENCODING 1095
SWIDTH 556 0
DWIDTH 6 0
BBX 5 5 0 0
BITMAP
88
88
F8
08
08
ENDCHAR
STARTCHAR shacyrillic
ENCODING 1096
SWIDTH 833 0
DWIDTH 9 0
BBX 7 5 1 0
BITMAP
92
92
92
92
FE
ENDCHAR
STARTCHAR shchacyrillic
ENCODING 1097
SWIDTH 833 0
DWIDTH 9 0
BBX 7 6 1 -1
BITMAP
94
94
94
94
FE
02
ENDCHAR
STARTCHAR hardsigncyrillic
ENCODING 1098
SWIDTH 666 0
DWIDTH 7 0
BBX 5 5 1 0
BITMAP
C0
40
78
48
78
ENDCHAR
STARTCHAR yericyrillic
ENCODING 1099
SWIDTH 803 0
DWIDTH 8 0
BBX 6 5 1 0
BITMAP
84
84
F4
94
F4
ENDCHAR
STARTCHAR softsigncyrillic
ENCODING 1100
SWIDTH 578 0
DWIDTH 6 0
BBX 4 5 1 0
BITMAP
80
80
F0
90
F0
ENDCHAR
STARTCHAR ereversedcyrillic
ENCODING 1101
SWIDTH 556 0
DWIDTH 6 0
BBX 5 5 1 0
BITMAP
70
98
38
98
70
ENDCHAR
STARTCHAR iucyrillic
ENCODING 1102
SWIDTH 833 0
DWIDTH 9 0
BBX 7 5 1 0
BITMAP
9C
B2
F2
B2
9C
ENDCHAR
STARTCHAR iacyrillic
ENCODING 1103
SWIDTH 610 0
DWIDTH 6 0
BBX 5 5 0 0
BITMAP
78
48
78
48
C8
ENDCHAR
STARTCHAR uni0450
ENCODING 1104
SWIDTH 565 0
DWIDTH 6 0
BBX 5 7 0 0
BITMAP
60
10
70
88
F8
88
70
ENDCHAR
STARTCHAR iocyrillic
ENCODING 1105
SWIDTH 556 0
DWIDTH 6 0
BBX 5 7 0 0
BITMAP
50
00
70
88
F8
98
70
ENDCHAR
STARTCHAR djecyrillic
ENCODING 1106
SWIDTH 610 0
DWIDTH 6 0
BBX 5 9 0 -2
BITMAP
40
F0
40
78
48
48
48
08
18
ENDCHAR
STARTCHAR gjecyrillic
ENCODING 1107
SWIDTH 443 0
DWIDTH 4 0
BBX 3 7 1 0
BITMAP
60
00
E0
80
80
80
80
ENDCHAR
STARTCHAR ecyrillic
ENCODING 1108
SWIDTH 556 0
DWIDTH 6 0
BBX 5 5 0 0
BITMAP
70
C8
E0
C8
70
ENDCHAR
STARTCHAR dzecyrillic
ENCODING 1109
SWIDTH 556 0
DWIDTH 6 0
BBX 4 5 1 0
BITMAP
F0
90
70
90
F0
ENDCHAR
STARTCHAR icyrillic
ENCODING 1110
SWIDTH 277 0
DWIDTH 3 0
BBX 1 7 1 0
BITMAP
80
00
80
80
80
80
80
ENDCHAR
STARTCHAR yicyrillic
ENCODING 1111
SWIDTH 316 0
DWIDTH 4 0
BBX 3 7 0 0
BITMAP
A0
00
40
40
40
40
40
ENDCHAR
STARTCHAR jecyrillic
ENCODING 1112
SWIDTH 277 0
DWIDTH 3 0
BBX 2 9 0 -2
BITMAP
40
00
40
40
40
40
40
40
C0
ENDCHAR
STARTCHAR ljecyrillic
ENCODING 1113
SWIDTH 914 0
DWIDTH 10 0
BBX 9 5 0 0
BITMAP
7800
4800
4F80
4880
CF80
ENDCHAR
STARTCHAR njecyrillic
ENCODING 1114
SWIDTH 881 0
DWIDTH 9 0
BBX 7 5 1 0
BITMAP
90
90
FE
92
9E
ENDCHAR
STARTCHAR tshecyrillic
ENCODING 1115
SWIDTH 610 0
DWIDTH 6 0
BBX 5 7 0 0
BITMAP
40
F0
40
78
48
48
48
ENDCHAR
STARTCHAR kjecyrillic
ENCODING 1116
SWIDTH 610 0
DWIDTH 6 0
BBX 5 7 1 0
BITMAP
30
40
B8
E0
E0
B0
98
ENDCHAR
STARTCHAR uni045D
ENCODING 1117
SWIDTH 565 0
DWIDTH 6 0
BBX 4 7 1 0
BITMAP
C0
20
B0
B0
F0
D0
D0
ENDCHAR
STARTCHAR ushortcyrillic
ENCODING 1118
SWIDTH 556 0
DWIDTH 6 0
BBX 5 9 0 -2
BITMAP
70
00
C8
58
50
70
30
20
60
ENDCHAR
STARTCHAR dzhecyrillic
ENCODING 1119
SWIDTH 610 0
DWIDTH 6 0
BBX 4 6 1 -1
BITMAP
90
90
90
90
F0
20
ENDCHAR
STARTCHAR Yatcyrillic
ENCODING 1122
SWIDTH 777 0
DWIDTH 9 0
BBX 8 7 0 0
BITMAP
30
FC
30
3E
33
33
3E
ENDCHAR
STARTCHAR yatcyrillic
ENCODING 1123
SWIDTH 666 0
DWIDTH 7 0
BBX 5 7 1 0
BITMAP
40
40
F0
40
78
48
78
ENDCHAR
STARTCHAR Eiotifiedcyrillic
ENCODING 1124
SWIDTH 1016 0
DWIDTH 10 0
BBX 9 7 1 0
BITMAP
8E00
9300
B000
FC00
B180
9100
9E00
ENDCHAR
STARTCHAR eiotifiedcyrillic
ENCODING 1125
SWIDTH 734 0
DWIDTH 7 0
BBX 6 5 1 0
BITMAP
9C
A4
F8
A4
9C
ENDCHAR
STARTCHAR Yuslittlecyrillic
ENCODING 1126
SWIDTH 722 0
DWIDTH 7 0
BBX 7 7 0 0
BITMAP
10
38
28
2C
7C
54
D6
ENDCHAR
STARTCHAR yuslittlecyrillic
ENCODING 1127
SWIDTH 556 0
DWIDTH 6 0
BBX 5 5 0 0
BITMAP
20
50
50
78
F8
ENDCHAR
STARTCHAR Yuslittleiotifiedcyrillic
ENCODING 1128
SWIDTH 1004 0
DWIDTH 10 0
BBX 9 7 1 0
BITMAP
8C00
8E00
8A00
9B00
FF00
9500
B580
ENDCHAR
STARTCHAR yuslittleiotifiedcyrillic
ENCODING 1129
SWIDTH 782 0
DWIDTH 8 0
BBX 7 5 0 0
BITMAP
88
9C
94
FE
BE
ENDCHAR
STARTCHAR Yusbigcyrillic
ENCODING 1130
SWIDTH 833 0
DWIDTH 9 0
BBX 7 7 1 0
BITMAP
FE
6C
38
38
D6
92
92
ENDCHAR
STARTCHAR yusbigcyrillic
ENCODING 1131
SWIDTH 617 0
DWIDTH 6 0
BBX 5 5 0 0
BITMAP
F8
50
70
A8
A8
ENDCHAR
STARTCHAR Yusbigiotifiedcyrillic
ENCODING 1132
SWIDTH 1067 0
DWIDTH 11 0
BBX 10 7 0 0
BITMAP
9FC0
8D80
8700
FF00
92C0
9240
9240
ENDCHAR
STARTCHAR yusbigiotifiedcyrillic
ENCODING 1133
SWIDTH 831 0
DWIDTH 9 0
BBX 8 5 0 0
BITMAP
9F
8A
FE
95
95
ENDCHAR
STARTCHAR Psicyrillic
ENCODING 1136
SWIDTH 833 0
DWIDTH 9 0
BBX 7 7 1 0
BITMAP
92
92
92
92
FE
38
10
ENDCHAR
STARTCHAR psicyrillic
ENCODING 1137
SWIDTH 722 0
DWIDTH 8 0
BBX 6 8 1 -2
BITMAP
20
A4
A4
A4
A4
78
20
20
ENDCHAR
STARTCHAR Fitacyrillic
ENCODING 1138
SWIDTH 777 0
DWIDTH 9 0
BBX 8 7 0 0
BITMAP
3C
66
C3
FF
C3
66
3C
ENDCHAR
STARTCHAR fitacyrillic
ENCODING 1139
SWIDTH 611 0
DWIDTH 6 0
BBX 6 5 0 0
BITMAP
78
4C
FC
4C
78
ENDCHAR
STARTCHAR Izhitsacyrillic
ENCODING 1140
SWIDTH 722 0
DWIDTH 7 0
BBX 7 7 0 0
BITMAP
C6
44
6C
68
28
38
10
ENDCHAR
STARTCHAR izhitsacyrillic
ENCODING 1141
SWIDTH 609 0
DWIDTH 6 0
BBX 6 5 0 0
BITMAP
CC
48
58
70
30
ENDCHAR
STARTCHAR Izhitsadblgravecyrillic
ENCODING 1142
SWIDTH 739 0
DWIDTH 7 0
BBX 7 9 0 0
BITMAP
78
00
C6
44
6C
68
28
38
30
ENDCHAR
STARTCHAR izhitsadblgravecyrillic
ENCODING 1143
SWIDTH 610 0
DWIDTH 6 0
BBX 6 7 0 0
BITMAP
50
28
CC
58
50
70
30
ENDCHAR
STARTCHAR uni0478
ENCODING 1144
SWIDTH 1333 0
DWIDTH 13 0
BBX 13 9 1 -2
BITMAP
7C00
C600
8298
82D0
8250
C660
7C20
0020
00C0
ENDCHAR
STARTCHAR uni0479
ENCODING 1145
SWIDTH 1166 0
DWIDTH 12 0
BBX 12 7 0 -2
BITMAP
7190
88A0
88A0
8860
7040
0040
01C0
ENDCHAR
STARTCHAR Gheupturncyrillic
ENCODING 1168
SWIDTH 610 0
DWIDTH 7 0
BBX 5 9 1 0
BITMAP
08
08
F8
C0
C0
C0
C0
C0
C0
ENDCHAR
STARTCHAR gheupturncyrillic
ENCODING 1169
SWIDTH 443 0
DWIDTH 5 0
BBX 3 6 1 0
BITMAP
20
E0
80
80
80
80
ENDCHAR
STARTCHAR Ghestrokecyrillic
ENCODING 1170
SWIDTH 605 0
DWIDTH 6 0
BBX 6 7 0 0
BITMAP
7C
7C
F0
F0
60
60
60
ENDCHAR
STARTCHAR ghestrokecyrillic
ENCODING 1171
SWIDTH 416 0
DWIDTH 4 0
BBX 5 6 -1 0
BITMAP
78
78
F0
F0
60
60
ENDCHAR
STARTCHAR Zhedescendercyrillic
ENCODING 1174
SWIDTH 1105 0
DWIDTH 10 0
BBX 11 9 0 -2
BITMAP
C460
24C0
1580
1F00
1500
3480
6440
8020
0020
ENDCHAR
STARTCHAR zhedescendercyrillic
ENCODING 1175
SWIDTH 857 0
DWIDTH 7 0
BBX 8 6 0 -1
BITMAP
6B
3C
1C
2A
4B
81
ENDCHAR
STARTCHAR Zedescendercyrillic
ENCODING 1176
SWIDTH 663 0
DWIDTH 7 0
BBX 5 10 1 -3
BITMAP
78
48
C8
38
08
88
70
30
10
30
ENDCHAR
STARTCHAR zedescendercyrillic
ENCODING 1177
SWIDTH 504 0
DWIDTH 6 0
BBX 4 8 1 -3
BITMAP
E0
A0
60
90
E0
60
20
60
ENDCHAR
STARTCHAR Kadescendercyrillic
ENCODING 1178
SWIDTH 678 0
DWIDTH 6 0
BBX 6 9 1 -2
BITMAP
8C
90
A0
C0
E0
B0
88
04
04
ENDCHAR
STARTCHAR kadescendercyrillic
ENCODING 1179
SWIDTH 508 0
DWIDTH 4 0
BBX 4 6 1 -1
BITMAP
B0
C0
C0
A0
B0
10
ENDCHAR
STARTCHAR Kaverticalstrokecyrillic
ENCODING 1180
SWIDTH 860 0
DWIDTH 9 0
BBX 7 7 1 0
BITMAP
86
AC
B8
F0
B8
AC
86
ENDCHAR
STARTCHAR kaverticalstrokecyrillic
ENCODING 1181
SWIDTH 665 0
DWIDTH 7 0
BBX 5 5 1 0
BITMAP
D8
F0
E0
F0
D8
ENDCHAR
STARTCHAR Kabashkircyrillic
ENCODING 1184
SWIDTH 898 0
DWIDTH 9 0
BBX 8 7 1 0
BITMAP
E7
2C
38
30
28
24
23
ENDCHAR
STARTCHAR kabashkircyrillic
ENCODING 1185
SWIDTH 727 0
DWIDTH 7 0
BBX 7 5 0 0
BITMAP
EC
38
30
28
26
ENDCHAR
STARTCHAR Endescendercyrillic
ENCODING 1186
SWIDTH 733 0
DWIDTH 7 0
BBX 5 9 1 -2
BITMAP
88
88
88
F8
88
88
88
08
08
ENDCHAR
STARTCHAR endescendercyrillic
ENCODING 1187
SWIDTH 565 0
DWIDTH 6 0
BBX 4 6 1 -1
BITMAP
90
90
F0
90
90
10
ENDCHAR
STARTCHAR Enghecyrillic
ENCODING 1188
SWIDTH 932 0
DWIDTH 9 0
BBX 7 7 1 0
BITMAP
8E
88
88
F8
88
88
88
ENDCHAR
STARTCHAR enghecyrillic
ENCODING 1189
SWIDTH 730 0
DWIDTH 7 0
BBX 6 5 1 0
BITMAP
9C
90
F0
90
90
ENDCHAR
STARTCHAR Esdescendercyrillic
ENCODING 1194
SWIDTH 733 0
DWIDTH 7 0
BBX 6 9 1 -2
BITMAP
70
88
84
80
8C
48
78
10
30
ENDCHAR
STARTCHAR esdescendercyrillic
ENCODING 1195
SWIDTH 508 0
DWIDTH 5 0
BBX 5 7 0 -2
BITMAP
60
90
80
88
78
10
30
ENDCHAR
STARTCHAR Tedescendercyrillic
ENCODING 1196
SWIDTH 621 0
DWIDTH 6 0
BBX 5 9 1 -2
BITMAP
F8
20
20
20
20
20
20
20
20
ENDCHAR
STARTCHAR tedescendercyrillic
ENCODING 1197
SWIDTH 508 0
DWIDTH 5 0
BBX 5 6 0 -1
BITMAP
F8
20
20
20
20
20
ENDCHAR
STARTCHAR Ustraightcyrillic
ENCODING 1198
SWIDTH 666 0
DWIDTH 7 0
BBX 6 7 0 0
BITMAP
CC
CC
78
30
30
30
30
ENDCHAR
STARTCHAR ustraightcyrillic
ENCODING 1199
SWIDTH 666 0
DWIDTH 7 0
BBX 6 7 0 -2
BITMAP
CC
CC
48
78
30
30
30
ENDCHAR
STARTCHAR Ustraightstrokecyrillic
ENCODING 1200
SWIDTH 666 0
DWIDTH 7 0
BBX 6 7 0 0
BITMAP
CC
CC
78
30
FC
30
30
ENDCHAR
STARTCHAR ustraightstrokecyrillic
ENCODING 1201
SWIDTH 666 0
DWIDTH 7 0
BBX 6 7 0 -2
BITMAP
CC
CC
48
78
FC
30
30
ENDCHAR
STARTCHAR Hadescendercyrillic
ENCODING 1202
SWIDTH 678 0
DWIDTH 6 0
BBX 7 9 0 -2
BITMAP
66
24
38
18
38
3C
64
82
02
ENDCHAR
STARTCHAR hadescendercyrillic
ENCODING 1203
SWIDTH 508 0
DWIDTH 4 0
BBX 5 6 0 -1
BITMAP
D8
70
20
70
C8
08
ENDCHAR
STARTCHAR Tetsecyrillic
ENCODING 1204
SWIDTH 919 0
DWIDTH 9 0
BBX 7 9 1 -2
BITMAP
FA
22
22
22
22
22
3E
02
02
ENDCHAR
STARTCHAR tetsecyrillic
ENCODING 1205
SWIDTH 657 0
DWIDTH 7 0
BBX 5 6 1 -1
BITMAP
E8
48
48
48
78
08
ENDCHAR
STARTCHAR Chedescendercyrillic
ENCODING 1206
SWIDTH 708 0
DWIDTH 7 0
BBX 5 9 1 -2
BITMAP
88
88
88
78
08
08
08
08
08
ENDCHAR
STARTCHAR chedescendercyrillic
ENCODING 1207
SWIDTH 559 0
DWIDTH 6 0
BBX 4 6 1 -1
BITMAP
90
90
F0
10
10
10
ENDCHAR
STARTCHAR Cheverticalstrokecyrillic
ENCODING 1208
SWIDTH 708 0
DWIDTH 7 0
BBX 5 7 1 0
BITMAP
88
A8
A8
F8
28
28
08
ENDCHAR
STARTCHAR cheverticalstrokecyrillic
ENCODING 1209
SWIDTH 604 0
DWIDTH 6 0
BBX 4 5 1 0
BITMAP
D0
D0
F0
50
10
ENDCHAR
STARTCHAR Shhacyrillic
ENCODING 1210
SWIDTH 708 0
DWIDTH 7 0
BBX 5 7 1 0
BITMAP
80
80
F0
88
88
88
88
ENDCHAR
STARTCHAR shhacyrillic
ENCODING 1211
SWIDTH 559 0
DWIDTH 6 0
BBX 5 5 0 0
BITMAP
80
80
F8
88
88
ENDCHAR
STARTCHAR Cheabkhasiancyrillic
ENCODING 1212
SWIDTH 925 0
DWIDTH 9 0
BBX 9 7 0 0
BITMAP
0E00
1100
B180
FF80
3180
1100
0E00
ENDCHAR
STARTCHAR cheabkhasiancyrillic
ENCODING 1213
SWIDTH 746 0
DWIDTH 7 0
BBX 7 5 0 0
BITMAP
1C
A4
FE
24
1C
ENDCHAR
STARTCHAR Chedescenderabkhasiancyrillic
ENCODING 1214
SWIDTH 925 0
DWIDTH 9 0
BBX 9 9 0 -2
BITMAP
0E00
1100
B100
FF80
3100
1300
0E00
0800
0C00
ENDCHAR
STARTCHAR chedescenderabkhasiancyrillic
ENCODING 1215
SWIDTH 746 0
DWIDTH 7 0
BBX 7 7 0 -2
BITMAP
1C
A4
FE
20
1E
10
18
ENDCHAR
STARTCHAR palochkacyrillic
ENCODING 1216
SWIDTH 277 0
DWIDTH 3 0
BBX 1 7 1 0
BITMAP
80
80
80
80
80
80
80
ENDCHAR
STARTCHAR Zhebrevecyrillic
ENCODING 1217
SWIDTH 1105 0
DWIDTH 11 0
BBX 9 9 1 0
BITMAP
1C00
0000
C980
6B00
2A00
3E00
2A00
6B00
C980
ENDCHAR
STARTCHAR zhebrevecyrillic
ENCODING 1218
SWIDTH 857 0
DWIDTH 9 0
BBX 7 7 1 0
BITMAP
78
00
D6
54
7C
54
D6
ENDCHAR
STARTCHAR Enhookcyrillic
ENCODING 1223
SWIDTH 733 0
DWIDTH 8 0
BBX 6 9 1 -2
BITMAP
84
84
84
FC
84
84
84
04
0C
ENDCHAR
STARTCHAR enhookcyrillic
ENCODING 1224
SWIDTH 565 0
DWIDTH 6 0
BBX 4 7 1 -2
BITMAP
90
90
F0
90
90
10
30
ENDCHAR
STARTCHAR uni04CF
ENCODING 1231
SWIDTH 277 0
DWIDTH 3 0
BBX 1 5 1 0
BITMAP
80
80
80
80
80
ENDCHAR
STARTCHAR Abrevecyrillic
ENCODING 1232
SWIDTH 678 0
DWIDTH 7 0
BBX 7 9 0 0
BITMAP
38
00
18
38
28
6C
7C
44
C6
ENDCHAR
STARTCHAR abrevecyrillic
ENCODING 1233
SWIDTH 565 0
DWIDTH 6 0
BBX 5 7 0 0
BITMAP
70
00
78
48
F8
88
F8
ENDCHAR
STARTCHAR Adieresiscyrillic
ENCODING 1234
SWIDTH 678 0
DWIDTH 7 0
BBX 7 9 0 0
BITMAP
28
00
18
38
28
6C
7C
44
C6
ENDCHAR
STARTCHAR adieresiscyrillic
ENCODING 1235
SWIDTH 565 0
DWIDTH 6 0
BBX 5 7 0 0
BITMAP
50
00
78
48
F8
88
F8
ENDCHAR
STARTCHAR Aiecyrillic
ENCODING 1236
SWIDTH 1000 0
DWIDTH 11 0
BBX 10 7 0 0
BITMAP
1FC0
1400
2400
27C0
7C00
4400
C7C0
ENDCHAR
STARTCHAR aiecyrillic
ENCODING 1237
SWIDTH 889 0
DWIDTH 9 0
BBX 8 5 0 0
BITMAP
7E
89
7F
88
F7
ENDCHAR
STARTCHAR Iebrevecyrillic
ENCODING 1238
SWIDTH 678 0
DWIDTH 7 0
BBX 5 9 1 0
BITMAP
70
00
F8
80
80
F0
80
80
F8
ENDCHAR
STARTCHAR iebrevecyrillic
ENCODING 1239
SWIDTH 565 0
DWIDTH 6 0
BBX 5 7 0 0
BITMAP
78
00
70
88
F8
88
70
ENDCHAR
STARTCHAR Schwacyrillic
ENCODING 1240
SWIDTH 750 0
DWIDTH 8 0
BBX 7 7 0 0
BITMAP
3C
44
06
FE
46
44
38
ENDCHAR
STARTCHAR schwacyrillic
ENCODING 1241
SWIDTH 556 0
DWIDTH 6 0
BBX 5 5 0 0
BITMAP
F0
88
F8
88
70
ENDCHAR
STARTCHAR Schwadieresiscyrillic
ENCODING 1242
SWIDTH 750 0
DWIDTH 8 0
BBX 7 9 0 0
BITMAP
28
00
3C
44
06
FE
46
44
38
ENDCHAR
STARTCHAR schwadieresiscyrillic
ENCODING 1243
SWIDTH 556 0
DWIDTH 6 0
BBX 5 7 0 0
BITMAP
50
00
F0
88
F8
88
70
ENDCHAR
STARTCHAR Zhedieresiscyrillic
ENCODING 1244
SWIDTH 1105 0
DWIDTH 11 0
BBX 9 9 1 0
BITMAP
2800
0000
C980
6B00
2A00
3E00
2A00
6B00
C980
ENDCHAR
STARTCHAR zhedieresiscyrillic
ENCODING 1245
SWIDTH 857 0
DWIDTH 9 0
BBX 7 7 1 0
BITMAP
50
00
D6
54
7C
54
D6
ENDCHAR
STARTCHAR Zedieresiscyrillic
ENCODING 1246
SWIDTH 663 0
DWIDTH 7 0
BBX 7 9 0 0
BITMAP
50
00
3C
64
04
1C
06
86
7C
ENDCHAR
STARTCHAR zedieresiscyrillic
ENCODING 1247
SWIDTH 504 0
DWIDTH 5 0
BBX 4 7 0 0
BITMAP
A0
00
70
D0
30
90
70
ENDCHAR
STARTCHAR Dzeabkhasiancyrillic
ENCODING 1248
SWIDTH 599 0
DWIDTH 6 0
BBX 5 7 0 0
BITMAP
F8
18
30
48
08
C8
70
ENDCHAR
STARTCHAR dzeabkhasiancyrillic
ENCODING 1249
SWIDTH 550 0
DWIDTH 6 0
BBX 4 7 1 -2
BITMAP
F0
30
20
50
10
90
70
ENDCHAR
STARTCHAR Imacroncyrillic
ENCODING 1250
SWIDTH 733 0
DWIDTH 7 0
BBX 5 9 1 0
BITMAP
78
00
98
98
B8
A8
E8
C8
C8
ENDCHAR
STARTCHAR imacroncyrillic
ENCODING 1251
SWIDTH 565 0
DWIDTH 6 0
BBX 4 7 1 0
BITMAP
F0
00
B0
B0
F0
D0
D0
ENDCHAR
STARTCHAR Idieresiscyrillic
ENCODING 1252
SWIDTH 733 0
DWIDTH 7 0
BBX 5 9 1 0
BITMAP
50
00
98
98
B8
A8
E8
C8
C8
ENDCHAR
STARTCHAR idieresiscyrillic
ENCODING 1253
SWIDTH 565 0
DWIDTH 6 0
BBX 4 7 1 0
BITMAP
A0
00
B0
B0
F0
D0
D0
ENDCHAR
STARTCHAR Odieresiscyrillic
ENCODING 1254
SWIDTH 791 0
DWIDTH 8 0
BBX 8 9 0 0
BITMAP
28
00
3C
67
C3
C3
C3
67
3C
ENDCHAR
STARTCHAR odieresiscyrillic
ENCODING 1255
SWIDTH 565 0
DWIDTH 6 0
BBX 5 7 0 0
BITMAP
50
00
70
88
88
88
70
ENDCHAR
STARTCHAR Obarredcyrillic
ENCODING 1256
SWIDTH 791 0
DWIDTH 8 0
BBX 8 7 0 0
BITMAP
3C
66
42
FF
C2
66
3C
ENDCHAR
STARTCHAR obarredcyrillic
ENCODING 1257
SWIDTH 565 0
DWIDTH 6 0
BBX 5 5 0 0
BITMAP
70
C8
F8
C8
70
ENDCHAR
STARTCHAR Obarreddieresiscyrillic
ENCODING 1258
SWIDTH 791 0
DWIDTH 8 0
BBX 8 9 0 0
BITMAP
28
00
3C
66
42
FF
C2
66
3C
ENDCHAR
STARTCHAR obarreddieresiscyrillic
ENCODING 1259
SWIDTH 565 0
DWIDTH 6 0
BBX 5 7 0 0
BITMAP
50
00
70
C8
F8
C8
70
ENDCHAR
STARTCHAR uni04EC
ENCODING 1260
SWIDTH 733 0
DWIDTH 7 0
BBX 7 9 0 0
BITMAP
28
00
78
CC
06
1E
C6
4C
38
ENDCHAR
STARTCHAR uni04ED
ENCODING 1261
SWIDTH 508 0
DWIDTH 5 0
BBX 5 7 1 0
BITMAP
A0
00
70
98
38
98
70
ENDCHAR
STARTCHAR Umacroncyrillic
ENCODING 1262
SWIDTH 678 0
DWIDTH 7 0
BBX 6 9 0 0
BITMAP
38
00
C4
4C
68
28
30
10
60
ENDCHAR
STARTCHAR umacroncyrillic
ENCODING 1263
SWIDTH 508 0
DWIDTH 5 0
BBX 5 9 0 -2
BITMAP
78
00
C8
48
50
70
30
20
60
ENDCHAR
STARTCHAR Udieresiscyrillic
ENCODING 1264
SWIDTH 678 0
DWIDTH 7 0
BBX 6 9 0 0
BITMAP
50
00
C4
4C
68
28
30
10
60
ENDCHAR
STARTCHAR udieresiscyrillic
ENCODING 1265
SWIDTH 508 0
DWIDTH 5 0
BBX 5 9 0 -2
BITMAP
50
00
C8
48
50
70
30
20
60
ENDCHAR
STARTCHAR Uhungarumlautcyrillic
ENCODING 1266
SWIDTH 678 0
DWIDTH 7 0
BBX 6 9 0 0
BITMAP
3C
00
C4
4C
68
28
30
10
60
ENDCHAR
STARTCHAR uhungarumlautcyrillic
ENCODING 1267
SWIDTH 508 0
DWIDTH 5 0
BBX 5 9 0 -2
BITMAP
28
50
C8
48
50
70
30
20
60
ENDCHAR
STARTCHAR Chedieresiscyrillic
ENCODING 1268
SWIDTH 708 0
DWIDTH 7 0
BBX 7 9 0 0
BITMAP
50
00
86
86
86
FE
06
06
06
ENDCHAR
STARTCHAR chedieresiscyrillic
ENCODING 1269
SWIDTH 559 0
DWIDTH 6 0
BBX 5 7 0 0
BITMAP
50
00
88
88
F8
08
08
ENDCHAR
STARTCHAR uni04F6
ENCODING 1270
SWIDTH 605 0
DWIDTH 6 0
BBX 5 9 1 -2
BITMAP
F8
80
80
80
80
80
80
80
80
ENDCHAR
STARTCHAR uni04F7
ENCODING 1271
SWIDTH 435 0
DWIDTH 4 0
BBX 3 6 1 -1
BITMAP
E0
80
80
80
80
80
ENDCHAR
STARTCHAR Yerudieresiscyrillic
ENCODING 1272
SWIDTH 910 0
DWIDTH 9 0
BBX 8 9 1 0
BITMAP
28
00
83
83
83
FB
8F
8F
FB
ENDCHAR
STARTCHAR yerudieresiscyrillic
ENCODING 1273
SWIDTH 750 0
DWIDTH 8 0
BBX 6 7 1 0
BITMAP
50
00
84
84
F4
94
F4
ENDCHAR
STARTCHAR uni04FE
ENCODING 1278
SWIDTH 678 0
DWIDTH 7 0
BBX 7 7 0 0
BITMAP
C6
6C
38
7C
38
6C
C6
ENDCHAR
STARTCHAR uni04FF
ENCODING 1279
SWIDTH 508 0
DWIDTH 5 0
BBX 5 5 0 0
BITMAP
D8
70
F8
70
D8
ENDCHAR
STARTCHAR uni0500
ENCODING 1280
SWIDTH 546 0
DWIDTH 5 0
BBX 3 7 1 0
BITMAP
20
20
E0
A0
A0
A0
E0
ENDCHAR
STARTCHAR uni0501
ENCODING 1281
SWIDTH 500 0
DWIDTH 5 0
BBX 4 8 0 0
BITMAP
10
10
70
90
90
90
90
70
ENDCHAR
STARTCHAR uni0510
ENCODING 1296
SWIDTH 663 0
DWIDTH 7 0
BBX 5 7 1 0
BITMAP
70
98
88
E0
88
98
F0
ENDCHAR
STARTCHAR uni0511
ENCODING 1297
SWIDTH 504 0
DWIDTH 6 0
BBX 5 5 0 0
BITMAP
70
88
C0
88
78
ENDCHAR
STARTCHAR uni0512
ENCODING 1298
SWIDTH 742 0
DWIDTH 8 0
BBX 6 9 1 -2
BITMAP
7C
44
44
44
44
44
C4
04
0C
ENDCHAR
STARTCHAR uni0513
ENCODING 1299
SWIDTH 576 0
DWIDTH 6 0
BBX 5 7 0 -2
BITMAP
78
48
48
48
C8
08
18
ENDCHAR
STARTCHAR uni0E3F.bahtthai
ENCODING 3647
SWIDTH 729 0
DWIDTH 7 0
BBX 6 10 1 -1
BITMAP
20
20
F8
A8
A8
F0
AC
AC
F8
20
ENDCHAR
STARTCHAR u10D0
ENCODING 4304
SWIDTH 454 0
DWIDTH 5 0
BBX 4 5 0 0
BITMAP
40
60
10
90
E0
ENDCHAR
STARTCHAR u10D1
ENCODING 4305
SWIDTH 537 0
DWIDTH 6 0
BBX 5 7 0 0
BITMAP
C0
A0
20
D8
88
88
70
ENDCHAR
STARTCHAR u10D2
ENCODING 4306
SWIDTH 586 0
DWIDTH 6 0
BBX 5 7 0 -2
BITMAP
F0
90
10
78
88
88
70
ENDCHAR
STARTCHAR u10D3
ENCODING 4307
SWIDTH 948 0
DWIDTH 9 0
BBX 9 7 0 -2
BITMAP
7700
8880
8880
8880
C700
F000
0C00
ENDCHAR
STARTCHAR u10D4
ENCODING 4308
SWIDTH 541 0
DWIDTH 6 0
BBX 5 7 0 -2
BITMAP
70
88
88
08
88
88
70
ENDCHAR
STARTCHAR u10D5
ENCODING 4309
SWIDTH 543 0
DWIDTH 6 0
BBX 5 7 0 -2
BITMAP
70
88
08
18
88
88
70
ENDCHAR
STARTCHAR u10D6
ENCODING 4310
SWIDTH 703 0
DWIDTH 8 0
BBX 7 7 0 0
BITMAP
E8
B0
E0
3C
22
22
1C
ENDCHAR
STARTCHAR u10D7
ENCODING 4311
SWIDTH 952 0
DWIDTH 10 0
BBX 9 5 0 0
BITMAP
7700
8880
8880
8880
7100
ENDCHAR
STARTCHAR u10D8
ENCODING 4312
SWIDTH 602 0
DWIDTH 7 0
BBX 6 5 0 0
BITMAP
78
84
84
84
48
ENDCHAR
STARTCHAR u10D9
ENCODING 4313
SWIDTH 521 0
DWIDTH 6 0
BBX 5 7 0 -2
BITMAP
10
08
08
30
88
88
70
ENDCHAR
STARTCHAR u10DA
ENCODING 4314
SWIDTH 1129 0
DWIDTH 12 0
BBX 11 7 0 -2
BITMAP
76C0
9920
8920
8020
C040
F000
0C00
ENDCHAR
STARTCHAR u10DB
ENCODING 4315
SWIDTH 543 0
DWIDTH 6 0
BBX 5 7 0 0
BITMAP
70
88
78
88
88
88
70
ENDCHAR
STARTCHAR u10DC
ENCODING 4316
SWIDTH 561 0
DWIDTH 6 0
BBX 4 7 1 0
BITMAP
F0
80
F0
90
90
90
70
ENDCHAR
STARTCHAR u10DD
ENCODING 4317
SWIDTH 860 0
DWIDTH 9 0
BBX 9 5 0 0
BITMAP
7E00
9900
9900
8180
4200
ENDCHAR
STARTCHAR u10DE
ENCODING 4318
SWIDTH 538 0
DWIDTH 5 0
BBX 5 7 0 0
BITMAP
30
18
08
38
88
88
70
ENDCHAR
STARTCHAR u10DF
ENCODING 4319
SWIDTH 570 0
DWIDTH 6 0
BBX 5 7 0 -2
BITMAP
38
68
E8
08
48
48
30
ENDCHAR
STARTCHAR u10E0
ENCODING 4320
SWIDTH 805 0
DWIDTH 9 0
BBX 8 7 0 0
BITMAP
0C
78
FE
99
99
81
42
ENDCHAR
STARTCHAR u10E1
ENCODING 4321
SWIDTH 529 0
DWIDTH 5 0
BBX 4 7 1 0
BITMAP
80
80
A0
B0
90
90
70
ENDCHAR
STARTCHAR u10E2
ENCODING 4322
SWIDTH 760 0
DWIDTH 8 0
BBX 7 9 0 -2
BITMAP
18
18
7C
DA
82
82
82
44
38
ENDCHAR
STARTCHAR u10E3
ENCODING 4323
SWIDTH 857 0
DWIDTH 9 0
BBX 8 7 0 -2
BITMAP
3F
AD
CD
01
21
21
1E
ENDCHAR
STARTCHAR u10E4
ENCODING 4324
SWIDTH 773 0
DWIDTH 8 0
BBX 7 7 0 -2
BITMAP
7C
92
92
66
02
22
1C
ENDCHAR
STARTCHAR u10E5
ENCODING 4325
SWIDTH 550 0
DWIDTH 6 0
BBX 5 9 0 -2
BITMAP
08
08
08
78
88
08
08
88
70
ENDCHAR
STARTCHAR u10E6
ENCODING 4326
SWIDTH 808 0
DWIDTH 9 0
BBX 8 7 0 -2
BITMAP
7E
99
99
81
C2
F8
0C
ENDCHAR
STARTCHAR u10E7
ENCODING 4327
SWIDTH 529 0
DWIDTH 5 0
BBX 4 7 0 -2
BITMAP
90
90
F0
10
90
90
E0
ENDCHAR
STARTCHAR u10E8
ENCODING 4328
SWIDTH 564 0
DWIDTH 6 0
BBX 5 7 0 0
BITMAP
F8
E8
78
88
88
88
70
ENDCHAR
STARTCHAR u10E9
ENCODING 4329
SWIDTH 521 0
DWIDTH 6 0
BBX 4 7 1 0
BITMAP
E0
A0
A0
F0
90
90
B0
ENDCHAR
STARTCHAR u10EA
ENCODING 4330
SWIDTH 573 0
DWIDTH 6 0
BBX 5 7 0 -2
BITMAP
20
98
88
98
88
88
70
ENDCHAR
STARTCHAR u10EB
ENCODING 4331
SWIDTH 553 0
DWIDTH 6 0
BBX 5 7 0 0
BITMAP
08
08
78
88
88
88
70
ENDCHAR
STARTCHAR u10EC
ENCODING 4332
SWIDTH 532 0
DWIDTH 6 0
BBX 5 9 0 -2
BITMAP
F8
A8
F0
C8
48
48
70
30
20
ENDCHAR
STARTCHAR u10ED
ENCODING 4333
SWIDTH 583 0
DWIDTH 6 0
BBX 6 9 0 -2
BITMAP
70
58
48
7C
48
7C
08
88
70
ENDCHAR
STARTCHAR u10EE
ENCODING 4334
SWIDTH 530 0
DWIDTH 6 0
BBX 4 7 1 0
BITMAP
C0
E0
C0
F0
90
90
70
ENDCHAR
STARTCHAR u10EF
ENCODING 4335
SWIDTH 792 0
DWIDTH 8 0
BBX 8 7 0 -2
BITMAP
E6
B3
56
18
3C
A5
E7
ENDCHAR
STARTCHAR u10F0
ENCODING 4336
SWIDTH 468 0
DWIDTH 5 0
BBX 4 7 0 0
BITMAP
60
10
30
10
30
90
F0
ENDCHAR
STARTCHAR u10F1
ENCODING 4337
SWIDTH 675 0
DWIDTH 7 0
BBX 6 7 0 0
BITMAP
68
B8
FC
A8
90
98
70
ENDCHAR
STARTCHAR u10F2
ENCODING 4338
SWIDTH 595 0
DWIDTH 6 0
BBX 6 5 0 0
BITMAP
38
48
48
78
FC
ENDCHAR
STARTCHAR u10F3
ENCODING 4339
SWIDTH 551 0
DWIDTH 6 0
BBX 5 7 0 -2
BITMAP
F8
10
20
78
88
88
70
ENDCHAR
STARTCHAR u10F4
ENCODING 4340
SWIDTH 504 0
DWIDTH 6 0
BBX 5 9 0 -2
BITMAP
C0
80
70
08
08
18
88
88
70
ENDCHAR
STARTCHAR u10F5
ENCODING 4341
SWIDTH 548 0
DWIDTH 5 0
BBX 5 7 0 0
BITMAP
E0
90
F8
10
F8
90
E0
ENDCHAR
STARTCHAR u10F6
ENCODING 4342
SWIDTH 873 0
DWIDTH 9 0
BBX 8 9 0 -2
BITMAP
78
08
7E
89
89
89
7E
0A
0E
ENDCHAR
STARTCHAR u10FB
ENCODING 4347
SWIDTH 513 0
DWIDTH 5 0
BBX 3 5 1 0
BITMAP
80
00
20
00
80
ENDCHAR
STARTCHAR u10D0.dup5
ENCODING 7312
SWIDTH 454 0
DWIDTH 5 0
BBX 4 5 0 0
BITMAP
40
60
10
90
E0
ENDCHAR
STARTCHAR u10D1.dup6
ENCODING 7313
SWIDTH 537 0
DWIDTH 6 0
BBX 5 7 0 0
BITMAP
C0
A0
20
D8
88
88
70
ENDCHAR
STARTCHAR u10D2.dup7
ENCODING 7314
SWIDTH 586 0
DWIDTH 6 0
BBX 5 7 0 -2
BITMAP
F0
90
10
78
88
88
70
ENDCHAR
STARTCHAR u10D3.dup8
ENCODING 7315
SWIDTH 948 0
DWIDTH 9 0
BBX 9 7 0 -2
BITMAP
7700
8880
8880
8880
C700
F000
0C00
ENDCHAR
STARTCHAR u10D4.dup9
ENCODING 7316
SWIDTH 541 0
DWIDTH 6 0
BBX 5 7 0 -2
BITMAP
70
88
88
08
88
88
70
ENDCHAR
STARTCHAR u10D5.dup10
ENCODING 7317
SWIDTH 543 0
DWIDTH 6 0
BBX 5 7 0 -2
BITMAP
70
88
08
18
88
88
70
ENDCHAR
STARTCHAR u10D6.dup11
ENCODING 7318
SWIDTH 703 0
DWIDTH 8 0
BBX 7 7 0 0
BITMAP
E8
B0
E0
3C
22
22
1C
ENDCHAR
STARTCHAR u10D7.dup12
ENCODING 7319
SWIDTH 952 0
DWIDTH 10 0
BBX 9 5 0 0
BITMAP
7700
8880
8880
8880
7100
ENDCHAR
STARTCHAR u10D8.dup13
ENCODING 7320
SWIDTH 602 0
DWIDTH 7 0
BBX 6 5 0 0
BITMAP
78
84
84
84
48
ENDCHAR
STARTCHAR u10D9.dup14
ENCODING 7321
SWIDTH 521 0
DWIDTH 6 0
BBX 5 7 0 -2
BITMAP
10
08
08
30
88
88
70
ENDCHAR
STARTCHAR u10DA.dup15
ENCODING 7322
SWIDTH 1129 0
DWIDTH 12 0
BBX 11 7 0 -2
BITMAP
76C0
9920
8920
8020
C040
F000
0C00
ENDCHAR
STARTCHAR u10DB.dup16
ENCODING 7323
SWIDTH 543 0
DWIDTH 6 0
BBX 5 7 0 0
BITMAP
70
88
78
88
88
88
70
ENDCHAR
STARTCHAR u10DC.dup17
ENCODING 7324
SWIDTH 561 0
DWIDTH 6 0
BBX 4 7 1 0
BITMAP
F0
80
F0
90
90
90
70
ENDCHAR
STARTCHAR u10DD.dup18
ENCODING 7325
SWIDTH 860 0
DWIDTH 9 0
BBX 9 5 0 0
BITMAP
7E00
9900
9900
8180
4200
ENDCHAR
STARTCHAR u10DE.dup19
ENCODING 7326
SWIDTH 538 0
DWIDTH 5 0
BBX 5 7 0 0
BITMAP
30
18
08
38
88
88
70
ENDCHAR
STARTCHAR u10DF.dup20
ENCODING 7327
SWIDTH 570 0
DWIDTH 6 0
BBX 5 7 0 -2
BITMAP
38
68
E8
08
48
48
30
ENDCHAR
STARTCHAR u10E0.dup21
ENCODING 7328
SWIDTH 805 0
DWIDTH 9 0
BBX 8 7 0 0
BITMAP
0C
78
FE
99
99
81
42
ENDCHAR
STARTCHAR u10E1.dup22
ENCODING 7329
SWIDTH 529 0
DWIDTH 5 0
BBX 4 7 1 0
BITMAP
80
80
A0
B0
90
90
70
ENDCHAR
STARTCHAR u10E2.dup23
ENCODING 7330
SWIDTH 760 0
DWIDTH 8 0
BBX 7 9 0 -2
BITMAP
18
18
7C
DA
82
82
82
44
38
ENDCHAR
STARTCHAR u10E3.dup24
ENCODING 7331
SWIDTH 857 0
DWIDTH 9 0
BBX 8 7 0 -2
BITMAP
3F
AD
CD
01
21
21
1E
ENDCHAR
STARTCHAR u10E4.dup25
ENCODING 7332
SWIDTH 773 0
DWIDTH 8 0
BBX 7 7 0 -2
BITMAP
7C
92
92
66
02
22
1C
ENDCHAR
STARTCHAR u10E5.dup26
ENCODING 7333
SWIDTH 550 0
DWIDTH 6 0
BBX 5 9 0 -2
BITMAP
08
08
08
78
88
08
08
88
70
ENDCHAR
STARTCHAR u10E6.dup27
ENCODING 7334
SWIDTH 808 0
DWIDTH 9 0
BBX 8 7 0 -2
BITMAP
7E
99
99
81
C2
F8
0C
ENDCHAR
STARTCHAR u10E7.dup28
ENCODING 7335
SWIDTH 529 0
DWIDTH 5 0
BBX 4 7 0 -2
BITMAP
90
90
F0
10
90
90
E0
ENDCHAR
STARTCHAR u10E8.dup29
ENCODING 7336
SWIDTH 564 0
DWIDTH 6 0
BBX 5 7 0 0
BITMAP
F8
E8
78
88
88
88
70
ENDCHAR
STARTCHAR u10E9.dup30
ENCODING 7337
SWIDTH 521 0
DWIDTH 6 0
BBX 4 7 1 0
BITMAP
E0
A0
A0
F0
90
90
B0
ENDCHAR
STARTCHAR u10EA.dup31
ENCODING 7338
SWIDTH 573 0
DWIDTH 6 0
BBX 5 7 0 -2
BITMAP
20
98
88
98
88
88
70
ENDCHAR
STARTCHAR u10EB.dup32
ENCODING 7339
SWIDTH 553 0
DWIDTH 6 0
BBX 5 7 0 0
BITMAP
08
08
78
88
88
88
70
ENDCHAR
STARTCHAR u10EC.dup33
ENCODING 7340
SWIDTH 532 0
DWIDTH 6 0
BBX 5 9 0 -2
BITMAP
F8
A8
F0
C8
48
48
70
30
20
ENDCHAR
STARTCHAR u10ED.dup34
ENCODING 7341
SWIDTH 583 0
DWIDTH 6 0
BBX 6 9 0 -2
BITMAP
70
58
48
7C
48
7C
08
88
70
ENDCHAR
STARTCHAR u10EE.dup35
ENCODING 7342
SWIDTH 530 0
DWIDTH 6 0
BBX 4 7 1 0
BITMAP
C0
E0
C0
F0
90
90
70
ENDCHAR
STARTCHAR u10EF.dup36
ENCODING 7343
SWIDTH 792 0
DWIDTH 8 0
BBX 8 7 0 -2
BITMAP
E6
B3
56
18
3C
A5
E7
ENDCHAR
STARTCHAR u10F0.dup37
ENCODING 7344
SWIDTH 468 0
DWIDTH 5 0
BBX 4 7 0 0
BITMAP
60
10
30
10
30
90
F0
ENDCHAR
STARTCHAR u10F1.dup38
ENCODING 7345
SWIDTH 675 0
DWIDTH 7 0
BBX 6 7 0 0
BITMAP
68
B8
FC
A8
90
98
70
ENDCHAR
STARTCHAR u10F2.dup39
ENCODING 7346
SWIDTH 595 0
DWIDTH 6 0
BBX 6 5 0 0
BITMAP
38
48
48
78
FC
ENDCHAR
STARTCHAR u10F3.dup40
ENCODING 7347
SWIDTH 551 0
DWIDTH 6 0
BBX 5 7 0 -2
BITMAP
F8
10
20
78
88
88
70
ENDCHAR
STARTCHAR u10F4.dup41
ENCODING 7348
SWIDTH 504 0
DWIDTH 6 0
BBX 5 9 0 -2
BITMAP
C0
80
70
08
08
18
88
88
70
ENDCHAR
STARTCHAR u10F5.dup42
ENCODING 7349
SWIDTH 548 0
DWIDTH 5 0
BBX 5 7 0 0
BITMAP
E0
90
F8
10
F8
90
E0
ENDCHAR
STARTCHAR u10F6.dup43
ENCODING 7350
SWIDTH 873 0
DWIDTH 9 0
BBX 8 9 0 -2
BITMAP
78
08
7E
89
89
89
7E
0A
0E
ENDCHAR
STARTCHAR uni1D01
ENCODING 7425
SWIDTH 751 0
DWIDTH 8 0
BBX 7 5 0 0
BITMAP
3E
50
5C
F0
9E
ENDCHAR
STARTCHAR uni1D08
ENCODING 7432
SWIDTH 504 0
DWIDTH 6 0
BBX 4 5 1 0
BITMAP
70
90
30
90
70
ENDCHAR
STARTCHAR uni1D09
ENCODING 7433
SWIDTH 277 0
DWIDTH 3 0
BBX 1 7 1 0
BITMAP
80
80
80
80
80
00
80
ENDCHAR
STARTCHAR uni1D0E
ENCODING 7438
SWIDTH 529 0
DWIDTH 5 0
BBX 4 5 0 0
BITMAP
B0
B0
F0
D0
D0
ENDCHAR
STARTCHAR uni1D11
ENCODING 7441
SWIDTH 625 0
DWIDTH 7 0
BBX 6 5 0 0
BITMAP
78
84
84
84
78
ENDCHAR
STARTCHAR uni1D12
ENCODING 7442
SWIDTH 624 0
DWIDTH 7 0
BBX 6 5 0 0
BITMAP
78
84
84
CC
48
ENDCHAR
STARTCHAR uni1D13
ENCODING 7443
SWIDTH 648 0
DWIDTH 7 0
BBX 6 5 0 0
BITMAP
F8
C4
A4
9C
7C
ENDCHAR
STARTCHAR uni1D14
ENCODING 7444
SWIDTH 944 0
DWIDTH 10 0
BBX 9 5 0 0
BITMAP
7700
4880
F880
4880
7700
ENDCHAR
STARTCHAR uni1D16
ENCODING 7446
SWIDTH 610 0
DWIDTH 6 0
BBX 5 2 0 3
BITMAP
70
88
ENDCHAR
STARTCHAR uni1D17
ENCODING 7447
SWIDTH 610 0
DWIDTH 6 0
BBX 5 3 0 0
BITMAP
88
88
70
ENDCHAR
STARTCHAR uni1D18
ENCODING 7448
SWIDTH 533 0
DWIDTH 6 0
BBX 4 5 1 0
BITMAP
F0
B0
E0
80
80
ENDCHAR
STARTCHAR uni1D19
ENCODING 7449
SWIDTH 533 0
DWIDTH 6 0
BBX 5 5 0 0
BITMAP
F8
C8
78
C8
C8
ENDCHAR
STARTCHAR uni1D1A
ENCODING 7450
SWIDTH 533 0
DWIDTH 6 0
BBX 5 5 0 0
BITMAP
C8
C8
78
C8
F8
ENDCHAR
STARTCHAR uni1D1D
ENCODING 7453
SWIDTH 619 0
DWIDTH 7 0
BBX 5 5 1 0
BITMAP
F8
08
08
08
F8
ENDCHAR
STARTCHAR uni1D1E
ENCODING 7454
SWIDTH 804 0
DWIDTH 9 0
BBX 8 5 0 1
BITMAP
1F
81
01
81
1F
ENDCHAR
STARTCHAR uni1D1F
ENCODING 7455
SWIDTH 619 0
DWIDTH 7 0
BBX 5 7 1 -1
BITMAP
F8
08
08
F8
08
08
F8
ENDCHAR
STARTCHAR uni1D43
ENCODING 7491
SWIDTH 395 0
DWIDTH 5 0
BBX 4 4 0 3
BITMAP
70
10
F0
F0
ENDCHAR
STARTCHAR uni1D44
ENCODING 7492
SWIDTH 395 0
DWIDTH 5 0
BBX 4 4 0 3
BITMAP
F0
90
E0
E0
ENDCHAR
STARTCHAR uni1D45
ENCODING 7493
SWIDTH 420 0
DWIDTH 5 0
BBX 4 4 0 3
BITMAP
70
90
90
70
ENDCHAR
STARTCHAR uni1D46
ENCODING 7494
SWIDTH 631 0
DWIDTH 6 0
BBX 6 4 0 3
BITMAP
FC
FC
90
EC
ENDCHAR
STARTCHAR uni1D47
ENCODING 7495
SWIDTH 433 0
DWIDTH 5 0
BBX 4 5 0 3
BITMAP
80
F0
90
90
F0
ENDCHAR
STARTCHAR uni1D48
ENCODING 7496
SWIDTH 433 0
DWIDTH 5 0
BBX 4 5 0 3
BITMAP
10
70
90
90
70
ENDCHAR
STARTCHAR uni1D49
ENCODING 7497
SWIDTH 395 0
DWIDTH 4 0
BBX 4 4 0 3
BITMAP
60
F0
80
70
ENDCHAR
STARTCHAR uni1D4A
ENCODING 7498
SWIDTH 395 0
DWIDTH 4 0
BBX 4 4 0 3
BITMAP
E0
F0
90
60
ENDCHAR
STARTCHAR uni1D4B
ENCODING 7499
SWIDTH 358 0
DWIDTH 4 0
BBX 3 4 0 3
BITMAP
E0
80
C0
E0
ENDCHAR
STARTCHAR uni1D4C
ENCODING 7500
SWIDTH 358 0
DWIDTH 4 0
BBX 3 4 0 3
BITMAP
E0
20
60
E0
ENDCHAR
STARTCHAR uni1D4D
ENCODING 7501
SWIDTH 433 0
DWIDTH 5 0
BBX 4 5 0 2
BITMAP
70
90
90
70
F0
ENDCHAR
STARTCHAR uni1D4E
ENCODING 7502
SWIDTH 197 0
DWIDTH 2 0
BBX 1 5 0 3
BITMAP
80
80
80
80
80
ENDCHAR
STARTCHAR uni1D4F
ENCODING 7503
SWIDTH 395 0
DWIDTH 4 0
BBX 4 5 0 3
BITMAP
80
A0
C0
E0
B0
ENDCHAR
STARTCHAR uni1D50
ENCODING 7504
SWIDTH 631 0
DWIDTH 7 0
BBX 6 4 0 3
BITMAP
FC
94
94
94
ENDCHAR
STARTCHAR uni1D51
ENCODING 7505
SWIDTH 433 0
DWIDTH 5 0
BBX 4 5 0 2
BITMAP
F0
90
90
90
10
ENDCHAR
STARTCHAR uni1D52
ENCODING 7506
SWIDTH 433 0
DWIDTH 5 0
BBX 4 4 0 3
BITMAP
70
90
90
70
ENDCHAR
STARTCHAR uni1D53
ENCODING 7507
SWIDTH 395 0
DWIDTH 5 0
BBX 3 4 1 3
BITMAP
E0
A0
20
E0
ENDCHAR
STARTCHAR uni1D54
ENCODING 7508
SWIDTH 433 0
DWIDTH 5 0
BBX 4 2 0 5
BITMAP
70
90
ENDCHAR
STARTCHAR uni1D55
ENCODING 7509
SWIDTH 433 0
DWIDTH 5 0
BBX 4 2 0 3
BITMAP
90
60
ENDCHAR
STARTCHAR uni1D56
ENCODING 7510
SWIDTH 433 0
DWIDTH 5 0
BBX 4 5 0 2
BITMAP
F0
90
90
F0
80
ENDCHAR
STARTCHAR uni1D57
ENCODING 7511
SWIDTH 236 0
DWIDTH 3 0
BBX 2 5 0 3
BITMAP
40
C0
40
40
40
ENDCHAR
STARTCHAR uni1D58
ENCODING 7512
SWIDTH 433 0
DWIDTH 5 0
BBX 4 4 0 3
BITMAP
90
90
90
F0
ENDCHAR
STARTCHAR uni1D59
ENCODING 7513
SWIDTH 438 0
DWIDTH 5 0
BBX 4 4 0 3
BITMAP
F0
10
10
F0
ENDCHAR
STARTCHAR uni1D5A
ENCODING 7514
SWIDTH 631 0
DWIDTH 7 0
BBX 6 4 0 3
BITMAP
94
94
94
FC
ENDCHAR
STARTCHAR uni1D5B
ENCODING 7515
SWIDTH 395 0
DWIDTH 4 0
BBX 4 4 0 3
BITMAP
90
60
60
60
ENDCHAR
STARTCHAR uni1D5D
ENCODING 7517
SWIDTH 428 0
DWIDTH 5 0
BBX 4 7 0 2
BITMAP
70
90
B0
90
90
F0
80
ENDCHAR
STARTCHAR uni1D5E
ENCODING 7518
SWIDTH 395 0
DWIDTH 4 0
BBX 3 5 0 2
BITMAP
A0
A0
40
40
40
ENDCHAR
STARTCHAR uni1D5F
ENCODING 7519
SWIDTH 433 0
DWIDTH 5 0
BBX 4 5 0 3
BITMAP
70
20
D0
90
F0
ENDCHAR
STARTCHAR uni1D61
ENCODING 7521
SWIDTH 395 0
DWIDTH 4 0
BBX 4 5 0 2
BITMAP
B0
60
60
60
90
ENDCHAR
STARTCHAR uni1D62
ENCODING 7522
SWIDTH 197 0
DWIDTH 2 0
BBX 1 5 0 -3
BITMAP
80
80
80
80
80
ENDCHAR
STARTCHAR uni1D63
ENCODING 7523
SWIDTH 276 0
DWIDTH 3 0
BBX 2 3 0 -3
BITMAP
C0
80
80
ENDCHAR
STARTCHAR uni1D64
ENCODING 7524
SWIDTH 433 0
DWIDTH 5 0
BBX 4 4 0 -4
BITMAP
90
90
90
F0
ENDCHAR
STARTCHAR uni1D65
ENCODING 7525
SWIDTH 395 0
DWIDTH 4 0
BBX 4 3 0 -3
BITMAP
90
60
60
ENDCHAR
STARTCHAR uni1D66
ENCODING 7526
SWIDTH 428 0
DWIDTH 5 0
BBX 4 7 0 -5
BITMAP
70
90
B0
90
90
F0
80
ENDCHAR
STARTCHAR uni1D67
ENCODING 7527
SWIDTH 395 0
DWIDTH 4 0
BBX 3 5 0 -5
BITMAP
A0
A0
40
40
40
ENDCHAR
STARTCHAR uni1D68
ENCODING 7528
SWIDTH 433 0
DWIDTH 5 0
BBX 3 5 1 -5
BITMAP
E0
A0
A0
E0
80
ENDCHAR
STARTCHAR uni1D6A
ENCODING 7530
SWIDTH 395 0
DWIDTH 4 0
BBX 4 5 0 -5
BITMAP
B0
60
60
60
90
ENDCHAR
STARTCHAR uni1D6B
ENCODING 7531
SWIDTH 892 0
DWIDTH 9 0
BBX 8 5 0 0
BITMAP
9E
99
9F
9B
FE
ENDCHAR
STARTCHAR uni1D6C
ENCODING 7532
SWIDTH 646 0
DWIDTH 7 0
BBX 6 7 0 0
BITMAP
40
E0
78
44
44
44
78
ENDCHAR
STARTCHAR uni1D6D
ENCODING 7533
SWIDTH 667 0
DWIDTH 6 0
BBX 6 7 0 0
BITMAP
0C
1C
78
88
88
88
78
ENDCHAR
STARTCHAR uni1D6E
ENCODING 7534
SWIDTH 390 0
DWIDTH 4 0
BBX 3 7 1 0
BITMAP
E0
C0
E0
40
E0
40
40
ENDCHAR
STARTCHAR uni1D71
ENCODING 7537
SWIDTH 645 0
DWIDTH 7 0
BBX 6 7 0 -2
BITMAP
78
44
44
44
78
40
E0
ENDCHAR
STARTCHAR uni1D72
ENCODING 7538
SWIDTH 431 0
DWIDTH 4 0
BBX 4 5 0 0
BITMAP
70
40
E0
40
40
ENDCHAR
STARTCHAR uni1D73
ENCODING 7539
SWIDTH 388 0
DWIDTH 4 0
BBX 3 5 0 0
BITMAP
60
40
E0
40
40
ENDCHAR
STARTCHAR uni1D75
ENCODING 7541
SWIDTH 390 0
DWIDTH 4 0
BBX 3 7 0 0
BITMAP
40
40
E0
40
E0
40
60
ENDCHAR
STARTCHAR uni1D7A
ENCODING 7546
SWIDTH 1074 0
DWIDTH 10 0
BBX 9 7 1 0
BITMAP
0980
4A00
EF00
4900
5900
6900
E900
ENDCHAR
STARTCHAR uni1DBF.smalltheta
ENCODING 7615
SWIDTH 382 0
DWIDTH 5 0
BBX 3 4 1 3
BITMAP
E0
E0
A0
E0
ENDCHAR
STARTCHAR uni1DC0
ENCODING 7616
SWIDTH 0 0
DWIDTH 0 0
BBX 4 4 -5 5
BITMAP
20
F0
20
D0
ENDCHAR
STARTCHAR uni1DC1
ENCODING 7617
SWIDTH 0 0
DWIDTH 0 0
BBX 4 4 -5 5
BITMAP
40
F0
40
B0
ENDCHAR
STARTCHAR uni1DC4
ENCODING 7620
SWIDTH 0 0
DWIDTH 0 0
BBX 4 2 -5 5
BITMAP
10
E0
ENDCHAR
STARTCHAR uni1DC5
ENCODING 7621
SWIDTH 0 0
DWIDTH 0 0
BBX 4 2 -5 5
BITMAP
80
70
ENDCHAR
STARTCHAR uni1DC6
ENCODING 7622
SWIDTH 0 0
DWIDTH 0 0
BBX 4 3 -5 5
BITMAP
E0
20
10
ENDCHAR
STARTCHAR uni1DC7
ENCODING 7623
SWIDTH 0 0
DWIDTH 0 0
BBX 4 3 -5 5
BITMAP
70
80
80
ENDCHAR
STARTCHAR uni1DC8
ENCODING 7624
SWIDTH 0 0
DWIDTH 0 0
BBX 4 2 -5 5
BITMAP
A0
50
ENDCHAR
STARTCHAR uni1DC9
ENCODING 7625
SWIDTH 0 0
DWIDTH 0 0
BBX 4 2 -5 5
BITMAP
50
A0
ENDCHAR
STARTCHAR uni1DCA
ENCODING 7626
SWIDTH 0 0
DWIDTH 0 0
BBX 2 3 -4 -3
BITMAP
C0
80
80
ENDCHAR
STARTCHAR Aringbelow
ENCODING 7680
SWIDTH 722 0
DWIDTH 7 0
BBX 5 10 1 -3
BITMAP
20
70
50
50
70
88
88
00
30
30
ENDCHAR
STARTCHAR aringbelow
ENCODING 7681
SWIDTH 556 0
DWIDTH 6 0
BBX 5 8 0 -3
BITMAP
78
88
78
88
F8
00
10
30
ENDCHAR
STARTCHAR Bdotaccent
ENCODING 7682
SWIDTH 722 0
DWIDTH 8 0
BBX 6 9 1 0
BITMAP
20
00
F8
84
84
F8
84
84
F8
ENDCHAR
STARTCHAR bdotaccent
ENCODING 7683
SWIDTH 610 0
DWIDTH 6 0
BBX 5 8 0 0
BITMAP
10
80
80
F0
88
88
88
F0
ENDCHAR
STARTCHAR Bdotbelow
ENCODING 7684
SWIDTH 722 0
DWIDTH 8 0
BBX 6 9 1 -2
BITMAP
F8
84
84
F8
84
84
F8
00
20
ENDCHAR
STARTCHAR bdotbelow
ENCODING 7685
SWIDTH 610 0
DWIDTH 6 0
BBX 5 9 0 -2
BITMAP
80
80
F0
88
88
88
F0
00
20
ENDCHAR
STARTCHAR Blinebelow
ENCODING 7686
SWIDTH 722 0
DWIDTH 8 0
BBX 6 9 1 -2
BITMAP
F8
84
84
F8
84
84
F8
00
78
ENDCHAR
STARTCHAR blinebelow
ENCODING 7687
SWIDTH 610 0
DWIDTH 6 0
BBX 5 9 0 -2
BITMAP
80
80
F0
88
88
88
F0
00
78
ENDCHAR
STARTCHAR Ccedillaacute
ENCODING 7688
SWIDTH 722 0
DWIDTH 7 0
BBX 6 11 0 -2
BITMAP
18
00
78
C4
80
80
84
C8
78
10
30
ENDCHAR
STARTCHAR ccedillaacute
ENCODING 7689
SWIDTH 556 0
DWIDTH 6 0
BBX 5 9 0 -2
BITMAP
10
20
70
88
80
88
70
10
30
ENDCHAR
STARTCHAR Ddotaccent
ENCODING 7690
SWIDTH 722 0
DWIDTH 8 0
BBX 6 9 1 0
BITMAP
20
00
F8
8C
84
84
84
8C
F8
ENDCHAR
STARTCHAR ddotaccent
ENCODING 7691
SWIDTH 610 0
DWIDTH 6 0
BBX 5 9 0 0
BITMAP
10
00
08
08
78
88
88
88
78
ENDCHAR
STARTCHAR Ddotbelow
ENCODING 7692
SWIDTH 722 0
DWIDTH 8 0
BBX 6 9 1 -2
BITMAP
F8
8C
84
84
84
8C
F8
00
20
ENDCHAR
STARTCHAR ddotbelow
ENCODING 7693
SWIDTH 610 0
DWIDTH 6 0
BBX 5 9 0 -2
BITMAP
08
08
78
88
88
88
78
00
10
ENDCHAR
STARTCHAR Dlinebelow
ENCODING 7694
SWIDTH 722 0
DWIDTH 8 0
BBX 6 9 1 -2
BITMAP
F8
8C
84
84
84
8C
F8
00
78
ENDCHAR
STARTCHAR dlinebelow
ENCODING 7695
SWIDTH 610 0
DWIDTH 6 0
BBX 6 9 0 -2
BITMAP
08
08
78
88
88
88
78
00
7C
ENDCHAR
STARTCHAR Dcedilla
ENCODING 7696
SWIDTH 722 0
DWIDTH 8 0
BBX 6 11 1 -4
BITMAP
F8
8C
84
84
84
8C
F8
00
20
20
20
ENDCHAR
STARTCHAR dcedilla
ENCODING 7697
SWIDTH 610 0
DWIDTH 6 0
BBX 5 11 0 -4
BITMAP
08
08
78
88
88
88
78
00
10
20
20
ENDCHAR
STARTCHAR Dcircumflexbelow
ENCODING 7698
SWIDTH 722 0
DWIDTH 8 0
BBX 6 10 1 -3
BITMAP
F8
8C
84
84
84
8C
F8
30
50
08
ENDCHAR
STARTCHAR dcircumflexbelow
ENCODING 7699
SWIDTH 610 0
DWIDTH 6 0
BBX 6 10 0 -3
BITMAP
08
08
78
88
88
88
78
10
28
04
ENDCHAR
STARTCHAR Emacrongrave
ENCODING 7700
SWIDTH 666 0
DWIDTH 7 0
BBX 5 10 1 0
BITMAP
60
78
00
F8
80
80
F0
80
80
F8
ENDCHAR
STARTCHAR emacrongrave
ENCODING 7701
SWIDTH 556 0
DWIDTH 6 0
BBX 5 8 0 0
BITMAP
60
78
00
70
88
F8
90
78
ENDCHAR
STARTCHAR Emacronacute
ENCODING 7702
SWIDTH 666 0
DWIDTH 7 0
BBX 5 10 1 0
BITMAP
10
78
00
F8
80
80
F0
80
80
F8
ENDCHAR
STARTCHAR emacronacute
ENCODING 7703
SWIDTH 556 0
DWIDTH 6 0
BBX 5 8 0 0
BITMAP
18
78
00
70
88
F8
90
78
ENDCHAR
STARTCHAR Ecircumflexbelow
ENCODING 7704
SWIDTH 666 0
DWIDTH 7 0
BBX 5 10 1 -3
BITMAP
F8
80
80
F0
80
80
F8
30
28
40
ENDCHAR
STARTCHAR ecircumflexbelow
ENCODING 7705
SWIDTH 556 0
DWIDTH 6 0
BBX 5 8 0 -3
BITMAP
70
88
F8
90
78
10
28
40
ENDCHAR
STARTCHAR Etildebelow
ENCODING 7706
SWIDTH 666 0
DWIDTH 7 0
BBX 5 9 1 -2
BITMAP
F8
80
80
F0
80
80
F8
00
78
ENDCHAR
STARTCHAR etildebelow
ENCODING 7707
SWIDTH 556 0
DWIDTH 6 0
BBX 5 8 0 -3
BITMAP
70
88
F8
90
78
00
38
40
ENDCHAR
STARTCHAR Ecedillabreve
ENCODING 7708
SWIDTH 666 0
DWIDTH 7 0
BBX 5 13 1 -3
BITMAP
48
78
00
F8
80
80
F0
80
80
F8
40
20
60
ENDCHAR
STARTCHAR ecedillabreve
ENCODING 7709
SWIDTH 556 0
DWIDTH 6 0
BBX 5 11 0 -3
BITMAP
48
38
00
70
88
F8
90
78
40
20
60
ENDCHAR
STARTCHAR Fdotaccent
ENCODING 7710
SWIDTH 610 0
DWIDTH 6 0
BBX 5 9 1 0
BITMAP
20
00
F8
80
80
F8
80
80
80
ENDCHAR
STARTCHAR fdotaccent
ENCODING 7711
SWIDTH 333 0
DWIDTH 3 0
BBX 3 9 0 0
BITMAP
20
00
60
40
E0
40
40
40
40
ENDCHAR
STARTCHAR Gmacron
ENCODING 7712
SWIDTH 777 0
DWIDTH 8 0
BBX 7 9 0 0
BITMAP
1E
00
3C
42
80
8E
82
46
3A
ENDCHAR
STARTCHAR gmacron
ENCODING 7713
SWIDTH 610 0
DWIDTH 6 0
BBX 5 9 0 -2
BITMAP
78
00
78
88
88
88
78
88
70
ENDCHAR
STARTCHAR Hdotaccent
ENCODING 7714
SWIDTH 722 0
DWIDTH 8 0
BBX 6 9 1 0
BITMAP
20
00
84
84
84
FC
84
84
84
ENDCHAR
STARTCHAR hdotaccent
ENCODING 7715
SWIDTH 610 0
DWIDTH 6 0
BBX 5 8 0 0
BITMAP
10
80
80
F0
88
88
88
88
ENDCHAR
STARTCHAR Hdotbelow
ENCODING 7716
SWIDTH 722 0
DWIDTH 8 0
BBX 6 9 1 -2
BITMAP
84
84
84
FC
84
84
84
00
20
ENDCHAR
STARTCHAR hdotbelow
ENCODING 7717
SWIDTH 610 0
DWIDTH 6 0
BBX 5 9 0 -2
BITMAP
80
80
F0
88
88
88
88
00
10
ENDCHAR
STARTCHAR Hdieresis
ENCODING 7718
SWIDTH 722 0
DWIDTH 8 0
BBX 6 9 1 0
BITMAP
50
00
84
84
84
FC
84
84
84
ENDCHAR
STARTCHAR hdieresis
ENCODING 7719
SWIDTH 610 0
DWIDTH 6 0
BBX 5 9 0 0
BITMAP
28
00
80
80
F0
88
88
88
88
ENDCHAR
STARTCHAR Hcedilla
ENCODING 7720
SWIDTH 722 0
DWIDTH 8 0
BBX 6 10 1 -3
BITMAP
84
84
84
FC
84
84
84
80
80
C0
ENDCHAR
STARTCHAR hcedilla
ENCODING 7721
SWIDTH 610 0
DWIDTH 6 0
BBX 5 10 0 -3
BITMAP
80
80
F0
88
88
88
88
80
40
C0
ENDCHAR
STARTCHAR Hbrevebelow
ENCODING 7722
SWIDTH 722 0
DWIDTH 8 0
BBX 6 9 1 -2
BITMAP
84
84
84
FC
84
84
84
48
38
ENDCHAR
STARTCHAR hbrevebelow
ENCODING 7723
SWIDTH 610 0
DWIDTH 6 0
BBX 6 9 0 -2
BITMAP
80
80
F0
88
88
88
88
44
38
ENDCHAR
STARTCHAR Itildebelow
ENCODING 7724
SWIDTH 277 0
DWIDTH 3 0
BBX 4 9 0 -2
BITMAP
40
40
40
40
40
40
40
00
F0
ENDCHAR
STARTCHAR itildebelow
ENCODING 7725
SWIDTH 277 0
DWIDTH 2 0
BBX 4 9 0 -2
BITMAP
80
00
80
80
80
80
80
00
F0
ENDCHAR
STARTCHAR Idieresisacute
ENCODING 7726
SWIDTH 277 0
DWIDTH 3 0
BBX 3 11 0 0
BITMAP
20
40
A0
00
40
40
40
40
40
40
40
ENDCHAR
STARTCHAR idieresisacute
ENCODING 7727
SWIDTH 277 0
DWIDTH 2 0
BBX 3 9 0 0
BITMAP
20
40
A0
00
80
80
80
80
80
ENDCHAR
STARTCHAR Kacute
ENCODING 7728
SWIDTH 722 0
DWIDTH 7 0
BBX 6 9 1 0
BITMAP
10
20
88
90
A0
E0
90
90
8C
ENDCHAR
STARTCHAR kacute
ENCODING 7729
SWIDTH 556 0
DWIDTH 5 0
BBX 4 9 1 0
BITMAP
30
00
80
80
A0
C0
C0
A0
A0
ENDCHAR
STARTCHAR Kdotbelow
ENCODING 7730
SWIDTH 722 0
DWIDTH 7 0
BBX 6 9 1 -2
BITMAP
88
90
A0
E0
90
90
88
04
20
ENDCHAR
STARTCHAR kdotbelow
ENCODING 7731
SWIDTH 556 0
DWIDTH 5 0
BBX 3 9 1 -2
BITMAP
80
80
A0
C0
C0
A0
A0
00
40
ENDCHAR
STARTCHAR Klinebelow
ENCODING 7732
SWIDTH 722 0
DWIDTH 7 0
BBX 6 9 1 -2
BITMAP
88
90
A0
E0
90
90
88
04
78
ENDCHAR
STARTCHAR klinebelow
ENCODING 7733
SWIDTH 556 0
DWIDTH 5 0
BBX 4 9 1 -2
BITMAP
80
80
A0
C0
C0
A0
A0
00
F0
ENDCHAR
STARTCHAR Ldotbelow
ENCODING 7734
SWIDTH 610 0
DWIDTH 6 0
BBX 5 9 1 -2
BITMAP
80
80
80
80
80
80
F8
00
20
ENDCHAR
STARTCHAR ldotbelow
ENCODING 7735
SWIDTH 277 0
DWIDTH 2 0
BBX 2 9 0 -2
BITMAP
80
80
80
80
80
80
80
00
40
ENDCHAR
STARTCHAR Ldotbelowmacron
ENCODING 7736
SWIDTH 610 0
DWIDTH 6 0
BBX 5 11 1 -2
BITMAP
78
00
80
80
80
80
80
80
F8
00
20
ENDCHAR
STARTCHAR ldotbelowmacron
ENCODING 7737
SWIDTH 277 0
DWIDTH 2 0
BBX 4 11 0 -2
BITMAP
F0
00
80
80
80
80
80
80
80
00
40
ENDCHAR
STARTCHAR Llinebelow
ENCODING 7738
SWIDTH 610 0
DWIDTH 6 0
BBX 5 9 1 -2
BITMAP
80
80
80
80
80
80
F8
00
78
ENDCHAR
STARTCHAR llinebelow
ENCODING 7739
SWIDTH 277 0
DWIDTH 2 0
BBX 4 9 0 -2
BITMAP
80
80
80
80
80
80
80
00
F0
ENDCHAR
STARTCHAR Lcircumflexbelow
ENCODING 7740
SWIDTH 610 0
DWIDTH 6 0
BBX 5 10 1 -3
BITMAP
80
80
80
80
80
80
F8
30
50
08
ENDCHAR
STARTCHAR lcircumflexbelow
ENCODING 7741
SWIDTH 277 0
DWIDTH 2 0
BBX 4 9 0 -2
BITMAP
80
80
80
80
80
80
80
60
90
ENDCHAR
STARTCHAR Macute
ENCODING 7742
SWIDTH 833 0
DWIDTH 9 0
BBX 7 9 1 0
BITMAP
18
00
C6
C6
AA
AA
AA
AA
92
ENDCHAR
STARTCHAR macute
ENCODING 7743
SWIDTH 889 0
DWIDTH 8 0
BBX 7 7 0 0
BITMAP
04
08
FC
92
92
92
92
ENDCHAR
STARTCHAR Mdotaccent
ENCODING 7744
SWIDTH 833 0
DWIDTH 9 0
BBX 7 9 1 0
BITMAP
10
00
C6
C6
AA
AA
AA
AA
92
ENDCHAR
STARTCHAR mdotaccent
ENCODING 7745
SWIDTH 889 0
DWIDTH 8 0
BBX 7 7 0 0
BITMAP
08
00
FC
92
92
92
92
ENDCHAR
STARTCHAR Mdotbelow
ENCODING 7746
SWIDTH 833 0
DWIDTH 9 0
BBX 7 9 1 -2
BITMAP
C6
C6
AA
AA
AA
AA
92
00
10
ENDCHAR
STARTCHAR mdotbelow
ENCODING 7747
SWIDTH 889 0
DWIDTH 8 0
BBX 7 7 0 -2
BITMAP
FC
92
92
92
92
00
08
ENDCHAR
STARTCHAR Ndotaccent
ENCODING 7748
SWIDTH 722 0
DWIDTH 8 0
BBX 6 9 1 0
BITMAP
20
00
C4
C4
A4
94
94
8C
84
ENDCHAR
STARTCHAR ndotaccent
ENCODING 7749
SWIDTH 610 0
DWIDTH 6 0
BBX 5 7 0 0
BITMAP
10
00
F0
88
88
88
88
ENDCHAR
STARTCHAR Ndotbelow
ENCODING 7750
SWIDTH 722 0
DWIDTH 8 0
BBX 6 9 1 -2
BITMAP
C4
C4
A4
94
94
8C
84
00
20
ENDCHAR
STARTCHAR ndotbelow
ENCODING 7751
SWIDTH 610 0
DWIDTH 6 0
BBX 5 7 0 -2
BITMAP
F0
88
88
88
88
00
10
ENDCHAR
STARTCHAR Nlinebelow
ENCODING 7752
SWIDTH 722 0
DWIDTH 8 0
BBX 6 9 1 -2
BITMAP
C4
C4
A4
94
94
8C
84
00
78
ENDCHAR
STARTCHAR nlinebelow
ENCODING 7753
SWIDTH 610 0
DWIDTH 6 0
BBX 6 7 0 -2
BITMAP
F0
88
88
88
88
00
3C
ENDCHAR
STARTCHAR Ncircumflexbelow
ENCODING 7754
SWIDTH 722 0
DWIDTH 8 0
BBX 6 10 1 -3
BITMAP
C4
C4
A4
94
94
8C
84
10
28
40
ENDCHAR
STARTCHAR ncircumflexbelow
ENCODING 7755
SWIDTH 610 0
DWIDTH 6 0
BBX 6 8 0 -3
BITMAP
F0
88
88
88
88
10
28
04
ENDCHAR
STARTCHAR Otildeacute
ENCODING 7756
SWIDTH 777 0
DWIDTH 9 0
BBX 7 11 1 0
BITMAP
18
00
3C
40
7C
C6
82
82
82
C6
7C
ENDCHAR
STARTCHAR otildeacute
ENCODING 7757
SWIDTH 610 0
DWIDTH 6 0
BBX 6 9 0 0
BITMAP
18
00
3C
00
70
88
88
88
70
ENDCHAR
STARTCHAR Otildedieresis
ENCODING 7758
SWIDTH 777 0
DWIDTH 9 0
BBX 7 11 1 0
BITMAP
28
00
3C
00
7C
C6
82
82
82
C6
7C
ENDCHAR
STARTCHAR otildedieresis
ENCODING 7759
SWIDTH 610 0
DWIDTH 6 0
BBX 6 9 0 0
BITMAP
28
00
3C
00
70
88
88
88
70
ENDCHAR
STARTCHAR Omacrongrave
ENCODING 7760
SWIDTH 777 0
DWIDTH 9 0
BBX 7 10 1 0
BITMAP
60
3C
00
7C
C6
82
82
82
C6
7C
ENDCHAR
STARTCHAR omacrongrave
ENCODING 7761
SWIDTH 610 0
DWIDTH 6 0
BBX 6 9 0 0
BITMAP
60
00
3C
00
70
88
88
88
70
ENDCHAR
STARTCHAR Omacronacute
ENCODING 7762
SWIDTH 777 0
DWIDTH 9 0
BBX 7 10 1 0
BITMAP
18
3C
00
7C
C6
82
82
82
C6
7C
ENDCHAR
STARTCHAR omacronacute
ENCODING 7763
SWIDTH 610 0
DWIDTH 6 0
BBX 6 8 0 0
BITMAP
18
3C
00
70
88
88
88
70
ENDCHAR
STARTCHAR Pacute
ENCODING 7764
SWIDTH 666 0
DWIDTH 7 0
BBX 5 9 1 0
BITMAP
30
00
F0
88
88
F0
80
80
80
ENDCHAR
STARTCHAR pacute
ENCODING 7765
SWIDTH 610 0
DWIDTH 6 0
BBX 5 9 0 -2
BITMAP
18
00
F0
88
88
88
F0
80
80
ENDCHAR
STARTCHAR Pdotaccent
ENCODING 7766
SWIDTH 666 0
DWIDTH 7 0
BBX 5 9 1 0
BITMAP
20
00
F0
88
88
F0
80
80
80
ENDCHAR
STARTCHAR pdotaccent
ENCODING 7767
SWIDTH 610 0
DWIDTH 6 0
BBX 5 9 0 -2
BITMAP
10
00
F0
88
88
88
F0
80
80
ENDCHAR
STARTCHAR Rdotaccent
ENCODING 7768
SWIDTH 722 0
DWIDTH 8 0
BBX 6 9 1 0
BITMAP
20
00
F8
84
84
F8
84
84
84
ENDCHAR
STARTCHAR rdotaccent
ENCODING 7769
SWIDTH 389 0
DWIDTH 3 0
BBX 3 7 0 0
BITMAP
40
00
E0
80
80
80
80
ENDCHAR
STARTCHAR Rdotbelow
ENCODING 7770
SWIDTH 722 0
DWIDTH 8 0
BBX 6 9 1 -2
BITMAP
F8
84
84
F8
84
84
84
00
20
ENDCHAR
STARTCHAR rdotbelow
ENCODING 7771
SWIDTH 389 0
DWIDTH 3 0
BBX 3 7 0 -2
BITMAP
E0
80
80
80
80
00
40
ENDCHAR
STARTCHAR Rdotbelowmacron
ENCODING 7772
SWIDTH 722 0
DWIDTH 8 0
BBX 6 11 1 -2
BITMAP
78
00
F8
84
84
F8
84
84
84
00
20
ENDCHAR
STARTCHAR rdotbelowmacron
ENCODING 7773
SWIDTH 389 0
DWIDTH 3 0
BBX 5 9 0 -2
BITMAP
78
00
E0
80
80
80
80
00
40
ENDCHAR
STARTCHAR Rlinebelow
ENCODING 7774
SWIDTH 722 0
DWIDTH 8 0
BBX 6 9 1 -2
BITMAP
F8
84
84
F8
84
84
84
00
78
ENDCHAR
STARTCHAR rlinebelow
ENCODING 7775
SWIDTH 389 0
DWIDTH 3 0
BBX 4 7 0 -2
BITMAP
E0
80
80
80
80
00
F0
ENDCHAR
STARTCHAR Sdotaccent
ENCODING 7776
SWIDTH 666 0
DWIDTH 7 0
BBX 6 9 0 0
BITMAP
10
00
78
84
80
78
04
84
78
ENDCHAR
STARTCHAR sdotaccent
ENCODING 7777
SWIDTH 556 0
DWIDTH 6 0
BBX 5 7 0 0
BITMAP
20
00
70
88
78
88
78
ENDCHAR
STARTCHAR Sdotbelow
ENCODING 7778
SWIDTH 666 0
DWIDTH 7 0
BBX 6 9 0 -2
BITMAP
78
84
80
78
04
84
78
00
10
ENDCHAR
STARTCHAR sdotbelow
ENCODING 7779
SWIDTH 556 0
DWIDTH 6 0
BBX 5 7 0 -2
BITMAP
70
88
78
88
78
00
20
ENDCHAR
STARTCHAR Sacutedotaccent
ENCODING 7780
SWIDTH 666 0
DWIDTH 7 0
BBX 6 11 0 0
BITMAP
10
00
18
00
78
84
80
78
04
84
78
ENDCHAR
STARTCHAR sacutedotaccent
ENCODING 7781
SWIDTH 556 0
DWIDTH 6 0
BBX 5 9 0 0
BITMAP
10
00
10
20
70
88
78
88
78
ENDCHAR
STARTCHAR Scarondotaccent
ENCODING 7782
SWIDTH 666 0
DWIDTH 7 0
BBX 6 11 0 0
BITMAP
10
28
10
00
78
84
80
78
04
84
78
ENDCHAR
STARTCHAR scarondotaccent
ENCODING 7783
SWIDTH 556 0
DWIDTH 6 0
BBX 5 9 0 0
BITMAP
20
58
30
00
70
88
78
88
78
ENDCHAR
STARTCHAR Sdotbelowdotaccent
ENCODING 7784
SWIDTH 666 0
DWIDTH 7 0
BBX 6 11 0 -2
BITMAP
10
00
78
84
80
78
04
84
78
00
10
ENDCHAR
STARTCHAR sdotbelowdotaccent
ENCODING 7785
SWIDTH 556 0
DWIDTH 6 0
BBX 5 9 0 -2
BITMAP
20
00
70
88
78
88
78
00
20
ENDCHAR
STARTCHAR Tdotaccent
ENCODING 7786
SWIDTH 610 0
DWIDTH 5 0
BBX 5 9 0 0
BITMAP
10
00
F8
20
20
20
20
20
20
ENDCHAR
STARTCHAR tdotaccent
ENCODING 7787
SWIDTH 333 0
DWIDTH 4 0
BBX 3 8 0 0
BITMAP
40
00
40
E0
40
40
40
60
ENDCHAR
STARTCHAR Tdotbelow
ENCODING 7788
SWIDTH 610 0
DWIDTH 5 0
BBX 5 9 0 -2
BITMAP
F8
20
20
20
20
20
20
00
10
ENDCHAR
STARTCHAR tdotbelow
ENCODING 7789
SWIDTH 333 0
DWIDTH 4 0
BBX 3 8 0 -2
BITMAP
40
E0
40
40
40
60
00
40
ENDCHAR
STARTCHAR Tlinebelow
ENCODING 7790
SWIDTH 610 0
DWIDTH 5 0
BBX 6 9 0 -2
BITMAP
F8
20
20
20
20
20
20
00
3C
ENDCHAR
STARTCHAR tlinebelow
ENCODING 7791
SWIDTH 333 0
DWIDTH 4 0
BBX 4 8 0 -2
BITMAP
40
E0
40
40
40
60
00
F0
ENDCHAR
STARTCHAR Tcircumflexbelow
ENCODING 7792
SWIDTH 610 0
DWIDTH 5 0
BBX 6 10 0 -3
BITMAP
F8
20
20
20
20
20
20
10
28
04
ENDCHAR
STARTCHAR tcircumflexbelow
ENCODING 7793
SWIDTH 333 0
DWIDTH 4 0
BBX 5 9 0 -3
BITMAP
40
E0
40
40
40
60
20
50
08
ENDCHAR
STARTCHAR Udieresisbelow
ENCODING 7794
SWIDTH 722 0
DWIDTH 8 0
BBX 6 9 1 -2
BITMAP
84
84
84
84
84
84
78
00
50
ENDCHAR
STARTCHAR udieresisbelow
ENCODING 7795
SWIDTH 610 0
DWIDTH 6 0
BBX 5 7 0 -2
BITMAP
88
88
88
88
78
00
28
ENDCHAR
STARTCHAR Utildebelow
ENCODING 7796
SWIDTH 722 0
DWIDTH 8 0
BBX 6 10 1 -3
BITMAP
84
84
84
84
84
84
78
00
38
40
ENDCHAR
STARTCHAR utildebelow
ENCODING 7797
SWIDTH 610 0
DWIDTH 6 0
BBX 6 7 0 -2
BITMAP
88
88
88
88
78
00
3C
ENDCHAR
STARTCHAR Ucircumflexbelow
ENCODING 7798
SWIDTH 722 0
DWIDTH 8 0
BBX 6 10 1 -3
BITMAP
84
84
84
84
84
84
78
10
28
40
ENDCHAR
STARTCHAR ucircumflexbelow
ENCODING 7799
SWIDTH 610 0
DWIDTH 6 0
BBX 6 8 0 -3
BITMAP
88
88
88
88
78
10
28
04
ENDCHAR
STARTCHAR Utildeacute
ENCODING 7800
SWIDTH 722 0
DWIDTH 8 0
BBX 6 11 1 0
BITMAP
10
20
38
40
84
84
84
84
84
84
78
ENDCHAR
STARTCHAR utildeacute
ENCODING 7801
SWIDTH 610 0
DWIDTH 6 0
BBX 6 9 0 0
BITMAP
18
00
3C
00
88
88
88
88
78
ENDCHAR
STARTCHAR Umacrondieresis
ENCODING 7802
SWIDTH 722 0
DWIDTH 8 0
BBX 6 10 1 0
BITMAP
50
78
00
84
84
84
84
84
84
78
ENDCHAR
STARTCHAR umacrondieresis
ENCODING 7803
SWIDTH 610 0
DWIDTH 6 0
BBX 6 8 0 0
BITMAP
28
3C
00
88
88
88
88
78
ENDCHAR
STARTCHAR Vtilde
ENCODING 7804
SWIDTH 666 0
DWIDTH 7 0
BBX 5 9 1 0
BITMAP
78
00
88
88
50
50
50
20
20
ENDCHAR
STARTCHAR vtilde
ENCODING 7805
SWIDTH 556 0
DWIDTH 7 0
BBX 5 7 1 0
BITMAP
78
00
88
50
50
50
20
ENDCHAR
STARTCHAR Vdotbelow
ENCODING 7806
SWIDTH 666 0
DWIDTH 7 0
BBX 5 9 1 -2
BITMAP
88
88
50
50
50
20
20
00
20
ENDCHAR
STARTCHAR vdotbelow
ENCODING 7807
SWIDTH 556 0
DWIDTH 7 0
BBX 5 7 1 -2
BITMAP
88
50
50
50
20
00
40
ENDCHAR
STARTCHAR Wgrave
ENCODING 7808
SWIDTH 943 0
DWIDTH 11 0
BBX 9 9 1 0
BITMAP
3000
0000
8880
5500
5500
5500
5500
2200
2200
ENDCHAR
STARTCHAR wgrave
ENCODING 7809
SWIDTH 777 0
DWIDTH 8 0
BBX 8 7 0 0
BITMAP
30
00
DB
5A
5A
6E
64
ENDCHAR
STARTCHAR Wacute
ENCODING 7810
SWIDTH 943 0
DWIDTH 11 0
BBX 9 9 1 0
BITMAP
0C00
0000
8880
5500
5500
5500
5500
2200
2200
ENDCHAR
STARTCHAR wacute
ENCODING 7811
SWIDTH 777 0
DWIDTH 8 0
BBX 8 7 0 0
BITMAP
0C
00
DB
5A
5A
6E
64
ENDCHAR
STARTCHAR Wdieresis
ENCODING 7812
SWIDTH 943 0
DWIDTH 11 0
BBX 9 9 1 0
BITMAP
2800
0000
8880
5500
5500
5500
5500
2200
2200
ENDCHAR
STARTCHAR wdieresis
ENCODING 7813
SWIDTH 777 0
DWIDTH 8 0
BBX 8 7 0 0
BITMAP
28
00
DB
5A
5A
6E
64
ENDCHAR
STARTCHAR Wdotaccent
ENCODING 7814
SWIDTH 943 0
DWIDTH 11 0
BBX 9 9 1 0
BITMAP
1000
0000
8880
5500
5500
5500
5500
2200
2200
ENDCHAR
STARTCHAR wdotaccent
ENCODING 7815
SWIDTH 777 0
DWIDTH 8 0
BBX 8 7 0 0
BITMAP
18
00
DB
5A
5A
6E
64
ENDCHAR
STARTCHAR Wdotbelow
ENCODING 7816
SWIDTH 943 0
DWIDTH 11 0
BBX 9 9 1 -2
BITMAP
8880
5500
5500
5500
5500
2200
2200
0000
1000
ENDCHAR
STARTCHAR wdotbelow
ENCODING 7817
SWIDTH 777 0
DWIDTH 8 0
BBX 8 7 0 -2
BITMAP
DB
5A
5A
6E
64
00
10
ENDCHAR
STARTCHAR Xdotaccent
ENCODING 7818
SWIDTH 666 0
DWIDTH 7 0
BBX 7 9 0 0
BITMAP
10
00
C6
44
28
10
28
44
C6
ENDCHAR
STARTCHAR xdotaccent
ENCODING 7819
SWIDTH 556 0
DWIDTH 6 0
BBX 6 7 0 0
BITMAP
20
00
CC
30
30
30
4C
ENDCHAR
STARTCHAR Xdieresis
ENCODING 7820
SWIDTH 666 0
DWIDTH 7 0
BBX 7 9 0 0
BITMAP
28
00
C6
44
28
10
28
44
C6
ENDCHAR
STARTCHAR xdieresis
ENCODING 7821
SWIDTH 556 0
DWIDTH 6 0
BBX 6 7 0 0
BITMAP
50
00
CC
30
30
30
4C
ENDCHAR
STARTCHAR Ydotaccent
ENCODING 7822
SWIDTH 666 0
DWIDTH 5 0
BBX 5 9 0 0
BITMAP
10
00
D8
50
50
20
20
20
20
ENDCHAR
STARTCHAR ydotaccent
ENCODING 7823
SWIDTH 556 0
DWIDTH 7 0
BBX 5 9 1 -2
BITMAP
40
00
88
50
50
50
20
20
C0
ENDCHAR
STARTCHAR Zcircumflex
ENCODING 7824
SWIDTH 610 0
DWIDTH 6 0
BBX 6 10 0 0
BITMAP
10
28
04
FC
08
10
20
40
80
FC
ENDCHAR
STARTCHAR zcircumflex
ENCODING 7825
SWIDTH 500 0
DWIDTH 5 0
BBX 5 8 0 0
BITMAP
30
28
40
F8
10
20
40
F8
ENDCHAR
STARTCHAR Zdotbelow
ENCODING 7826
SWIDTH 610 0
DWIDTH 6 0
BBX 6 9 0 -2
BITMAP
FC
08
10
20
40
80
FC
00
10
ENDCHAR
STARTCHAR zdotbelow
ENCODING 7827
SWIDTH 500 0
DWIDTH 5 0
BBX 5 7 0 -2
BITMAP
F8
10
20
40
F8
00
20
ENDCHAR
STARTCHAR Zlinebelow
ENCODING 7828
SWIDTH 610 0
DWIDTH 6 0
BBX 6 9 0 -2
BITMAP
FC
08
10
20
40
80
FC
00
3C
ENDCHAR
STARTCHAR zlinebelow
ENCODING 7829
SWIDTH 500 0
DWIDTH 5 0
BBX 5 7 0 -2
BITMAP
F8
10
20
40
F8
00
78
ENDCHAR
STARTCHAR hlinebelow
ENCODING 7830
SWIDTH 610 0
DWIDTH 6 0
BBX 6 9 0 -2
BITMAP
80
80
F0
88
88
88
88
00
3C
ENDCHAR
STARTCHAR tdieresis
ENCODING 7831
SWIDTH 333 0
DWIDTH 4 0
BBX 3 8 0 0
BITMAP
A0
00
40
E0
40
40
40
60
ENDCHAR
STARTCHAR wring
ENCODING 7832
SWIDTH 777 0
DWIDTH 8 0
BBX 8 8 0 0
BITMAP
08
18
00
DB
5A
5A
6E
64
ENDCHAR
STARTCHAR yring
ENCODING 7833
SWIDTH 556 0
DWIDTH 7 0
BBX 5 10 1 -2
BITMAP
20
60
00
88
50
50
50
20
20
C0
ENDCHAR
STARTCHAR arighthalfring
ENCODING 7834
SWIDTH 556 0
DWIDTH 6 0
BBX 5 8 0 0
BITMAP
20
20
78
48
78
E8
88
78
ENDCHAR
STARTCHAR slongdotaccent
ENCODING 7835
SWIDTH 333 0
DWIDTH 3 0
BBX 3 9 0 0
BITMAP
20
00
60
40
C0
40
40
40
40
ENDCHAR
STARTCHAR Adotbelow
ENCODING 7840
SWIDTH 722 0
DWIDTH 7 0
BBX 5 9 1 -2
BITMAP
20
70
50
50
70
88
88
00
20
ENDCHAR
STARTCHAR adotbelow
ENCODING 7841
SWIDTH 556 0
DWIDTH 6 0
BBX 5 7 0 -2
BITMAP
78
88
78
88
F8
00
20
ENDCHAR
STARTCHAR Ahookabove
ENCODING 7842
SWIDTH 722 0
DWIDTH 7 0
BBX 5 9 1 0
BITMAP
30
20
20
70
50
50
70
88
88
ENDCHAR
STARTCHAR ahookabove
ENCODING 7843
SWIDTH 556 0
DWIDTH 6 0
BBX 5 8 0 0
BITMAP
30
10
20
78
88
78
88
F8
ENDCHAR
STARTCHAR Acircumflexacute
ENCODING 7844
SWIDTH 728 0
DWIDTH 7 0
BBX 6 10 1 0
BITMAP
1C
28
40
20
70
50
50
70
88
88
ENDCHAR
STARTCHAR acircumflexacute
ENCODING 7845
SWIDTH 615 0
DWIDTH 6 0
BBX 6 8 0 0
BITMAP
1C
28
40
78
88
78
88
F8
ENDCHAR
STARTCHAR Acircumflexgrave
ENCODING 7846
SWIDTH 729 0
DWIDTH 7 0
BBX 6 10 0 0
BITMAP
18
E4
00
10
18
28
28
38
44
44
ENDCHAR
STARTCHAR acircumflexgrave
ENCODING 7847
SWIDTH 582 0
DWIDTH 6 0
BBX 6 8 0 0
BITMAP
90
68
04
78
88
78
88
78
ENDCHAR
STARTCHAR Acircumflexhookabove
ENCODING 7848
SWIDTH 722 0
DWIDTH 7 0
BBX 5 10 1 0
BITMAP
08
18
28
60
70
50
50
70
88
88
ENDCHAR
STARTCHAR acircumflexhookabove
ENCODING 7849
SWIDTH 568 0
DWIDTH 6 0
BBX 5 8 0 0
BITMAP
18
28
40
78
88
78
88
F8
ENDCHAR
STARTCHAR Acircumflextilde
ENCODING 7850
SWIDTH 722 0
DWIDTH 7 0
BBX 5 10 1 0
BITMAP
38
68
40
20
70
50
50
70
88
88
ENDCHAR
STARTCHAR acircumflextilde
ENCODING 7851
SWIDTH 556 0
DWIDTH 6 0
BBX 5 9 0 0
BITMAP
38
50
28
40
78
88
78
88
F8
ENDCHAR
STARTCHAR Acircumflexdotbelow
ENCODING 7852
SWIDTH 722 0
DWIDTH 7 0
BBX 5 12 1 -2
BITMAP
10
28
40
20
70
50
50
70
88
88
00
20
ENDCHAR
STARTCHAR acircumflexdotbelow
ENCODING 7853
SWIDTH 556 0
DWIDTH 6 0
BBX 5 10 0 -2
BITMAP
10
28
40
78
88
78
88
F8
00
20
ENDCHAR
STARTCHAR Abreveacute
ENCODING 7854
SWIDTH 722 0
DWIDTH 7 0
BBX 5 10 1 0
BITMAP
58
38
00
20
70
50
50
70
88
88
ENDCHAR
STARTCHAR abreveacute
ENCODING 7855
SWIDTH 556 0
DWIDTH 6 0
BBX 5 9 0 0
BITMAP
18
48
38
00
78
88
78
88
F8
ENDCHAR
STARTCHAR Abrevegrave
ENCODING 7856
SWIDTH 722 0
DWIDTH 7 0
BBX 5 10 1 0
BITMAP
68
38
00
20
70
50
50
70
88
88
ENDCHAR
STARTCHAR abrevegrave
ENCODING 7857
SWIDTH 556 0
DWIDTH 6 0
BBX 5 8 0 0
BITMAP
68
38
00
78
88
78
88
F8
ENDCHAR
STARTCHAR Abrevehookabove
ENCODING 7858
SWIDTH 722 0
DWIDTH 7 0
BBX 5 11 1 0
BITMAP
30
68
38
00
20
70
50
50
70
88
88
ENDCHAR
STARTCHAR abrevehookabove
ENCODING 7859
SWIDTH 556 0
DWIDTH 6 0
BBX 5 9 0 0
BITMAP
30
58
38
00
78
88
78
88
F8
ENDCHAR
STARTCHAR Abrevetilde
ENCODING 7860
SWIDTH 722 0
DWIDTH 7 0
BBX 5 10 1 0
BITMAP
78
38
00
20
70
50
50
70
88
88
ENDCHAR
STARTCHAR abrevetilde
ENCODING 7861
SWIDTH 556 0
DWIDTH 6 0
BBX 5 9 0 0
BITMAP
38
48
38
00
78
88
78
88
F8
ENDCHAR
STARTCHAR Abrevedotbelow
ENCODING 7862
SWIDTH 722 0
DWIDTH 7 0
BBX 5 12 1 -2
BITMAP
48
38
00
20
70
50
50
70
88
88
00
20
ENDCHAR
STARTCHAR abrevedotbelow
ENCODING 7863
SWIDTH 556 0
DWIDTH 6 0
BBX 5 10 0 -2
BITMAP
48
38
00
78
88
78
88
F8
00
20
ENDCHAR
STARTCHAR Edotbelow
ENCODING 7864
SWIDTH 666 0
DWIDTH 7 0
BBX 5 9 1 -2
BITMAP
F8
80
80
F0
80
80
F8
00
20
ENDCHAR
STARTCHAR edotbelow
ENCODING 7865
SWIDTH 556 0
DWIDTH 6 0
BBX 5 7 0 -2
BITMAP
70
88
F8
90
78
00
20
ENDCHAR
STARTCHAR Ehookabove
ENCODING 7866
SWIDTH 666 0
DWIDTH 7 0
BBX 5 9 1 0
BITMAP
20
30
F8
80
80
F0
80
80
F8
ENDCHAR
STARTCHAR ehookabove
ENCODING 7867
SWIDTH 556 0
DWIDTH 6 0
BBX 5 8 0 0
BITMAP
30
10
20
70
88
F8
90
78
ENDCHAR
STARTCHAR Etilde
ENCODING 7868
SWIDTH 666 0
DWIDTH 7 0
BBX 5 9 1 0
BITMAP
78
00
F8
80
80
F0
80
80
F8
ENDCHAR
STARTCHAR etilde
ENCODING 7869
SWIDTH 556 0
DWIDTH 6 0
BBX 5 7 0 0
BITMAP
38
40
70
88
F8
90
78
ENDCHAR
STARTCHAR Ecircumflexacute
ENCODING 7870
SWIDTH 682 0
DWIDTH 7 0
BBX 6 10 1 0
BITMAP
3C
28
40
F8
80
80
F0
80
80
F8
ENDCHAR
STARTCHAR ecircumflexacute
ENCODING 7871
SWIDTH 561 0
DWIDTH 6 0
BBX 6 8 0 0
BITMAP
1C
28
40
70
88
F8
90
78
ENDCHAR
STARTCHAR Ecircumflexgrave
ENCODING 7872
SWIDTH 666 0
DWIDTH 7 0
BBX 6 10 0 0
BITMAP
D8
14
20
7C
40
40
78
40
40
7C
ENDCHAR
STARTCHAR ecircumflexgrave
ENCODING 7873
SWIDTH 579 0
DWIDTH 6 0
BBX 6 8 0 0
BITMAP
D0
28
04
70
88
F8
90
78
ENDCHAR
STARTCHAR Ecircumflexhookabove
ENCODING 7874
SWIDTH 666 0
DWIDTH 7 0
BBX 5 11 1 0
BITMAP
08
18
28
40
F8
80
80
F0
80
80
F8
ENDCHAR
STARTCHAR ecircumflexhookabove
ENCODING 7875
SWIDTH 556 0
DWIDTH 6 0
BBX 5 9 0 0
BITMAP
08
18
28
40
70
88
F8
90
78
ENDCHAR
STARTCHAR Ecircumflextilde
ENCODING 7876
SWIDTH 666 0
DWIDTH 7 0
BBX 5 10 1 0
BITMAP
78
28
40
F8
80
80
F0
80
80
F8
ENDCHAR
STARTCHAR ecircumflextilde
ENCODING 7877
SWIDTH 556 0
DWIDTH 6 0
BBX 5 8 0 0
BITMAP
38
68
40
70
88
F8
90
78
ENDCHAR
STARTCHAR Ecircumflexdotbelow
ENCODING 7878
SWIDTH 666 0
DWIDTH 7 0
BBX 5 12 1 -2
BITMAP
30
28
40
F8
80
80
F0
80
80
F8
00
20
ENDCHAR
STARTCHAR ecircumflexdotbelow
ENCODING 7879
SWIDTH 556 0
DWIDTH 6 0
BBX 5 10 0 -2
BITMAP
10
28
40
70
88
F8
90
78
00
20
ENDCHAR
STARTCHAR Ihookabove
ENCODING 7880
SWIDTH 277 0
DWIDTH 3 0
BBX 1 10 1 0
BITMAP
80
80
00
80
80
80
80
80
80
80
ENDCHAR
STARTCHAR ihookabove
ENCODING 7881
SWIDTH 277 0
DWIDTH 2 0
BBX 2 8 0 0
BITMAP
40
40
00
80
80
80
80
80
ENDCHAR
STARTCHAR Idotbelow
ENCODING 7882
SWIDTH 277 0
DWIDTH 3 0
BBX 1 9 1 -2
BITMAP
80
80
80
80
80
80
80
00
80
ENDCHAR
STARTCHAR idotbelow
ENCODING 7883
SWIDTH 277 0
DWIDTH 2 0
BBX 2 9 0 -2
BITMAP
80
00
80
80
80
80
80
00
40
ENDCHAR
STARTCHAR Odotbelow
ENCODING 7884
SWIDTH 777 0
DWIDTH 9 0
BBX 7 9 1 -2
BITMAP
7C
C6
82
82
82
C6
7C
00
10
ENDCHAR
STARTCHAR odotbelow
ENCODING 7885
SWIDTH 610 0
DWIDTH 6 0
BBX 5 7 0 -2
BITMAP
70
88
88
88
70
00
10
ENDCHAR
STARTCHAR Ohookabove
ENCODING 7886
SWIDTH 777 0
DWIDTH 9 0
BBX 7 10 1 0
BITMAP
30
10
00
7C
C6
82
82
82
C6
7C
ENDCHAR
STARTCHAR ohookabove
ENCODING 7887
SWIDTH 610 0
DWIDTH 6 0
BBX 5 8 0 0
BITMAP
10
10
00
70
88
88
88
70
ENDCHAR
STARTCHAR Ocircumflexacute
ENCODING 7888
SWIDTH 777 0
DWIDTH 9 0
BBX 7 10 1 0
BITMAP
14
28
04
7C
C6
82
82
82
C6
7C
ENDCHAR
STARTCHAR ocircumflexacute
ENCODING 7889
SWIDTH 610 0
DWIDTH 6 0
BBX 6 8 0 0
BITMAP
14
28
04
70
88
88
88
70
ENDCHAR
STARTCHAR Ocircumflexgrave
ENCODING 7890
SWIDTH 777 0
DWIDTH 9 0
BBX 7 10 1 0
BITMAP
D0
28
04
7C
C6
82
82
82
C6
7C
ENDCHAR
STARTCHAR ocircumflexgrave
ENCODING 7891
SWIDTH 610 0
DWIDTH 6 0
BBX 6 8 0 0
BITMAP
D0
28
04
70
88
88
88
70
ENDCHAR
STARTCHAR Ocircumflexhookabove
ENCODING 7892
SWIDTH 777 0
DWIDTH 9 0
BBX 7 11 1 0
BITMAP
08
18
28
04
7C
C6
82
82
82
C6
7C
ENDCHAR
STARTCHAR ocircumflexhookabove
ENCODING 7893
SWIDTH 610 0
DWIDTH 6 0
BBX 6 9 0 0
BITMAP
08
18
28
04
70
88
88
88
70
ENDCHAR
STARTCHAR Ocircumflextilde
ENCODING 7894
SWIDTH 777 0
DWIDTH 9 0
BBX 7 10 1 0
BITMAP
38
68
40
7C
C6
82
82
82
C6
7C
ENDCHAR
STARTCHAR ocircumflextilde
ENCODING 7895
SWIDTH 610 0
DWIDTH 6 0
BBX 6 8 0 0
BITMAP
3C
28
04
70
88
88
88
70
ENDCHAR
STARTCHAR Ocircumflexdotbelow
ENCODING 7896
SWIDTH 777 0
DWIDTH 9 0
BBX 7 12 1 -2
BITMAP
10
28
04
7C
C6
82
82
82
C6
7C
00
10
ENDCHAR
STARTCHAR ocircumflexdotbelow
ENCODING 7897
SWIDTH 610 0
DWIDTH 6 0
BBX 6 10 0 -2
BITMAP
10
28
04
70
88
88
88
70
00
10
ENDCHAR
STARTCHAR Ohornacute
ENCODING 7898
SWIDTH 946 0
DWIDTH 9 0
BBX 8 9 1 0
BITMAP
18
02
7B
CC
CC
CC
CC
C8
78
ENDCHAR
STARTCHAR ohornacute
ENCODING 7899
SWIDTH 794 0
DWIDTH 8 0
BBX 8 7 0 0
BITMAP
18
01
7B
84
84
84
78
ENDCHAR
STARTCHAR Ohorngrave
ENCODING 7900
SWIDTH 946 0
DWIDTH 9 0
BBX 8 9 1 0
BITMAP
60
12
7B
CC
CC
CC
CC
C8
78
ENDCHAR
STARTCHAR ohorngrave
ENCODING 7901
SWIDTH 794 0
DWIDTH 8 0
BBX 8 7 0 0
BITMAP
30
01
7B
84
84
84
78
ENDCHAR
STARTCHAR Ohornhookabove
ENCODING 7902
SWIDTH 946 0
DWIDTH 9 0
BBX 8 10 1 0
BITMAP
10
10
02
7B
CC
CC
CC
CC
C8
78
ENDCHAR
STARTCHAR ohornhookabove
ENCODING 7903
SWIDTH 794 0
DWIDTH 8 0
BBX 8 8 0 0
BITMAP
10
10
01
7B
84
84
84
78
ENDCHAR
STARTCHAR Ohorntilde
ENCODING 7904
SWIDTH 946 0
DWIDTH 9 0
BBX 8 9 1 0
BITMAP
3C
02
7B
CC
CC
CC
CC
C8
78
ENDCHAR
STARTCHAR ohorntilde
ENCODING 7905
SWIDTH 794 0
DWIDTH 8 0
BBX 8 7 0 0
BITMAP
3C
01
7B
84
84
84
78
ENDCHAR
STARTCHAR Ohorndotbelow
ENCODING 7906
SWIDTH 946 0
DWIDTH 9 0
BBX 8 10 1 -2
BITMAP
02
7B
CC
CC
CC
CC
C8
78
00
10
ENDCHAR
STARTCHAR ohorndotbelow
ENCODING 7907
SWIDTH 794 0
DWIDTH 8 0
BBX 8 8 0 -2
BITMAP
01
7B
84
84
84
78
00
10
ENDCHAR
STARTCHAR Udotbelow
ENCODING 7908
SWIDTH 722 0
DWIDTH 8 0
BBX 6 9 1 -2
BITMAP
84
84
84
84
84
84
78
00
20
ENDCHAR
STARTCHAR udotbelow
ENCODING 7909
SWIDTH 610 0
DWIDTH 6 0
BBX 5 7 0 -2
BITMAP
88
88
88
88
78
00
10
ENDCHAR
STARTCHAR Uhookabove
ENCODING 7910
SWIDTH 722 0
DWIDTH 8 0
BBX 6 9 1 0
BITMAP
30
20
84
84
84
84
84
84
78
ENDCHAR
STARTCHAR uhookabove
ENCODING 7911
SWIDTH 610 0
DWIDTH 6 0
BBX 5 8 0 0
BITMAP
10
10
00
88
88
88
88
78
ENDCHAR
STARTCHAR Uhornacute
ENCODING 7912
SWIDTH 917 0
DWIDTH 9 0
BBX 7 9 1 0
BITMAP
10
3A
DE
DC
D8
D8
D8
D8
70
ENDCHAR
STARTCHAR uhornacute
ENCODING 7913
SWIDTH 805 0
DWIDTH 8 0
BBX 6 7 1 0
BITMAP
30
04
9C
98
90
90
F0
ENDCHAR
STARTCHAR Uhorngrave
ENCODING 7914
SWIDTH 917 0
DWIDTH 9 0
BBX 7 9 1 0
BITMAP
60
1A
DE
DC
D8
D8
D8
D8
70
ENDCHAR
STARTCHAR uhorngrave
ENCODING 7915
SWIDTH 805 0
DWIDTH 8 0
BBX 6 7 1 0
BITMAP
C0
24
9C
98
90
90
F0
ENDCHAR
STARTCHAR Uhornhookabove
ENCODING 7916
SWIDTH 917 0
DWIDTH 9 0
BBX 7 9 1 0
BITMAP
30
1A
FE
DC
D8
D8
D8
D8
70
ENDCHAR
STARTCHAR uhornhookabove
ENCODING 7917
SWIDTH 805 0
DWIDTH 8 0
BBX 6 7 1 0
BITMAP
20
24
9C
98
90
90
F0
ENDCHAR
STARTCHAR Uhorntilde
ENCODING 7918
SWIDTH 917 0
DWIDTH 9 0
BBX 7 9 1 0
BITMAP
38
5A
DE
DC
D8
D8
D8
D8
70
ENDCHAR
STARTCHAR uhorntilde
ENCODING 7919
SWIDTH 805 0
DWIDTH 8 0
BBX 6 7 1 0
BITMAP
78
04
9C
98
90
90
F0
ENDCHAR
STARTCHAR Uhorndotbelow
ENCODING 7920
SWIDTH 917 0
DWIDTH 9 0
BBX 7 10 1 -2
BITMAP
1A
DE
DC
D8
D8
D8
D8
70
00
20
ENDCHAR
STARTCHAR uhorndotbelow
ENCODING 7921
SWIDTH 805 0
DWIDTH 8 0
BBX 6 8 1 -2
BITMAP
04
9C
98
90
90
F0
00
20
ENDCHAR
STARTCHAR Ygrave
ENCODING 7922
SWIDTH 666 0
DWIDTH 5 0
BBX 5 9 0 0
BITMAP
30
00
D8
50
50
20
20
20
20
ENDCHAR
STARTCHAR ygrave
ENCODING 7923
SWIDTH 556 0
DWIDTH 7 0
BBX 5 9 1 -2
BITMAP
C0
00
88
50
50
50
20
20
C0
ENDCHAR
STARTCHAR Ydotbelow
ENCODING 7924
SWIDTH 666 0
DWIDTH 5 0
BBX 5 9 0 -2
BITMAP
D8
50
50
20
20
20
20
00
10
ENDCHAR
STARTCHAR ydotbelow
ENCODING 7925
SWIDTH 556 0
DWIDTH 7 0
BBX 5 9 1 -4
BITMAP
88
50
50
50
20
20
C0
00
40
ENDCHAR
STARTCHAR Yhookabove
ENCODING 7926
SWIDTH 666 0
DWIDTH 5 0
BBX 5 9 0 0
BITMAP
10
10
D8
50
50
20
20
20
20
ENDCHAR
STARTCHAR yhookabove
ENCODING 7927
SWIDTH 556 0
DWIDTH 7 0
BBX 5 10 1 -2
BITMAP
60
20
40
88
50
50
50
20
20
C0
ENDCHAR
STARTCHAR Ytilde
ENCODING 7928
SWIDTH 666 0
DWIDTH 5 0
BBX 6 9 0 0
BITMAP
3C
00
D8
50
50
20
20
20
20
ENDCHAR
STARTCHAR ytilde
ENCODING 7929
SWIDTH 556 0
DWIDTH 7 0
BBX 5 9 1 -2
BITMAP
78
00
88
50
50
50
20
20
C0
ENDCHAR
STARTCHAR uni1F00
ENCODING 7936
SWIDTH 611 0
DWIDTH 6 0
BBX 4 8 1 0
BITMAP
20
20
00
70
90
90
90
70
ENDCHAR
STARTCHAR uni1F01
ENCODING 7937
SWIDTH 611 0
DWIDTH 6 0
BBX 4 8 1 0
BITMAP
20
40
20
70
90
90
90
70
ENDCHAR
STARTCHAR uni1F02
ENCODING 7938
SWIDTH 611 0
DWIDTH 6 0
BBX 4 8 1 0
BITMAP
60
50
00
70
90
90
90
70
ENDCHAR
STARTCHAR uni1F03
ENCODING 7939
SWIDTH 611 0
DWIDTH 6 0
BBX 4 8 1 0
BITMAP
60
50
00
70
90
90
90
70
ENDCHAR
STARTCHAR uni1F04
ENCODING 7940
SWIDTH 611 0
DWIDTH 6 0
BBX 4 8 1 0
BITMAP
50
60
00
70
90
90
90
70
ENDCHAR
STARTCHAR uni1F05
ENCODING 7941
SWIDTH 611 0
DWIDTH 6 0
BBX 4 8 1 0
BITMAP
70
60
00
70
90
90
90
70
ENDCHAR
STARTCHAR uni1F06
ENCODING 7942
SWIDTH 611 0
DWIDTH 6 0
BBX 4 9 1 0
BITMAP
60
90
20
00
70
90
90
90
70
ENDCHAR
STARTCHAR uni1F07
ENCODING 7943
SWIDTH 611 0
DWIDTH 6 0
BBX 4 9 1 0
BITMAP
60
90
60
00
70
90
90
90
70
ENDCHAR
STARTCHAR uni1F08
ENCODING 7944
SWIDTH 770 0
DWIDTH 8 0
BBX 6 7 1 0
BITMAP
B0
B0
78
48
78
CC
84
ENDCHAR
STARTCHAR uni1F09
ENCODING 7945
SWIDTH 778 0
DWIDTH 8 0
BBX 7 7 1 0
BITMAP
B0
B8
28
68
7C
44
C6
ENDCHAR
STARTCHAR uni1F0A
ENCODING 7946
SWIDTH 1053 0
DWIDTH 11 0
BBX 9 7 1 0
BITMAP
E600
AE00
0A00
0B00
1F00
1180
3180
ENDCHAR
STARTCHAR uni1F0B
ENCODING 7947
SWIDTH 1014 0
DWIDTH 10 0
BBX 9 7 1 0
BITMAP
CC00
AE00
0A00
1A00
1F00
1100
3180
ENDCHAR
STARTCHAR uni1F0C
ENCODING 7948
SWIDTH 943 0
DWIDTH 9 0
BBX 8 7 1 0
BITMAP
EC
DC
1E
12
3E
23
23
ENDCHAR
STARTCHAR uni1F0D
ENCODING 7949
SWIDTH 992 0
DWIDTH 10 0
BBX 9 7 1 0
BITMAP
AC00
CE00
1E00
1200
1F00
3100
3180
ENDCHAR
STARTCHAR uni1F0E
ENCODING 7950
SWIDTH 944 0
DWIDTH 9 0
BBX 8 7 1 0
BITMAP
CC
BC
56
16
3E
23
63
ENDCHAR
STARTCHAR uni1F0F
ENCODING 7951
SWIDTH 944 0
DWIDTH 9 0
BBX 9 7 0 0
BITMAP
6600
9E00
6B00
0B00
1F00
1180
3180
ENDCHAR
STARTCHAR uni1F10
ENCODING 7952
SWIDTH 556 0
DWIDTH 6 0
BBX 4 8 1 0
BITMAP
20
20
00
F0
80
C0
90
F0
ENDCHAR
STARTCHAR uni1F11
ENCODING 7953
SWIDTH 556 0
DWIDTH 6 0
BBX 4 8 1 0
BITMAP
20
20
00
F0
80
C0
90
F0
ENDCHAR
STARTCHAR uni1F12
ENCODING 7954
SWIDTH 556 0
DWIDTH 6 0
BBX 4 8 1 0
BITMAP
60
A0
10
F0
80
C0
90
F0
ENDCHAR
STARTCHAR uni1F13
ENCODING 7955
SWIDTH 556 0
DWIDTH 6 0
BBX 4 8 1 0
BITMAP
60
A0
50
F0
80
C0
90
F0
ENDCHAR
STARTCHAR uni1F14
ENCODING 7956
SWIDTH 556 0
DWIDTH 6 0
BBX 4 8 1 0
BITMAP
70
60
00
F0
80
C0
90
F0
ENDCHAR
STARTCHAR uni1F15
ENCODING 7957
SWIDTH 556 0
DWIDTH 6 0
BBX 4 8 1 0
BITMAP
70
A0
40
F0
80
C0
90
F0
ENDCHAR
STARTCHAR uni1F18
ENCODING 7960
SWIDTH 889 0
DWIDTH 9 0
BBX 8 7 1 0
BITMAP
BF
B0
30
3E
30
30
3F
ENDCHAR
STARTCHAR uni1F19
ENCODING 7961
SWIDTH 889 0
DWIDTH 9 0
BBX 8 7 1 0
BITMAP
BF
B0
30
3E
30
30
3F
ENDCHAR
STARTCHAR uni1F1A
ENCODING 7962
SWIDTH 1099 0
DWIDTH 11 0
BBX 10 7 1 0
BITMAP
EFC0
AC00
0C00
0FC0
0C00
0C00
0FC0
ENDCHAR
STARTCHAR uni1F1B
ENCODING 7963
SWIDTH 1095 0
DWIDTH 11 0
BBX 10 7 1 0
BITMAP
EFC0
AC00
0C00
0FC0
0C00
0C00
0FC0
ENDCHAR
STARTCHAR uni1F1C
ENCODING 7964
SWIDTH 1073 0
DWIDTH 11 0
BBX 10 7 1 0
BITMAP
AFC0
4C00
8C00
0F80
0C00
0C00
0FC0
ENDCHAR
STARTCHAR uni1F1D
ENCODING 7965
SWIDTH 1093 0
DWIDTH 11 0
BBX 10 7 1 0
BITMAP
AFC0
CC00
0C00
0FC0
0C00
0C00
0FC0
ENDCHAR
STARTCHAR uni1F20
ENCODING 7968
SWIDTH 609 0
DWIDTH 6 0
BBX 4 10 1 -2
BITMAP
20
20
00
F0
90
90
90
90
10
10
ENDCHAR
STARTCHAR uni1F21
ENCODING 7969
SWIDTH 609 0
DWIDTH 6 0
BBX 4 10 1 -2
BITMAP
20
20
00
F0
90
90
90
90
10
10
ENDCHAR
STARTCHAR uni1F22
ENCODING 7970
SWIDTH 609 0
DWIDTH 6 0
BBX 4 10 1 -2
BITMAP
60
50
00
F0
90
90
90
90
10
10
ENDCHAR
STARTCHAR uni1F23
ENCODING 7971
SWIDTH 609 0
DWIDTH 6 0
BBX 4 10 1 -2
BITMAP
60
90
40
F0
90
90
90
90
10
10
ENDCHAR
STARTCHAR uni1F24
ENCODING 7972
SWIDTH 609 0
DWIDTH 6 0
BBX 4 10 1 -2
BITMAP
70
60
00
F0
90
90
90
90
10
10
ENDCHAR
STARTCHAR uni1F25
ENCODING 7973
SWIDTH 609 0
DWIDTH 6 0
BBX 4 10 1 -2
BITMAP
70
A0
40
F0
90
90
90
90
10
10
ENDCHAR
STARTCHAR uni1F26
ENCODING 7974
SWIDTH 609 0
DWIDTH 6 0
BBX 4 11 1 -2
BITMAP
60
90
20
00
F0
90
90
90
90
10
10
ENDCHAR
STARTCHAR uni1F27
ENCODING 7975
SWIDTH 609 0
DWIDTH 6 0
BBX 4 11 1 -2
BITMAP
60
90
20
00
F0
90
90
90
90
10
10
ENDCHAR
STARTCHAR uni1F28
ENCODING 7976
SWIDTH 944 0
DWIDTH 9 0
BBX 7 7 1 0
BITMAP
B6
B6
36
3E
36
36
36
ENDCHAR
STARTCHAR uni1F29
ENCODING 7977
SWIDTH 944 0
DWIDTH 9 0
BBX 7 7 1 0
BITMAP
B6
B6
36
3E
36
36
36
ENDCHAR
STARTCHAR uni1F2A
ENCODING 7978
SWIDTH 1154 0
DWIDTH 12 0
BBX 9 7 1 0
BITMAP
CD80
AD80
0D80
0F80
0D80
0D80
0D80
ENDCHAR
STARTCHAR uni1F2B
ENCODING 7979
SWIDTH 1150 0
DWIDTH 12 0
BBX 9 7 1 0
BITMAP
CD80
AD80
0D80
0F80
0D80
0D80
0D80
ENDCHAR
STARTCHAR uni1F2C
ENCODING 7980
SWIDTH 1128 0
DWIDTH 11 0
BBX 9 7 1 0
BITMAP
ED80
CD80
0D80
0F80
0D80
0D80
0D80
ENDCHAR
STARTCHAR uni1F2D
ENCODING 7981
SWIDTH 1148 0
DWIDTH 11 0
BBX 9 7 1 0
BITMAP
AD80
CD80
0D80
0F80
0D80
0D80
0D80
ENDCHAR
STARTCHAR uni1F2E
ENCODING 7982
SWIDTH 944 0
DWIDTH 9 0
BBX 9 7 0 0
BITMAP
CD80
AD80
4D80
0F80
0D80
0D80
0D80
ENDCHAR
STARTCHAR uni1F2F
ENCODING 7983
SWIDTH 944 0
DWIDTH 9 0
BBX 9 7 0 0
BITMAP
CD80
AD80
4D80
0F80
0D80
0D80
0D80
ENDCHAR
STARTCHAR uni1F30
ENCODING 7984
SWIDTH 277 0
DWIDTH 3 0
BBX 1 8 1 0
BITMAP
80
80
00
80
80
80
80
80
ENDCHAR
STARTCHAR uni1F31
ENCODING 7985
SWIDTH 277 0
DWIDTH 3 0
BBX 1 8 1 0
BITMAP
80
80
00
80
80
80
80
80
ENDCHAR
STARTCHAR uni1F32
ENCODING 7986
SWIDTH 277 0
DWIDTH 3 0
BBX 3 8 0 0
BITMAP
E0
A0
00
40
40
40
40
40
ENDCHAR
STARTCHAR uni1F33
ENCODING 7987
SWIDTH 277 0
DWIDTH 3 0
BBX 3 8 0 0
BITMAP
E0
A0
00
40
40
40
40
40
ENDCHAR
STARTCHAR uni1F34
ENCODING 7988
SWIDTH 277 0
DWIDTH 3 0
BBX 3 8 0 0
BITMAP
A0
40
80
40
40
40
40
40
ENDCHAR
STARTCHAR uni1F35
ENCODING 7989
SWIDTH 277 0
DWIDTH 3 0
BBX 3 8 0 0
BITMAP
A0
C0
00
40
40
40
40
40
ENDCHAR
STARTCHAR uni1F36
ENCODING 7990
SWIDTH 277 0
DWIDTH 3 0
BBX 3 9 0 0
BITMAP
E0
A0
40
00
40
40
40
40
40
ENDCHAR
STARTCHAR uni1F37
ENCODING 7991
SWIDTH 277 0
DWIDTH 3 0
BBX 3 9 0 0
BITMAP
E0
A0
40
00
40
40
40
40
40
ENDCHAR
STARTCHAR uni1F38
ENCODING 7992
SWIDTH 518 0
DWIDTH 5 0
BBX 3 7 1 0
BITMAP
E0
E0
60
60
60
60
60
ENDCHAR
STARTCHAR uni1F39
ENCODING 7993
SWIDTH 518 0
DWIDTH 5 0
BBX 3 7 1 0
BITMAP
E0
E0
60
60
60
60
60
ENDCHAR
STARTCHAR uni1F3A
ENCODING 7994
SWIDTH 728 0
DWIDTH 7 0
BBX 5 7 1 0
BITMAP
D8
B8
18
18
18
18
18
ENDCHAR
STARTCHAR uni1F3B
ENCODING 7995
SWIDTH 724 0
DWIDTH 7 0
BBX 5 7 1 0
BITMAP
D8
B8
18
18
18
18
18
ENDCHAR
STARTCHAR uni1F3C
ENCODING 7996
SWIDTH 702 0
DWIDTH 7 0
BBX 5 7 1 0
BITMAP
F8
D8
18
18
18
18
18
ENDCHAR
STARTCHAR uni1F3D
ENCODING 7997
SWIDTH 722 0
DWIDTH 7 0
BBX 5 7 1 0
BITMAP
B8
D8
18
18
18
18
18
ENDCHAR
STARTCHAR uni1F3E
ENCODING 7998
SWIDTH 518 0
DWIDTH 5 0
BBX 5 7 0 0
BITMAP
D8
B8
58
18
18
18
18
ENDCHAR
STARTCHAR uni1F3F
ENCODING 7999
SWIDTH 518 0
DWIDTH 5 0
BBX 5 7 0 0
BITMAP
D8
B8
58
18
18
18
18
ENDCHAR
STARTCHAR uni1F40
ENCODING 8000
SWIDTH 611 0
DWIDTH 6 0
BBX 5 8 0 0
BITMAP
10
10
00
70
88
88
88
70
ENDCHAR
STARTCHAR uni1F41
ENCODING 8001
SWIDTH 611 0
DWIDTH 6 0
BBX 5 8 0 0
BITMAP
10
10
00
70
88
88
88
70
ENDCHAR
STARTCHAR uni1F42
ENCODING 8002
SWIDTH 611 0
DWIDTH 6 0
BBX 5 8 0 0
BITMAP
30
28
00
70
88
88
88
70
ENDCHAR
STARTCHAR uni1F43
ENCODING 8003
SWIDTH 611 0
DWIDTH 6 0
BBX 5 8 0 0
BITMAP
30
48
20
70
88
88
88
70
ENDCHAR
STARTCHAR uni1F44
ENCODING 8004
SWIDTH 611 0
DWIDTH 6 0
BBX 5 8 0 0
BITMAP
38
30
00
70
88
88
88
70
ENDCHAR
STARTCHAR uni1F45
ENCODING 8005
SWIDTH 611 0
DWIDTH 6 0
BBX 5 8 0 0
BITMAP
38
50
20
70
88
88
88
70
ENDCHAR
STARTCHAR uni1F48
ENCODING 8008
SWIDTH 1000 0
DWIDTH 10 0
BBX 8 7 1 0
BITMAP
8E
93
33
33
33
13
0E
ENDCHAR
STARTCHAR uni1F49
ENCODING 8009
SWIDTH 1000 0
DWIDTH 10 0
BBX 8 7 1 0
BITMAP
8E
93
33
33
33
13
0E
ENDCHAR
STARTCHAR uni1F4A
ENCODING 8010
SWIDTH 1210 0
DWIDTH 12 0
BBX 10 7 1 0
BITMAP
C380
A6C0
0C40
0C40
0CC0
06C0
0380
ENDCHAR
STARTCHAR uni1F4B
ENCODING 8011
SWIDTH 1206 0
DWIDTH 12 0
BBX 10 7 1 0
BITMAP
C380
A4C0
0CC0
0C40
0CC0
04C0
0380
ENDCHAR
STARTCHAR uni1F4C
ENCODING 8012
SWIDTH 1184 0
DWIDTH 12 0
BBX 10 7 1 0
BITMAP
E780
C4C0
0CC0
0CC0
0CC0
04C0
0780
ENDCHAR
STARTCHAR uni1F4D
ENCODING 8013
SWIDTH 1204 0
DWIDTH 12 0
BBX 10 7 1 0
BITMAP
A380
C4C0
0CC0
0C40
0CC0
04C0
0380
ENDCHAR
STARTCHAR uni1F50
ENCODING 8016
SWIDTH 609 0
DWIDTH 6 0
BBX 4 8 1 0
BITMAP
20
20
00
90
90
90
90
70
ENDCHAR
STARTCHAR uni1F51
ENCODING 8017
SWIDTH 609 0
DWIDTH 6 0
BBX 4 8 1 0
BITMAP
20
20
00
90
90
90
90
70
ENDCHAR
STARTCHAR uni1F52
ENCODING 8018
SWIDTH 609 0
DWIDTH 6 0
BBX 4 8 1 0
BITMAP
60
50
00
90
90
90
90
70
ENDCHAR
STARTCHAR uni1F53
ENCODING 8019
SWIDTH 609 0
DWIDTH 6 0
BBX 4 8 1 0
BITMAP
60
90
40
90
90
90
90
70
ENDCHAR
STARTCHAR uni1F54
ENCODING 8020
SWIDTH 609 0
DWIDTH 6 0
BBX 4 8 1 0
BITMAP
70
60
00
90
90
90
90
70
ENDCHAR
STARTCHAR uni1F55
ENCODING 8021
SWIDTH 609 0
DWIDTH 6 0
BBX 4 8 1 0
BITMAP
70
A0
40
90
90
90
90
70
ENDCHAR
STARTCHAR uni1F56
ENCODING 8022
SWIDTH 609 0
DWIDTH 6 0
BBX 4 9 1 0
BITMAP
60
90
20
00
90
90
90
90
70
ENDCHAR
STARTCHAR uni1F57
ENCODING 8023
SWIDTH 609 0
DWIDTH 6 0
BBX 4 9 1 0
BITMAP
60
90
20
00
90
90
90
90
70
ENDCHAR
STARTCHAR uni1F59
ENCODING 8025
SWIDTH 889 0
DWIDTH 9 0
BBX 8 7 1 0
BITMAP
E3
A6
34
1C
18
18
18
ENDCHAR
STARTCHAR uni1F5B
ENCODING 8027
SWIDTH 1095 0
DWIDTH 11 0
BBX 10 7 1 0
BITMAP
D8C0
A980
0D00
0700
0600
0600
0600
ENDCHAR
STARTCHAR uni1F5D
ENCODING 8029
SWIDTH 1093 0
DWIDTH 11 0
BBX 10 7 1 0
BITMAP
B8C0
C980
0D00
0700
0600
0600
0600
ENDCHAR
STARTCHAR uni1F5F
ENCODING 8031
SWIDTH 946 0
DWIDTH 9 0
BBX 9 7 0 0
BITMAP
F180
B900
4F00
0E00
0600
0600
0600
ENDCHAR
STARTCHAR uni1F60
ENCODING 8032
SWIDTH 722 0
DWIDTH 8 0
BBX 7 8 0 0
BITMAP
08
10
00
6C
92
92
92
6C
ENDCHAR
STARTCHAR uni1F61
ENCODING 8033
SWIDTH 722 0
DWIDTH 8 0
BBX 7 8 0 0
BITMAP
08
10
08
6C
92
92
92
6C
ENDCHAR
STARTCHAR uni1F62
ENCODING 8034
SWIDTH 722 0
DWIDTH 8 0
BBX 7 8 0 0
BITMAP
38
28
00
6C
92
92
92
6C
ENDCHAR
STARTCHAR uni1F63
ENCODING 8035
SWIDTH 722 0
DWIDTH 8 0
BBX 7 8 0 0
BITMAP
38
28
00
6C
92
92
92
6C
ENDCHAR
STARTCHAR uni1F64
ENCODING 8036
SWIDTH 722 0
DWIDTH 8 0
BBX 7 8 0 0
BITMAP
28
10
20
6C
92
92
92
6C
ENDCHAR
STARTCHAR uni1F65
ENCODING 8037
SWIDTH 722 0
DWIDTH 8 0
BBX 7 8 0 0
BITMAP
28
30
00
6C
92
92
92
6C
ENDCHAR
STARTCHAR uni1F66
ENCODING 8038
SWIDTH 722 0
DWIDTH 8 0
BBX 7 9 0 0
BITMAP
38
28
10
00
6C
92
92
92
6C
ENDCHAR
STARTCHAR uni1F67
ENCODING 8039
SWIDTH 722 0
DWIDTH 8 0
BBX 7 9 0 0
BITMAP
38
28
10
00
6C
92
92
92
6C
ENDCHAR
STARTCHAR uni1F68
ENCODING 8040
SWIDTH 990 0
DWIDTH 10 0
BBX 9 7 1 0
BITMAP
8F00
9180
2080
2080
2080
1080
3180
ENDCHAR
STARTCHAR uni1F69
ENCODING 8041
SWIDTH 990 0
DWIDTH 10 0
BBX 9 7 1 0
BITMAP
8F00
9180
2080
2080
2080
1080
3180
ENDCHAR
STARTCHAR uni1F6A
ENCODING 8042
SWIDTH 1200 0
DWIDTH 12 0
BBX 11 7 1 0
BITMAP
C3C0
A420
0820
0820
0820
0420
0C60
ENDCHAR
STARTCHAR uni1F6B
ENCODING 8043
SWIDTH 1196 0
DWIDTH 12 0
BBX 11 7 1 0
BITMAP
C3C0
A420
0820
0820
0820
0420
0C60
ENDCHAR
STARTCHAR uni1F6C
ENCODING 8044
SWIDTH 1174 0
DWIDTH 12 0
BBX 11 7 1 0
BITMAP
E3C0
C460
0820
0820
0820
0460
0C60
ENDCHAR
STARTCHAR uni1F6D
ENCODING 8045
SWIDTH 1194 0
DWIDTH 12 0
BBX 11 7 1 0
BITMAP
A3C0
C460
0820
0820
0820
0420
0C60
ENDCHAR
STARTCHAR uni1F6E
ENCODING 8046
SWIDTH 990 0
DWIDTH 10 0
BBX 10 7 0 0
BITMAP
C780
A8C0
5040
1040
1040
0840
18C0
ENDCHAR
STARTCHAR uni1F6F
ENCODING 8047
SWIDTH 990 0
DWIDTH 10 0
BBX 10 7 0 0
BITMAP
C780
A8C0
5040
1040
1040
0840
18C0
ENDCHAR
STARTCHAR uni1F70
ENCODING 8048
SWIDTH 611 0
DWIDTH 6 0
BBX 4 8 1 0
BITMAP
40
20
00
70
90
90
90
70
ENDCHAR
STARTCHAR uni1F71
ENCODING 8049
SWIDTH 611 0
DWIDTH 6 0
BBX 4 8 1 0
BITMAP
60
40
00
70
90
90
90
70
ENDCHAR
STARTCHAR uni1F72
ENCODING 8050
SWIDTH 556 0
DWIDTH 6 0
BBX 4 8 1 0
BITMAP
40
20
00
F0
80
C0
90
F0
ENDCHAR
STARTCHAR uni1F73
ENCODING 8051
SWIDTH 556 0
DWIDTH 6 0
BBX 4 8 1 0
BITMAP
60
40
00
F0
80
C0
90
F0
ENDCHAR
STARTCHAR uni1F74
ENCODING 8052
SWIDTH 609 0
DWIDTH 6 0
BBX 4 10 1 -2
BITMAP
40
20
00
F0
90
90
90
90
10
10
ENDCHAR
STARTCHAR uni1F75
ENCODING 8053
SWIDTH 609 0
DWIDTH 6 0
BBX 4 10 1 -2
BITMAP
20
40
00
F0
90
90
90
90
10
10
ENDCHAR
STARTCHAR uni1F76
ENCODING 8054
SWIDTH 277 0
DWIDTH 3 0
BBX 2 8 0 0
BITMAP
C0
40
00
40
40
40
40
40
ENDCHAR
STARTCHAR uni1F77
ENCODING 8055
SWIDTH 277 0
DWIDTH 3 0
BBX 2 8 0 0
BITMAP
40
40
80
40
40
40
40
40
ENDCHAR
STARTCHAR uni1F78
ENCODING 8056
SWIDTH 611 0
DWIDTH 6 0
BBX 5 8 0 0
BITMAP
20
10
00
70
88
88
88
70
ENDCHAR
STARTCHAR uni1F79
ENCODING 8057
SWIDTH 611 0
DWIDTH 6 0
BBX 5 8 0 0
BITMAP
10
20
00
70
88
88
88
70
ENDCHAR
STARTCHAR uni1F7A
ENCODING 8058
SWIDTH 609 0
DWIDTH 6 0
BBX 4 8 1 0
BITMAP
40
20
00
90
90
90
90
70
ENDCHAR
STARTCHAR uni1F7B
ENCODING 8059
SWIDTH 609 0
DWIDTH 6 0
BBX 4 8 1 0
BITMAP
20
40
00
90
90
90
90
70
ENDCHAR
STARTCHAR uni1F7C
ENCODING 8060
SWIDTH 722 0
DWIDTH 8 0
BBX 7 8 0 0
BITMAP
10
10
08
6C
92
92
92
6C
ENDCHAR
STARTCHAR uni1F7D
ENCODING 8061
SWIDTH 722 0
DWIDTH 8 0
BBX 7 8 0 0
BITMAP
18
10
00
6C
92
92
92
6C
ENDCHAR
STARTCHAR uni1F80
ENCODING 8064
SWIDTH 611 0
DWIDTH 6 0
BBX 4 11 1 -3
BITMAP
20
20
00
70
90
90
90
70
00
40
60
ENDCHAR
STARTCHAR uni1F81
ENCODING 8065
SWIDTH 611 0
DWIDTH 6 0
BBX 4 11 1 -3
BITMAP
20
40
20
70
90
90
90
70
00
40
60
ENDCHAR
STARTCHAR uni1F82
ENCODING 8066
SWIDTH 611 0
DWIDTH 6 0
BBX 4 11 1 -3
BITMAP
60
A0
10
70
90
90
90
70
00
40
60
ENDCHAR
STARTCHAR uni1F83
ENCODING 8067
SWIDTH 611 0
DWIDTH 6 0
BBX 4 11 1 -3
BITMAP
60
A0
50
70
90
90
90
70
00
40
60
ENDCHAR
STARTCHAR uni1F84
ENCODING 8068
SWIDTH 611 0
DWIDTH 6 0
BBX 4 11 1 -3
BITMAP
70
60
00
70
90
90
90
70
00
40
60
ENDCHAR
STARTCHAR uni1F85
ENCODING 8069
SWIDTH 611 0
DWIDTH 6 0
BBX 4 11 1 -3
BITMAP
70
A0
40
70
90
90
90
70
00
40
60
ENDCHAR
STARTCHAR uni1F86
ENCODING 8070
SWIDTH 611 0
DWIDTH 6 0
BBX 4 12 1 -3
BITMAP
60
90
20
00
70
90
90
90
70
00
40
60
ENDCHAR
STARTCHAR uni1F87
ENCODING 8071
SWIDTH 611 0
DWIDTH 6 0
BBX 4 12 1 -3
BITMAP
60
90
60
00
70
90
90
90
70
00
40
60
ENDCHAR
STARTCHAR uni1F88
ENCODING 8072
SWIDTH 1074 0
DWIDTH 11 0
BBX 9 7 1 0
BITMAP
B000
B800
2880
6880
7C80
4480
C680
ENDCHAR
STARTCHAR uni1F89
ENCODING 8073
SWIDTH 1058 0
DWIDTH 11 0
BBX 9 7 1 0
BITMAP
B000
B800
2880
6880
7C80
4480
C680
ENDCHAR
STARTCHAR uni1F8A
ENCODING 8074
SWIDTH 1306 0
DWIDTH 13 0
BBX 11 7 1 0
BITMAP
CC00
AE00
0A20
1B20
1F20
1120
31A0
ENDCHAR
STARTCHAR uni1F8B
ENCODING 8075
SWIDTH 1310 0
DWIDTH 13 0
BBX 11 7 1 0
BITMAP
CC00
AE00
0A20
1B20
1F20
1120
31A0
ENDCHAR
STARTCHAR uni1F8C
ENCODING 8076
SWIDTH 1260 0
DWIDTH 13 0
BBX 11 7 1 0
BITMAP
EC00
CE00
1A20
1220
1F20
3120
31A0
ENDCHAR
STARTCHAR uni1F8D
ENCODING 8077
SWIDTH 1308 0
DWIDTH 13 0
BBX 11 7 1 0
BITMAP
AC00
CE00
0A20
1A20
1F20
1120
31A0
ENDCHAR
STARTCHAR uni1F8E
ENCODING 8078
SWIDTH 1222 0
DWIDTH 12 0
BBX 11 7 0 0
BITMAP
6600
9E00
2B20
0B20
1F20
11A0
31A0
ENDCHAR
STARTCHAR uni1F8F
ENCODING 8079
SWIDTH 1222 0
DWIDTH 12 0
BBX 11 7 0 0
BITMAP
6600
9E00
2B20
0B20
1F20
11A0
31A0
ENDCHAR
STARTCHAR uni1F90
ENCODING 8080
SWIDTH 609 0
DWIDTH 6 0
BBX 4 11 1 -3
BITMAP
20
20
00
F0
90
90
90
90
10
90
C0
ENDCHAR
STARTCHAR uni1F91
ENCODING 8081
SWIDTH 609 0
DWIDTH 6 0
BBX 4 11 1 -3
BITMAP
20
20
00
F0
90
90
90
90
10
90
C0
ENDCHAR
STARTCHAR uni1F92
ENCODING 8082
SWIDTH 609 0
DWIDTH 6 0
BBX 4 11 1 -3
BITMAP
60
50
00
F0
90
90
90
90
10
90
C0
ENDCHAR
STARTCHAR uni1F93
ENCODING 8083
SWIDTH 609 0
DWIDTH 6 0
BBX 4 11 1 -3
BITMAP
60
90
40
F0
90
90
90
90
10
90
C0
ENDCHAR
STARTCHAR uni1F94
ENCODING 8084
SWIDTH 609 0
DWIDTH 6 0
BBX 4 11 1 -3
BITMAP
70
60
00
F0
90
90
90
90
10
90
C0
ENDCHAR
STARTCHAR uni1F95
ENCODING 8085
SWIDTH 609 0
DWIDTH 6 0
BBX 4 11 1 -3
BITMAP
70
A0
40
F0
90
90
90
90
10
90
C0
ENDCHAR
STARTCHAR uni1F96
ENCODING 8086
SWIDTH 609 0
DWIDTH 6 0
BBX 4 12 1 -3
BITMAP
60
90
20
00
F0
90
90
90
90
10
90
C0
ENDCHAR
STARTCHAR uni1F97
ENCODING 8087
SWIDTH 609 0
DWIDTH 6 0
BBX 4 12 1 -3
BITMAP
60
90
20
00
F0
90
90
90
90
10
90
C0
ENDCHAR
STARTCHAR uni1F98
ENCODING 8088
SWIDTH 1222 0
DWIDTH 12 0
BBX 10 7 1 0
BITMAP
B600
B600
3640
3E40
3640
3640
3640
ENDCHAR
STARTCHAR uni1F99
ENCODING 8089
SWIDTH 1222 0
DWIDTH 12 0
BBX 10 7 1 0
BITMAP
B600
B600
3640
3E40
3640
3640
3640
ENDCHAR
STARTCHAR uni1F9A
ENCODING 8090
SWIDTH 1432 0
DWIDTH 14 0
BBX 13 7 1 0
BITMAP
CD80
AD80
0D88
0F88
0D88
0D88
0D88
ENDCHAR
STARTCHAR uni1F9B
ENCODING 8091
SWIDTH 1428 0
DWIDTH 14 0
BBX 13 7 1 0
BITMAP
CD80
AD80
0D88
0F88
0D88
0D88
0D88
ENDCHAR
STARTCHAR uni1F9C
ENCODING 8092
SWIDTH 1406 0
DWIDTH 14 0
BBX 12 7 1 0
BITMAP
ED80
CD80
0D90
0F90
0D90
0D90
0D90
ENDCHAR
STARTCHAR uni1F9D
ENCODING 8093
SWIDTH 1426 0
DWIDTH 14 0
BBX 12 7 1 0
BITMAP
AD80
CD80
0D90
0F90
0D90
0D90
0D90
ENDCHAR
STARTCHAR uni1F9E
ENCODING 8094
SWIDTH 1222 0
DWIDTH 12 0
BBX 11 7 0 0
BITMAP
DB00
BB00
5B20
1F20
1B20
1B20
1B20
ENDCHAR
STARTCHAR uni1F9F
ENCODING 8095
SWIDTH 1222 0
DWIDTH 12 0
BBX 11 7 0 0
BITMAP
DB00
BB00
5B20
1F20
1B20
1B20
1B20
ENDCHAR
STARTCHAR uni1FA0
ENCODING 8096
SWIDTH 722 0
DWIDTH 8 0
BBX 7 11 0 -3
BITMAP
08
10
00
6C
92
92
92
6C
00
10
18
ENDCHAR
STARTCHAR uni1FA1
ENCODING 8097
SWIDTH 722 0
DWIDTH 8 0
BBX 7 11 0 -3
BITMAP
08
10
08
6C
92
92
92
6C
00
10
18
ENDCHAR
STARTCHAR uni1FA2
ENCODING 8098
SWIDTH 722 0
DWIDTH 8 0
BBX 7 11 0 -3
BITMAP
38
28
00
6C
92
92
92
6C
00
10
18
ENDCHAR
STARTCHAR uni1FA3
ENCODING 8099
SWIDTH 722 0
DWIDTH 8 0
BBX 7 11 0 -3
BITMAP
38
28
00
6C
92
92
92
6C
00
10
18
ENDCHAR
STARTCHAR uni1FA4
ENCODING 8100
SWIDTH 722 0
DWIDTH 8 0
BBX 7 11 0 -3
BITMAP
28
10
20
6C
92
92
92
6C
00
10
18
ENDCHAR
STARTCHAR uni1FA5
ENCODING 8101
SWIDTH 722 0
DWIDTH 8 0
BBX 7 11 0 -3
BITMAP
28
30
00
6C
92
92
92
6C
00
10
18
ENDCHAR
STARTCHAR uni1FA6
ENCODING 8102
SWIDTH 722 0
DWIDTH 8 0
BBX 7 12 0 -3
BITMAP
38
28
10
00
6C
92
92
92
6C
00
10
18
ENDCHAR
STARTCHAR uni1FA7
ENCODING 8103
SWIDTH 722 0
DWIDTH 8 0
BBX 7 12 0 -3
BITMAP
38
28
10
00
6C
92
92
92
6C
00
10
18
ENDCHAR
STARTCHAR uni1FA8
ENCODING 8104
SWIDTH 1268 0
DWIDTH 13 0
BBX 11 7 1 0
BITMAP
8F00
9180
20A0
20A0
20A0
10A0
31A0
ENDCHAR
STARTCHAR uni1FA9
ENCODING 8105
SWIDTH 1268 0
DWIDTH 13 0
BBX 11 7 1 0
BITMAP
8F00
9180
20A0
20A0
20A0
10A0
31A0
ENDCHAR
STARTCHAR uni1FAA
ENCODING 8106
SWIDTH 1478 0
DWIDTH 15 0
BBX 13 7 1 0
BITMAP
C3C0
A420
0828
0828
0828
0428
0C68
ENDCHAR
STARTCHAR uni1FAB
ENCODING 8107
SWIDTH 1474 0
DWIDTH 15 0
BBX 13 7 1 0
BITMAP
C3C0
A420
0828
0828
0828
0428
0C68
ENDCHAR
STARTCHAR uni1FAC
ENCODING 8108
SWIDTH 1452 0
DWIDTH 15 0
BBX 13 7 1 0
BITMAP
E3C0
C460
0828
0828
0828
0468
0C68
ENDCHAR
STARTCHAR uni1FAD
ENCODING 8109
SWIDTH 1472 0
DWIDTH 15 0
BBX 13 7 1 0
BITMAP
A3C0
C460
0828
0828
0828
0428
0C68
ENDCHAR
STARTCHAR uni1FAE
ENCODING 8110
SWIDTH 1268 0
DWIDTH 13 0
BBX 12 7 0 0
BITMAP
C780
A8C0
5050
1050
1050
0850
18D0
ENDCHAR
STARTCHAR uni1FAF
ENCODING 8111
SWIDTH 1268 0
DWIDTH 13 0
BBX 12 7 0 0
BITMAP
C780
A8C0
5050
1050
1050
0850
18D0
ENDCHAR
STARTCHAR uni1FB0
ENCODING 8112
SWIDTH 611 0
DWIDTH 6 0
BBX 4 7 1 0
BITMAP
F0
00
70
90
90
90
70
ENDCHAR
STARTCHAR uni1FB1
ENCODING 8113
SWIDTH 611 0
DWIDTH 6 0
BBX 4 6 1 0
BITMAP
F0
70
90
90
90
70
ENDCHAR
STARTCHAR uni1FB2
ENCODING 8114
SWIDTH 611 0
DWIDTH 6 0
BBX 4 11 1 -3
BITMAP
40
20
00
70
90
90
90
70
00
40
60
ENDCHAR
STARTCHAR uni1FB3
ENCODING 8115
SWIDTH 611 0
DWIDTH 6 0
BBX 4 8 1 -3
BITMAP
70
90
90
90
70
00
40
60
ENDCHAR
STARTCHAR uni1FB4
ENCODING 8116
SWIDTH 611 0
DWIDTH 6 0
BBX 4 11 1 -3
BITMAP
60
40
00
70
90
90
90
70
00
40
60
ENDCHAR
STARTCHAR uni1FB6
ENCODING 8118
SWIDTH 611 0
DWIDTH 6 0
BBX 4 8 1 0
BITMAP
70
80
00
70
90
90
90
70
ENDCHAR
STARTCHAR uni1FB7
ENCODING 8119
SWIDTH 611 0
DWIDTH 6 0
BBX 4 11 1 -3
BITMAP
70
80
00
70
90
90
90
70
00
40
60
ENDCHAR
STARTCHAR uni1FB8
ENCODING 8120
SWIDTH 722 0
DWIDTH 7 0
BBX 7 9 0 0
BITMAP
38
00
18
38
28
2C
7C
44
C6
ENDCHAR
STARTCHAR uni1FB9
ENCODING 8121
SWIDTH 722 0
DWIDTH 7 0
BBX 7 8 0 0
BITMAP
3C
18
38
28
2C
7C
44
C6
ENDCHAR
STARTCHAR uni1FBA
ENCODING 8122
SWIDTH 850 0
DWIDTH 9 0
BBX 8 7 0 0
BITMAP
8C
5C
16
16
3E
23
63
ENDCHAR
STARTCHAR uni1FBB
ENCODING 8123
SWIDTH 850 0
DWIDTH 9 0
BBX 7 7 1 0
BITMAP
D8
B8
2C
2C
7C
46
C6
ENDCHAR
STARTCHAR uni1FBC
ENCODING 8124
SWIDTH 980 0
DWIDTH 10 0
BBX 9 7 0 0
BITMAP
1800
3800
2880
2C80
7C80
4480
C680
ENDCHAR
STARTCHAR uni1FBD
ENCODING 8125
SWIDTH 222 0
DWIDTH 2 0
BBX 1 2 1 5
BITMAP
80
80
ENDCHAR
STARTCHAR uni1FBE
ENCODING 8126
SWIDTH 346 0
DWIDTH 4 0
BBX 2 2 2 -2
BITMAP
80
C0
ENDCHAR
STARTCHAR uni1FBF
ENCODING 8127
SWIDTH 222 0
DWIDTH 2 0
BBX 1 2 1 5
BITMAP
80
80
ENDCHAR
STARTCHAR uni1FC0
ENCODING 8128
SWIDTH 266 0
DWIDTH 3 0
BBX 3 1 0 6
BITMAP
E0
ENDCHAR
STARTCHAR uni1FC1
ENCODING 8129
SWIDTH 266 0
DWIDTH 3 0
BBX 3 3 0 4
BITMAP
E0
00
C0
ENDCHAR
STARTCHAR uni1FC2
ENCODING 8130
SWIDTH 609 0
DWIDTH 6 0
BBX 4 11 1 -3
BITMAP
40
20
00
F0
90
90
90
90
10
90
C0
ENDCHAR
STARTCHAR uni1FC3
ENCODING 8131
SWIDTH 609 0
DWIDTH 6 0
BBX 4 8 1 -3
BITMAP
F0
90
90
90
90
10
90
C0
ENDCHAR
STARTCHAR uni1FC4
ENCODING 8132
SWIDTH 609 0
DWIDTH 6 0
BBX 4 11 1 -3
BITMAP
20
40
00
F0
90
90
90
90
10
90
C0
ENDCHAR
STARTCHAR uni1FC6
ENCODING 8134
SWIDTH 609 0
DWIDTH 6 0
BBX 4 10 1 -2
BITMAP
70
00
00
F0
90
90
90
90
10
10
ENDCHAR
STARTCHAR uni1FC7
ENCODING 8135
SWIDTH 609 0
DWIDTH 6 0
BBX 4 11 1 -3
BITMAP
70
00
00
F0
90
90
90
90
10
90
C0
ENDCHAR
STARTCHAR uni1FC8
ENCODING 8136
SWIDTH 923 0
DWIDTH 9 0
BBX 9 7 0 0
BITMAP
8F80
4C00
0C00
0F80
0C00
0C00
0F80
ENDCHAR
STARTCHAR uni1FC9
ENCODING 8137
SWIDTH 939 0
DWIDTH 9 0
BBX 8 7 1 0
BITMAP
DF
98
18
1F
18
18
1F
ENDCHAR
STARTCHAR uni1FCA
ENCODING 8138
SWIDTH 985 0
DWIDTH 10 0
BBX 9 7 0 0
BITMAP
8D80
4D80
0D80
0F80
0D80
0D80
0D80
ENDCHAR
STARTCHAR uni1FCB
ENCODING 8139
SWIDTH 973 0
DWIDTH 10 0
BBX 8 7 1 0
BITMAP
DB
9B
1B
1F
1B
1B
1B
ENDCHAR
STARTCHAR uni1FCC
ENCODING 8140
SWIDTH 1003 0
DWIDTH 10 0
BBX 8 7 1 0
BITMAP
D8
D8
D9
F9
D9
D9
D9
ENDCHAR
STARTCHAR uni1FCD
ENCODING 8141
SWIDTH 432 0
DWIDTH 4 0
BBX 3 2 1 5
BITMAP
C0
A0
ENDCHAR
STARTCHAR uni1FCE
ENCODING 8142
SWIDTH 406 0
DWIDTH 4 0
BBX 3 2 1 5
BITMAP
E0
C0
ENDCHAR
STARTCHAR uni1FCF
ENCODING 8143
SWIDTH 222 0
DWIDTH 2 0
BBX 3 3 0 4
BITMAP
C0
A0
40
ENDCHAR
STARTCHAR uni1FD0
ENCODING 8144
SWIDTH 277 0
DWIDTH 3 0
BBX 3 7 0 0
BITMAP
E0
00
40
40
40
40
40
ENDCHAR
STARTCHAR uni1FD1
ENCODING 8145
SWIDTH 277 0
DWIDTH 3 0
BBX 4 6 0 0
BITMAP
F0
40
40
40
40
40
ENDCHAR
STARTCHAR uni1FD2
ENCODING 8146
SWIDTH 277 0
DWIDTH 3 0
BBX 3 9 0 0
BITMAP
80
80
A0
00
40
40
40
40
40
ENDCHAR
STARTCHAR uni1FD3
ENCODING 8147
SWIDTH 277 0
DWIDTH 3 0
BBX 3 9 0 0
BITMAP
40
40
A0
00
40
40
40
40
40
ENDCHAR
STARTCHAR uni1FD6
ENCODING 8150
SWIDTH 277 0
DWIDTH 3 0
BBX 3 8 0 0
BITMAP
E0
00
00
40
40
40
40
40
ENDCHAR
STARTCHAR uni1FD7
ENCODING 8151
SWIDTH 277 0
DWIDTH 3 0
BBX 3 9 0 0
BITMAP
E0
00
C0
00
40
40
40
40
40
ENDCHAR
STARTCHAR uni1FD8
ENCODING 8152
SWIDTH 295 0
DWIDTH 3 0
BBX 3 9 0 0
BITMAP
E0
00
C0
C0
C0
C0
C0
C0
C0
ENDCHAR
STARTCHAR uni1FD9
ENCODING 8153
SWIDTH 295 0
DWIDTH 3 0
BBX 4 8 0 0
BITMAP
F0
C0
C0
C0
C0
C0
C0
C0
ENDCHAR
STARTCHAR uni1FDA
ENCODING 8154
SWIDTH 528 0
DWIDTH 5 0
BBX 4 7 0 0
BITMAP
F0
70
30
30
30
30
30
ENDCHAR
STARTCHAR uni1FDB
ENCODING 8155
SWIDTH 540 0
DWIDTH 5 0
BBX 4 7 1 0
BITMAP
F0
B0
30
30
30
30
30
ENDCHAR
STARTCHAR uni1FDD
ENCODING 8157
SWIDTH 428 0
DWIDTH 4 0
BBX 3 2 1 5
BITMAP
C0
A0
ENDCHAR
STARTCHAR uni1FDE
ENCODING 8158
SWIDTH 426 0
DWIDTH 4 0
BBX 3 2 1 5
BITMAP
A0
C0
ENDCHAR
STARTCHAR uni1FDF
ENCODING 8159
SWIDTH 222 0
DWIDTH 3 0
BBX 3 3 0 4
BITMAP
C0
A0
40
ENDCHAR
STARTCHAR uni1FE0
ENCODING 8160
SWIDTH 609 0
DWIDTH 6 0
BBX 4 7 1 0
BITMAP
F0
00
90
90
90
90
70
ENDCHAR
STARTCHAR uni1FE1
ENCODING 8161
SWIDTH 609 0
DWIDTH 6 0
BBX 5 6 1 0
BITMAP
78
90
90
90
90
70
ENDCHAR
STARTCHAR uni1FE2
ENCODING 8162
SWIDTH 609 0
DWIDTH 6 0
BBX 4 9 1 0
BITMAP
C0
40
A0
00
90
90
90
90
70
ENDCHAR
STARTCHAR uni1FE3
ENCODING 8163
SWIDTH 609 0
DWIDTH 6 0
BBX 4 9 1 0
BITMAP
20
40
A0
00
90
90
90
90
70
ENDCHAR
STARTCHAR uni1FE4
ENCODING 8164
SWIDTH 610 0
DWIDTH 6 0
BBX 5 10 1 -2
BITMAP
20
20
00
F0
90
98
90
F0
80
80
ENDCHAR
STARTCHAR uni1FE5
ENCODING 8165
SWIDTH 610 0
DWIDTH 6 0
BBX 5 10 1 -2
BITMAP
20
20
00
F0
90
98
90
F0
80
80
ENDCHAR
STARTCHAR uni1FE6
ENCODING 8166
SWIDTH 609 0
DWIDTH 6 0
BBX 4 8 1 0
BITMAP
70
00
00
90
90
90
90
70
ENDCHAR
STARTCHAR uni1FE7
ENCODING 8167
SWIDTH 609 0
DWIDTH 6 0
BBX 4 9 1 0
BITMAP
70
80
60
00
90
90
90
90
70
ENDCHAR
STARTCHAR uni1FE8
ENCODING 8168
SWIDTH 666 0
DWIDTH 7 0
BBX 6 9 0 0
BITMAP
38
00
CC
CC
78
78
30
30
30
ENDCHAR
STARTCHAR uni1FE9
ENCODING 8169
SWIDTH 666 0
DWIDTH 7 0
BBX 6 8 0 0
BITMAP
3C
CC
CC
78
78
30
30
30
ENDCHAR
STARTCHAR uni1FEA
ENCODING 8170
SWIDTH 955 0
DWIDTH 10 0
BBX 9 7 0 0
BITMAP
F180
5900
0B00
0E00
0600
0600
0600
ENDCHAR
STARTCHAR uni1FEB
ENCODING 8171
SWIDTH 948 0
DWIDTH 9 0
BBX 8 7 1 0
BITMAP
E3
B2
16
1C
0C
0C
0C
ENDCHAR
STARTCHAR uni1FEC
ENCODING 8172
SWIDTH 889 0
DWIDTH 9 0
BBX 7 7 1 0
BITMAP
BE
B6
36
3E
30
30
30
ENDCHAR
STARTCHAR uni1FED
ENCODING 8173
SWIDTH 395 0
DWIDTH 4 0
BBX 3 3 0 5
BITMAP
80
40
A0
ENDCHAR
STARTCHAR uni1FEE
ENCODING 8174
SWIDTH 395 0
DWIDTH 4 0
BBX 3 3 0 5
BITMAP
20
40
A0
ENDCHAR
STARTCHAR uni1FEF
ENCODING 8175
SWIDTH 266 0
DWIDTH 3 0
BBX 2 2 0 5
BITMAP
80
40
ENDCHAR
STARTCHAR uni1FF2
ENCODING 8178
SWIDTH 722 0
DWIDTH 8 0
BBX 7 11 0 -3
BITMAP
30
10
00
6C
92
92
92
6C
00
10
18
ENDCHAR
STARTCHAR uni1FF3
ENCODING 8179
SWIDTH 722 0
DWIDTH 8 0
BBX 7 8 0 -3
BITMAP
6C
92
92
92
6C
00
10
18
ENDCHAR
STARTCHAR uni1FF4
ENCODING 8180
SWIDTH 722 0
DWIDTH 8 0
BBX 7 11 0 -3
BITMAP
08
10
00
6C
92
92
92
6C
00
10
18
ENDCHAR
STARTCHAR uni1FF6
ENCODING 8182
SWIDTH 722 0
DWIDTH 8 0
BBX 7 8 0 0
BITMAP
38
00
00
6C
92
92
92
6C
ENDCHAR
STARTCHAR uni1FF7
ENCODING 8183
SWIDTH 722 0
DWIDTH 8 0
BBX 7 11 0 -3
BITMAP
38
00
00
6C
92
92
92
6C
00
10
18
ENDCHAR
STARTCHAR uni1FF8
ENCODING 8184
SWIDTH 995 0
DWIDTH 10 0
BBX 9 7 0 0
BITMAP
C700
4980
1980
1980
1980
0980
0700
ENDCHAR
STARTCHAR uni1FF9
ENCODING 8185
SWIDTH 1020 0
DWIDTH 10 0
BBX 9 7 0 0
BITMAP
4700
4980
9980
1880
1980
0980
0700
ENDCHAR
STARTCHAR uni1FFA
ENCODING 8186
SWIDTH 1049 0
DWIDTH 11 0
BBX 11 7 0 0
BITMAP
8780
4840
0820
0820
0820
0840
0C60
ENDCHAR
STARTCHAR uni1FFB
ENCODING 8187
SWIDTH 1074 0
DWIDTH 11 0
BBX 10 7 1 0
BITMAP
CF00
9080
1040
1040
1040
1080
18C0
ENDCHAR
STARTCHAR uni1FFC
ENCODING 8188
SWIDTH 1040 0
DWIDTH 10 0
BBX 9 7 1 0
BITMAP
7C00
C600
8280
8280
8280
4480
C680
ENDCHAR
STARTCHAR uni1FFD
ENCODING 8189
SWIDTH 266 0
DWIDTH 3 0
BBX 2 2 1 5
BITMAP
C0
80
ENDCHAR
STARTCHAR uni1FFE
ENCODING 8190
SWIDTH 222 0
DWIDTH 2 0
BBX 1 2 1 5
BITMAP
80
80
ENDCHAR
STARTCHAR uni2000
ENCODING 8192
SWIDTH 277 0
DWIDTH 3 0
BBX 1 1 0 0
BITMAP
00
ENDCHAR
STARTCHAR uni2001
ENCODING 8193
SWIDTH 277 0
DWIDTH 3 0
BBX 1 1 0 0
BITMAP
00
ENDCHAR
STARTCHAR enspace
ENCODING 8194
SWIDTH 277 0
DWIDTH 3 0
BBX 1 1 0 0
BITMAP
00
ENDCHAR
STARTCHAR emspace
ENCODING 8195
SWIDTH 277 0
DWIDTH 3 0
BBX 1 1 0 0
BITMAP
00
ENDCHAR
STARTCHAR uni2004
ENCODING 8196
SWIDTH 277 0
DWIDTH 3 0
BBX 1 1 0 0
BITMAP
00
ENDCHAR
STARTCHAR uni2005
ENCODING 8197
SWIDTH 277 0
DWIDTH 3 0
BBX 1 1 0 0
BITMAP
00
ENDCHAR
STARTCHAR uni2006
ENCODING 8198
SWIDTH 277 0
DWIDTH 3 0
BBX 1 1 0 0
BITMAP
00
ENDCHAR
STARTCHAR uni2007
ENCODING 8199
SWIDTH 277 0
DWIDTH 3 0
BBX 1 1 0 0
BITMAP
00
ENDCHAR
STARTCHAR uni2008
ENCODING 8200
SWIDTH 277 0
DWIDTH 3 0
BBX 1 1 0 0
BITMAP
00
ENDCHAR
STARTCHAR uni2009
ENCODING 8201
SWIDTH 277 0
DWIDTH 3 0
BBX 1 1 0 0
BITMAP
00
ENDCHAR
STARTCHAR uni200A
ENCODING 8202
SWIDTH 277 0
DWIDTH 3 0
BBX 1 1 0 0
BITMAP
00
ENDCHAR
STARTCHAR zerowidthspace
ENCODING 8203
SWIDTH 0 0
DWIDTH 0 0
BBX 1 1 0 0
BITMAP
00
ENDCHAR
STARTCHAR zerowidthnonjoiner
ENCODING 8204
SWIDTH 0 0
DWIDTH 0 0
BBX 1 1 0 0
BITMAP
00
ENDCHAR
STARTCHAR zerowidthjoiner
ENCODING 8205
SWIDTH 0 0
DWIDTH 0 0
BBX 1 1 0 0
BITMAP
00
ENDCHAR
STARTCHAR lefttorightmark
ENCODING 8206
SWIDTH 0 0
DWIDTH 0 0
BBX 1 1 0 0
BITMAP
00
ENDCHAR
STARTCHAR righttoleftmark
ENCODING 8207
SWIDTH 0 0
DWIDTH 0 0
BBX 1 1 0 0
BITMAP
00
ENDCHAR
STARTCHAR hyphentwo
ENCODING 8208
SWIDTH 333 0
DWIDTH 3 0
BBX 3 1 0 2
BITMAP
E0
ENDCHAR
STARTCHAR nonbreakinghyphen
ENCODING 8209
SWIDTH 333 0
DWIDTH 3 0
BBX 3 1 0 2
BITMAP
E0
ENDCHAR
STARTCHAR figuredash
ENCODING 8210
SWIDTH 333 0
DWIDTH 3 0
BBX 3 1 0 2
BITMAP
E0
ENDCHAR
STARTCHAR endash
ENCODING 8211
SWIDTH 556 0
DWIDTH 6 0
BBX 6 1 0 2
BITMAP
FC
ENDCHAR
STARTCHAR emdash
ENCODING 8212
SWIDTH 1000 0
DWIDTH 10 0
BBX 8 1 1 2
BITMAP
FF
ENDCHAR
STARTCHAR horizontalbar
ENCODING 8213
SWIDTH 1000 0
DWIDTH 10 0
BBX 8 1 1 2
BITMAP
FF
ENDCHAR
STARTCHAR dblverticalbar
ENCODING 8214
SWIDTH 528 0
DWIDTH 5 0
BBX 3 7 1 0
BITMAP
A0
A0
A0
A0
A0
A0
A0
ENDCHAR
STARTCHAR dbllowline
ENCODING 8215
SWIDTH 333 0
DWIDTH 3 0
BBX 3 2 0 -3
BITMAP
E0
E0
ENDCHAR
STARTCHAR quoteleft
ENCODING 8216
SWIDTH 277 0
DWIDTH 2 0
BBX 1 2 1 5
BITMAP
80
80
ENDCHAR
STARTCHAR quoteright
ENCODING 8217
SWIDTH 277 0
DWIDTH 2 0
BBX 1 2 1 5
BITMAP
80
80
ENDCHAR
STARTCHAR quotesinglbase
ENCODING 8218
SWIDTH 277 0
DWIDTH 3 0
BBX 1 3 1 -2
BITMAP
80
80
80
ENDCHAR
STARTCHAR quoteleftreversed
ENCODING 8219
SWIDTH 277 0
DWIDTH 3 0
BBX 1 3 1 4
BITMAP
80
80
80
ENDCHAR
STARTCHAR quotedblleft
ENCODING 8220
SWIDTH 500 0
DWIDTH 4 0
BBX 3 2 1 5
BITMAP
A0
A0
ENDCHAR
STARTCHAR quotedblright
ENCODING 8221
SWIDTH 500 0
DWIDTH 4 0
BBX 3 2 1 5
BITMAP
A0
A0
ENDCHAR
STARTCHAR quotedblbase
ENCODING 8222
SWIDTH 500 0
DWIDTH 5 0
BBX 3 3 1 -2
BITMAP
A0
A0
A0
ENDCHAR
STARTCHAR quotedblleftaltone
ENCODING 8223
SWIDTH 500 0
DWIDTH 5 0
BBX 3 3 1 4
BITMAP
A0
C0
A0
ENDCHAR
STARTCHAR dagger
ENCODING 8224
SWIDTH 556 0
DWIDTH 6 0
BBX 5 9 1 -2
BITMAP
20
20
F8
20
20
20
20
20
20
ENDCHAR
STARTCHAR daggerdbl
ENCODING 8225
SWIDTH 556 0
DWIDTH 6 0
BBX 5 9 1 -2
BITMAP
20
20
F8
20
20
20
F8
20
20
ENDCHAR
STARTCHAR bullet
ENCODING 8226
SWIDTH 350 0
DWIDTH 4 0
BBX 2 2 1 3
BITMAP
C0
C0
ENDCHAR
STARTCHAR uni2023
ENCODING 8227
SWIDTH 666 0
DWIDTH 7 0
BBX 3 3 2 2
BITMAP
80
E0
80
ENDCHAR
STARTCHAR onedotleader
ENCODING 8228
SWIDTH 330 0
DWIDTH 3 0
BBX 2 1 1 0
BITMAP
C0
ENDCHAR
STARTCHAR twodotleader
ENCODING 8229
SWIDTH 674 0
DWIDTH 7 0
BBX 5 1 1 0
BITMAP
D8
ENDCHAR
STARTCHAR ellipsis
ENCODING 8230
SWIDTH 1000 0
DWIDTH 9 0
BBX 7 1 1 0
BITMAP
92
ENDCHAR
STARTCHAR uni2027
ENCODING 8231
SWIDTH 330 0
DWIDTH 3 0
BBX 2 1 1 3
BITMAP
C0
ENDCHAR
STARTCHAR uni2028
ENCODING 8232
SWIDTH 0 0
DWIDTH 0 0
BBX 1 1 0 0
BITMAP
00
ENDCHAR
STARTCHAR uni2029
ENCODING 8233
SWIDTH 0 0
DWIDTH 0 0
BBX 1 1 0 0
BITMAP
00
ENDCHAR
STARTCHAR uni202A
ENCODING 8234
SWIDTH 0 0
DWIDTH 0 0
BBX 1 1 0 0
BITMAP
00
ENDCHAR
STARTCHAR uni202B
ENCODING 8235
SWIDTH 0 0
DWIDTH 0 0
BBX 1 1 0 0
BITMAP
00
ENDCHAR
STARTCHAR afii61573
ENCODING 8236
SWIDTH 0 0
DWIDTH 0 0
BBX 1 1 0 0
BITMAP
00
ENDCHAR
STARTCHAR afii61574
ENCODING 8237
SWIDTH 0 0
DWIDTH 0 0
BBX 1 1 0 0
BITMAP
00
ENDCHAR
STARTCHAR afii61575
ENCODING 8238
SWIDTH 0 0
DWIDTH 0 0
BBX 1 1 0 0
BITMAP
00
ENDCHAR
STARTCHAR uni202F
ENCODING 8239
SWIDTH 0 0
DWIDTH 0 0
BBX 1 1 0 0
BITMAP
00
ENDCHAR
STARTCHAR perthousand
ENCODING 8240
SWIDTH 1000 0
DWIDTH 9 0
BBX 9 7 0 0
BITMAP
EC00
A800
F000
1000
3F80
3680
5F80
ENDCHAR
STARTCHAR uni2031
ENCODING 8241
SWIDTH 1422 0
DWIDTH 14 0
BBX 14 7 0 0
BITMAP
EC00
A800
F000
1000
2DD8
5574
4DD8
ENDCHAR
STARTCHAR minute
ENCODING 8242
SWIDTH 333 0
DWIDTH 3 0
BBX 2 3 1 4
BITMAP
40
C0
80
ENDCHAR
STARTCHAR second
ENCODING 8243
SWIDTH 610 0
DWIDTH 6 0
BBX 5 3 1 4
BITMAP
58
D0
B0
ENDCHAR
STARTCHAR primetriple
ENCODING 8244
SWIDTH 861 0
DWIDTH 9 0
BBX 7 3 1 4
BITMAP
5A
D6
B4
ENDCHAR
STARTCHAR primereversed
ENCODING 8245
SWIDTH 333 0
DWIDTH 3 0
BBX 2 3 1 4
BITMAP
C0
40
40
ENDCHAR
STARTCHAR secondreversed
ENCODING 8246
SWIDTH 610 0
DWIDTH 6 0
BBX 5 3 1 4
BITMAP
F0
50
48
ENDCHAR
STARTCHAR uni2037
ENCODING 8247
SWIDTH 861 0
DWIDTH 9 0
BBX 7 3 1 4
BITMAP
F6
52
4A
ENDCHAR
STARTCHAR uni2038
ENCODING 8248
SWIDTH 333 0
DWIDTH 3 0
BBX 3 2 0 -2
BITMAP
60
A0
ENDCHAR
STARTCHAR guilsinglleft
ENCODING 8249
SWIDTH 333 0
DWIDTH 3 0
BBX 2 5 0 0
BITMAP
40
40
80
40
40
ENDCHAR
STARTCHAR guilsinglright
ENCODING 8250
SWIDTH 333 0
DWIDTH 3 0
BBX 2 5 1 0
BITMAP
80
80
40
80
80
ENDCHAR
STARTCHAR referencemark
ENCODING 8251
SWIDTH 811 0
DWIDTH 9 0
BBX 7 7 1 -1
BITMAP
98
CC
78
B2
78
CC
98
ENDCHAR
STARTCHAR exclamdbl
ENCODING 8252
SWIDTH 666 0
DWIDTH 7 0
BBX 4 7 1 0
BITMAP
90
90
90
90
90
00
90
ENDCHAR
STARTCHAR interrobang
ENCODING 8253
SWIDTH 610 0
DWIDTH 6 0
BBX 5 7 1 0
BITMAP
70
F8
38
30
20
00
20
ENDCHAR
STARTCHAR overline
ENCODING 8254
SWIDTH 333 0
DWIDTH 3 0
BBX 3 1 0 6
BITMAP
E0
ENDCHAR
STARTCHAR uni203F
ENCODING 8255
SWIDTH 958 0
DWIDTH 10 0
BBX 9 3 0 -2
BITMAP
8080
4180
3E00
ENDCHAR
STARTCHAR uni2040
ENCODING 8256
SWIDTH 958 0
DWIDTH 10 0
BBX 9 3 0 5
BITMAP
3E00
4180
8080
ENDCHAR
STARTCHAR caretinsert
ENCODING 8257
SWIDTH 620 0
DWIDTH 6 0
BBX 5 8 1 -2
BITMAP
08
10
10
20
20
60
60
90
ENDCHAR
STARTCHAR uni2042
ENCODING 8258
SWIDTH 846 0
DWIDTH 9 0
BBX 8 7 0 0
BITMAP
08
3C
18
00
42
E7
A5
ENDCHAR
STARTCHAR uni2043
ENCODING 8259
SWIDTH 333 0
DWIDTH 3 0
BBX 3 1 0 2
BITMAP
E0
ENDCHAR
STARTCHAR fraction
ENCODING 8260
SWIDTH 166 0
DWIDTH 2 0
BBX 5 7 -2 0
BITMAP
08
10
20
20
40
40
80
ENDCHAR
STARTCHAR uni2045
ENCODING 8261
SWIDTH 333 0
DWIDTH 3 0
BBX 2 9 1 -2
BITMAP
C0
80
80
80
C0
80
80
80
C0
ENDCHAR
STARTCHAR uni2046
ENCODING 8262
SWIDTH 333 0
DWIDTH 3 0
BBX 2 9 1 -2
BITMAP
C0
40
40
40
C0
40
40
40
C0
ENDCHAR
STARTCHAR uni2047
ENCODING 8263
SWIDTH 1221 0
DWIDTH 12 0
BBX 11 7 1 0
BITMAP
71C0
8A20
0820
3040
2080
0000
2080
ENDCHAR
STARTCHAR uni2048
ENCODING 8264
SWIDTH 943 0
DWIDTH 9 0
BBX 7 7 1 0
BITMAP
72
8A
0A
32
22
00
22
ENDCHAR
STARTCHAR uni2049
ENCODING 8265
SWIDTH 943 0
DWIDTH 9 0
BBX 8 7 1 0
BITMAP
8F
99
81
82
84
00
84
ENDCHAR
STARTCHAR tironianet
ENCODING 8266
SWIDTH 620 0
DWIDTH 6 0
BBX 5 7 1 -2
BITMAP
F8
10
10
10
10
10
30
ENDCHAR
STARTCHAR reversedpilcrow
ENCODING 8267
SWIDTH 556 0
DWIDTH 6 0
BBX 6 9 0 -2
BITMAP
F8
5C
5C
5C
58
50
50
50
50
ENDCHAR
STARTCHAR uni204C
ENCODING 8268
SWIDTH 556 0
DWIDTH 6 0
BBX 5 5 0 1
BITMAP
78
E8
E8
E8
78
ENDCHAR
STARTCHAR uni204D
ENCODING 8269
SWIDTH 556 0
DWIDTH 6 0
BBX 5 5 0 1
BITMAP
F0
B8
B8
B8
F0
ENDCHAR
STARTCHAR uni204E
ENCODING 8270
SWIDTH 389 0
DWIDTH 4 0
BBX 3 3 0 0
BITMAP
40
E0
A0
ENDCHAR
STARTCHAR uni204F
ENCODING 8271
SWIDTH 333 0
DWIDTH 4 0
BBX 2 7 1 -2
BITMAP
C0
00
00
00
C0
80
40
ENDCHAR
STARTCHAR uni2050
ENCODING 8272
SWIDTH 958 0
DWIDTH 10 0
BBX 9 10 0 -2
BITMAP
3F00
C080
0000
0000
0000
0000
0000
0000
C080
3F00
ENDCHAR
STARTCHAR uni2051
ENCODING 8273
SWIDTH 389 0
DWIDTH 4 0
BBX 3 7 0 0
BITMAP
40
E0
A0
00
40
E0
A0
ENDCHAR
STARTCHAR uni2052
ENCODING 8274
SWIDTH 889 0
DWIDTH 9 0
BBX 7 7 1 0
BITMAP
04
C8
88
10
20
26
40
ENDCHAR
STARTCHAR uni2053
ENCODING 8275
SWIDTH 875 0
DWIDTH 9 0
BBX 9 3 0 1
BITMAP
7180
CF00
8000
ENDCHAR
STARTCHAR uni2054
ENCODING 8276
SWIDTH 958 0
DWIDTH 10 0
BBX 9 3 0 -2
BITMAP
1E00
6180
8080
ENDCHAR
STARTCHAR uni2055
ENCODING 8277
SWIDTH 811 0
DWIDTH 8 0
BBX 7 7 1 -1
BITMAP
10
54
38
FE
38
54
10
ENDCHAR
STARTCHAR uni2056
ENCODING 8278
SWIDTH 811 0
DWIDTH 8 0
BBX 5 8 1 -1
BITMAP
08
00
00
00
80
00
00
08
ENDCHAR
STARTCHAR uni2057
ENCODING 8279
SWIDTH 1107 0
DWIDTH 11 0
BBX 10 3 1 4
BITMAP
5AC0
D680
B500
ENDCHAR
STARTCHAR uni2058
ENCODING 8280
SWIDTH 811 0
DWIDTH 9 0
BBX 7 7 1 -1
BITMAP
10
00
00
82
00
00
10
ENDCHAR
STARTCHAR uni2059
ENCODING 8281
SWIDTH 811 0
DWIDTH 8 0
BBX 6 7 1 -1
BITMAP
84
CC
00
10
00
84
CC
ENDCHAR
STARTCHAR uni205A
ENCODING 8282
SWIDTH 333 0
DWIDTH 3 0
BBX 1 7 1 0
BITMAP
80
00
00
00
00
00
80
ENDCHAR
STARTCHAR uni205B
ENCODING 8283
SWIDTH 811 0
DWIDTH 9 0
BBX 7 8 1 -1
BITMAP
10
00
00
82
00
00
00
10
ENDCHAR
STARTCHAR uni205C
ENCODING 8284
SWIDTH 811 0
DWIDTH 8 0
BBX 7 7 1 -1
BITMAP
98
DC
10
FE
18
DC
98
ENDCHAR
STARTCHAR uni205D
ENCODING 8285
SWIDTH 333 0
DWIDTH 3 0
BBX 1 5 1 0
BITMAP
80
00
80
00
80
ENDCHAR
STARTCHAR uni205E
ENCODING 8286
SWIDTH 333 0
DWIDTH 3 0
BBX 1 7 1 0
BITMAP
80
00
80
00
80
00
80
ENDCHAR
STARTCHAR uni205F
ENCODING 8287
SWIDTH 277 0
DWIDTH 3 0
BBX 1 1 0 0
BITMAP
00
ENDCHAR
STARTCHAR uni2060
ENCODING 8288
SWIDTH 0 0
DWIDTH 0 0
BBX 1 1 0 0
BITMAP
00
ENDCHAR
STARTCHAR uni2061
ENCODING 8289
SWIDTH 0 0
DWIDTH 0 0
BBX 1 1 0 0
BITMAP
00
ENDCHAR
STARTCHAR uni2062
ENCODING 8290
SWIDTH 0 0
DWIDTH 0 0
BBX 1 1 0 0
BITMAP
00
ENDCHAR
STARTCHAR uni2063
ENCODING 8291
SWIDTH 0 0
DWIDTH 0 0
BBX 1 1 0 0
BITMAP
00
ENDCHAR
STARTCHAR uni206A
ENCODING 8298
SWIDTH 0 0
DWIDTH 0 0
BBX 1 1 0 0
BITMAP
00
ENDCHAR
STARTCHAR uni206B
ENCODING 8299
SWIDTH 0 0
DWIDTH 0 0
BBX 1 1 0 0
BITMAP
00
ENDCHAR
STARTCHAR uni206C
ENCODING 8300
SWIDTH 0 0
DWIDTH 0 0
BBX 1 1 0 0
BITMAP
00
ENDCHAR
STARTCHAR uni206D
ENCODING 8301
SWIDTH 0 0
DWIDTH 0 0
BBX 1 1 0 0
BITMAP
00
ENDCHAR
STARTCHAR uni206E
ENCODING 8302
SWIDTH 0 0
DWIDTH 0 0
BBX 1 1 0 0
BITMAP
00
ENDCHAR
STARTCHAR uni206F
ENCODING 8303
SWIDTH 0 0
DWIDTH 0 0
BBX 1 1 0 0
BITMAP
00
ENDCHAR
STARTCHAR uni2070
ENCODING 8304
SWIDTH 278 0
DWIDTH 3 0
BBX 2 4 0 4
BITMAP
C0
C0
C0
C0
ENDCHAR
STARTCHAR uni2071
ENCODING 8305
SWIDTH 139 0
DWIDTH 1 0
BBX 1 4 0 4
BITMAP
80
80
80
80
ENDCHAR
STARTCHAR uni2074
ENCODING 8308
SWIDTH 278 0
DWIDTH 3 0
BBX 2 3 0 4
BITMAP
40
C0
C0
ENDCHAR
STARTCHAR uni2075
ENCODING 8309
SWIDTH 277 0
DWIDTH 3 0
BBX 2 4 0 4
BITMAP
C0
80
40
C0
ENDCHAR
STARTCHAR uni2076
ENCODING 8310
SWIDTH 277 0
DWIDTH 3 0
BBX 2 4 0 4
BITMAP
C0
80
C0
C0
ENDCHAR
STARTCHAR uni2077
ENCODING 8311
SWIDTH 278 0
DWIDTH 3 0
BBX 3 4 0 4
BITMAP
E0
40
40
80
ENDCHAR
STARTCHAR uni2078
ENCODING 8312
SWIDTH 277 0
DWIDTH 4 0
BBX 3 4 0 4
BITMAP
E0
A0
E0
E0
ENDCHAR
STARTCHAR uni2079
ENCODING 8313
SWIDTH 277 0
DWIDTH 3 0
BBX 2 4 0 4
BITMAP
C0
C0
C0
C0
ENDCHAR
STARTCHAR uni207A
ENCODING 8314
SWIDTH 291 0
DWIDTH 3 0
BBX 3 3 0 4
BITMAP
40
E0
40
ENDCHAR
STARTCHAR uni207B
ENCODING 8315
SWIDTH 166 0
DWIDTH 2 0
BBX 1 1 0 5
BITMAP
80
ENDCHAR
STARTCHAR uni207C
ENCODING 8316
SWIDTH 291 0
DWIDTH 3 0
BBX 3 2 0 4
BITMAP
E0
E0
ENDCHAR
STARTCHAR uni207D
ENCODING 8317
SWIDTH 166 0
DWIDTH 2 0
BBX 1 5 0 3
BITMAP
80
80
80
80
80
ENDCHAR
STARTCHAR uni207E
ENCODING 8318
SWIDTH 166 0
DWIDTH 3 0
BBX 1 5 1 3
BITMAP
80
80
80
80
80
ENDCHAR
STARTCHAR uni207F
ENCODING 8319
SWIDTH 305 0
DWIDTH 3 0
BBX 2 3 0 4
BITMAP
C0
C0
C0
ENDCHAR
STARTCHAR uni2080
ENCODING 8320
SWIDTH 278 0
DWIDTH 3 0
BBX 2 4 0 -4
BITMAP
C0
C0
C0
C0
ENDCHAR
STARTCHAR uni2081
ENCODING 8321
SWIDTH 278 0
DWIDTH 3 0
BBX 2 3 0 -3
BITMAP
40
C0
40
ENDCHAR
STARTCHAR uni2082
ENCODING 8322
SWIDTH 278 0
DWIDTH 3 0
BBX 2 4 0 -4
BITMAP
C0
40
80
C0
ENDCHAR
STARTCHAR uni2083
ENCODING 8323
SWIDTH 277 0
DWIDTH 3 0
BBX 2 4 0 -4
BITMAP
C0
40
40
C0
ENDCHAR
STARTCHAR uni2084
ENCODING 8324
SWIDTH 278 0
DWIDTH 3 0
BBX 2 3 0 -3
BITMAP
40
C0
C0
ENDCHAR
STARTCHAR uni2085
ENCODING 8325
SWIDTH 277 0
DWIDTH 3 0
BBX 2 3 0 -3
BITMAP
C0
C0
C0
ENDCHAR
STARTCHAR uni2086
ENCODING 8326
SWIDTH 277 0
DWIDTH 3 0
BBX 2 4 0 -4
BITMAP
C0
C0
C0
C0
ENDCHAR
STARTCHAR uni2087
ENCODING 8327
SWIDTH 278 0
DWIDTH 3 0
BBX 3 3 0 -3
BITMAP
E0
40
80
ENDCHAR
STARTCHAR uni2088
ENCODING 8328
SWIDTH 277 0
DWIDTH 4 0
BBX 3 4 0 -4
BITMAP
E0
E0
A0
E0
ENDCHAR
STARTCHAR uni2089
ENCODING 8329
SWIDTH 277 0
DWIDTH 3 0
BBX 2 4 0 -4
BITMAP
C0
C0
40
C0
ENDCHAR
STARTCHAR uni208A
ENCODING 8330
SWIDTH 291 0
DWIDTH 3 0
BBX 3 2 0 -3
BITMAP
40
E0
ENDCHAR
STARTCHAR uni208B
ENCODING 8331
SWIDTH 166 0
DWIDTH 2 0
BBX 1 1 0 -3
BITMAP
80
ENDCHAR
STARTCHAR uni208C
ENCODING 8332
SWIDTH 291 0
DWIDTH 3 0
BBX 3 2 0 -3
BITMAP
E0
E0
ENDCHAR
STARTCHAR uni208D
ENCODING 8333
SWIDTH 166 0
DWIDTH 2 0
BBX 1 4 0 -4
BITMAP
80
80
80
80
ENDCHAR
STARTCHAR uni208E
ENCODING 8334
SWIDTH 166 0
DWIDTH 3 0
BBX 1 4 1 -4
BITMAP
80
80
80
80
ENDCHAR
STARTCHAR uni2090
ENCODING 8336
SWIDTH 278 0
DWIDTH 4 0
BBX 3 4 0 -4
BITMAP
E0
20
E0
E0
ENDCHAR
STARTCHAR uni2091
ENCODING 8337
SWIDTH 278 0
DWIDTH 3 0
BBX 3 4 0 -4
BITMAP
C0
A0
E0
C0
ENDCHAR
STARTCHAR uni2092
ENCODING 8338
SWIDTH 305 0
DWIDTH 4 0
BBX 3 4 0 -4
BITMAP
E0
A0
A0
E0
ENDCHAR
STARTCHAR uni2093
ENCODING 8339
SWIDTH 278 0
DWIDTH 3 0
BBX 3 2 0 -3
BITMAP
E0
E0
ENDCHAR
STARTCHAR uni2094
ENCODING 8340
SWIDTH 278 0
DWIDTH 3 0
BBX 3 4 0 -4
BITMAP
C0
20
E0
C0
ENDCHAR
STARTCHAR uni20A0
ENCODING 8352
SWIDTH 545 0
DWIDTH 5 0
BBX 5 7 0 0
BITMAP
E0
80
B8
E0
30
20
38
ENDCHAR
STARTCHAR colonsign
ENCODING 8353
SWIDTH 722 0
DWIDTH 7 0
BBX 7 9 0 -1
BITMAP
0E
7C
74
D8
E8
E8
F4
78
A0
ENDCHAR
STARTCHAR cruzeiro
ENCODING 8354
SWIDTH 722 0
DWIDTH 7 0
BBX 7 7 0 0
BITMAP
3C
44
C2
DC
D0
DC
78
ENDCHAR
STARTCHAR franc
ENCODING 8355
SWIDTH 556 0
DWIDTH 6 0
BBX 6 7 0 0
BITMAP
7C
40
40
7C
40
F0
40
ENDCHAR
STARTCHAR lira
ENCODING 8356
SWIDTH 649 0
DWIDTH 7 0
BBX 6 7 0 0
BITMAP
78
48
F0
40
F0
20
7C
ENDCHAR
STARTCHAR uni20A5
ENCODING 8357
SWIDTH 889 0
DWIDTH 9 0
BBX 7 8 1 -1
BITMAP
02
06
FE
9A
92
92
B2
40
ENDCHAR
STARTCHAR uni20A6
ENCODING 8358
SWIDTH 808 0
DWIDTH 8 0
BBX 8 7 0 0
BITMAP
62
72
FF
5A
FF
4E
46
ENDCHAR
STARTCHAR uni20A7
ENCODING 8359
SWIDTH 768 0
DWIDTH 9 0
BBX 8 7 0 0
BITMAP
C0
B0
B2
D5
93
95
93
ENDCHAR
STARTCHAR uni20A8
ENCODING 8360
SWIDTH 628 0
DWIDTH 7 0
BBX 6 7 0 0
BITMAP
E0
A0
A8
CC
AC
AC
A4
ENDCHAR
STARTCHAR won
ENCODING 8361
SWIDTH 1024 0
DWIDTH 10 0
BBX 10 7 0 0
BITMAP
4CC0
FFC0
6C80
FFC0
3300
3300
3300
ENDCHAR
STARTCHAR dong
ENCODING 8363
SWIDTH 610 0
DWIDTH 6 0
BBX 6 9 0 -2
BITMAP
08
1C
78
88
88
88
78
00
3C
ENDCHAR
STARTCHAR Euro
ENCODING 8364
SWIDTH 744 0
DWIDTH 7 0
BBX 6 7 1 0
BITMAP
38
44
F0
40
F0
6C
38
ENDCHAR
STARTCHAR uni20AD
ENCODING 8365
SWIDTH 782 0
DWIDTH 8 0
BBX 7 7 0 0
BITMAP
4E
58
70
FC
58
4C
46
ENDCHAR
STARTCHAR uni20AE
ENCODING 8366
SWIDTH 610 0
DWIDTH 6 0
BBX 6 7 0 0
BITMAP
FC
30
38
F0
38
F0
30
ENDCHAR
STARTCHAR uni20B1
ENCODING 8369
SWIDTH 779 0
DWIDTH 8 0
BBX 8 7 0 0
BITMAP
7E
FF
FF
7E
60
60
60
ENDCHAR
STARTCHAR uni20B2
ENCODING 8370
SWIDTH 777 0
DWIDTH 8 0
BBX 7 9 0 -1
BITMAP
10
3C
56
D0
D6
D2
7E
3A
10
ENDCHAR
STARTCHAR uni20B3
ENCODING 8371
SWIDTH 722 0
DWIDTH 7 0
BBX 7 7 0 0
BITMAP
18
38
FE
6C
FE
46
C6
ENDCHAR
STARTCHAR Hryvnia
ENCODING 8372
SWIDTH 637 0
DWIDTH 6 0
BBX 6 8 0 0
BITMAP
70
58
08
FC
30
FC
40
7C
ENDCHAR
STARTCHAR uni20B5
ENCODING 8373
SWIDTH 722 0
DWIDTH 7 0
BBX 6 9 0 -1
BITMAP
10
38
5C
D0
D0
D4
7C
38
10
ENDCHAR
STARTCHAR u20B8
ENCODING 8376
SWIDTH 556 0
DWIDTH 6 0
BBX 5 7 0 0
BITMAP
F8
00
F8
20
20
20
20
ENDCHAR
STARTCHAR uni20B9.INDIAN_RUPEE_SIGN
ENCODING 8377
SWIDTH 553 0
DWIDTH 6 0
BBX 5 7 0 0
BITMAP
78
F8
30
E0
60
20
30
ENDCHAR
STARTCHAR u20BA
ENCODING 8378
SWIDTH 556 0
DWIDTH 6 0
BBX 5 7 0 0
BITMAP
50
60
D0
E0
48
58
70
ENDCHAR
STARTCHAR uni2100
ENCODING 8448
SWIDTH 833 0
DWIDTH 8 0
BBX 8 7 0 0
BITMAP
E2
24
E8
E8
13
24
27
ENDCHAR
STARTCHAR uni2101
ENCODING 8449
SWIDTH 833 0
DWIDTH 9 0
BBX 8 7 0 0
BITMAP
E2
A4
E8
0F
14
23
27
ENDCHAR
STARTCHAR uni2102
ENCODING 8450
SWIDTH 722 0
DWIDTH 7 0
BBX 7 7 0 0
BITMAP
3C
76
D0
D0
D0
76
3C
ENDCHAR
STARTCHAR centigrade
ENCODING 8451
SWIDTH 1122 0
DWIDTH 11 0
BBX 9 7 1 0
BITMAP
EF00
B880
F000
1000
1080
1980
0F00
ENDCHAR
STARTCHAR uni2104
ENCODING 8452
SWIDTH 707 0
DWIDTH 7 0
BBX 8 7 0 0
BITMAP
30
78
BC
B0
7C
30
3F
ENDCHAR
STARTCHAR careof
ENCODING 8453
SWIDTH 833 0
DWIDTH 9 0
BBX 8 7 0 0
BITMAP
E6
84
88
EB
15
25
23
ENDCHAR
STARTCHAR uni2106
ENCODING 8454
SWIDTH 833 0
DWIDTH 9 0
BBX 8 7 0 0
BITMAP
E4
84
88
F5
15
25
47
ENDCHAR
STARTCHAR fahrenheit
ENCODING 8457
SWIDTH 1010 0
DWIDTH 10 0
BBX 9 7 1 0
BITMAP
EF80
A800
E800
0F80
0800
0800
0800
ENDCHAR
STARTCHAR uni210D
ENCODING 8461
SWIDTH 722 0
DWIDTH 8 0
BBX 6 7 1 0
BITMAP
CC
CC
CC
FC
CC
CC
CC
ENDCHAR
STARTCHAR numero
ENCODING 8470
SWIDTH 1000 0
DWIDTH 10 0
BBX 8 7 1 0
BITMAP
90
D0
D7
D5
B7
B0
97
ENDCHAR
STARTCHAR uni2117
ENCODING 8471
SWIDTH 736 0
DWIDTH 9 0
BBX 8 7 0 0
BITMAP
3C
7A
A9
B9
A1
42
3C
ENDCHAR
STARTCHAR uni2119
ENCODING 8473
SWIDTH 666 0
DWIDTH 7 0
BBX 5 7 1 0
BITMAP
F0
E8
E8
F8
E0
E0
E0
ENDCHAR
STARTCHAR uni211A
ENCODING 8474
SWIDTH 777 0
DWIDTH 9 0
BBX 7 8 1 -1
BITMAP
38
64
A6
A6
AE
EE
7C
3A
ENDCHAR
STARTCHAR uni2120
ENCODING 8480
SWIDTH 750 0
DWIDTH 8 0
BBX 7 4 0 4
BITMAP
EA
8A
6E
EE
ENDCHAR
ENDFONT
